SplineFontDB: 2.0
FontName: MScore-20
FullName: MScore - Emmentaler 20
FamilyName: MScore
Weight: 20
Copyright: This font is distributed under the GNU General Public License. As a special exception, if you create a document which uses this font, and embed this font or unaltered portions of this font into the document, this font does not by itself cause the resulting document to be covered by the GNU General Public License.
Version: 2.11.42.1
ItalicAngle: 0
UnderlinePosition: -125
UnderlineWidth: 50
Ascent: 800
Descent: 200
XUID: [1021 684 1153736448 3625068]
UniqueID: 4164569
FSType: 0
OS2Version: 3
OS2_WeightWidthSlopeOnly: 0
OS2_UseTypoMetrics: 1
CreationTime: 1204866073
ModificationTime: 1206458966
PfmFamily: 17
TTFWeight: 400
TTFWidth: 5
LineGap: 90
VLineGap: 0
Panose: 2 0 5 3 0 0 0 0 0 0
OS2TypoAscent: 0
OS2TypoAOffset: 1
OS2TypoDescent: 0
OS2TypoDOffset: 1
OS2TypoLinegap: 90
OS2WinAscent: 0
OS2WinAOffset: 1
OS2WinDescent: 0
OS2WinDOffset: 1
HheadAscent: 0
HheadAOffset: 1
HheadDescent: 0
HheadDOffset: 1
OS2SubXSize: 650
OS2SubYSize: 699
OS2SubXOff: 0
OS2SubYOff: 140
OS2SupXSize: 650
OS2SupYSize: 699
OS2SupXOff: 0
OS2SupYOff: 479
OS2StrikeYSize: 49
OS2StrikeYPos: 258
OS2Vendor: 'PfEd'
Lookup: 258 0 0 "'kern' Horizontal Kerning in Latin lookup 0"  {"'kern' Horizontal Kerning in Latin lookup 0 subtable"  } ['kern' ('latn' <'dflt' > ) ]
Lookup: 258 0 0 "'kern' Horizontal Kerning lookup 1"  {"'kern' Horizontal Kerning lookup 1 subtable"  } ['kern' ('DFLT' <'dflt' > ) ]
LangName: 1033 "" "" "" "FontForge 2.0 : MScore - Emmentaler 20 : 25-3-2008" 
DesignSize: 200
Encoding: UnicodeBmp
UnicodeInterp: none
NameList: Adobe Glyph List
DisplaySize: -96
AntiAlias: 1
FitToEm: 1
WinInfo: 57592 8 2
BeginPrivate: 8
BlueValues 30 [-3 0 267 292 474 474 500 501]
OtherBlues 11 [-146 -146]
BlueScale 8 0.039625
BlueShift 2 20
BlueFuzz 1 1
StdHW 5 [100]
StdVW 4 [35]
ExpansionFactor 4 0.06
EndPrivate
BeginChars: 65537 400
StartChar: .notdef
Encoding: 65536 -1 0
Width: 500
Flags: MW
HStem: 0 50<100 400 100 450> 483 50<100 400 100 100>
VStem: 50 50<50 50 50 483> 400 50<50 483 483 483>
Fore
50 0 m 1
 50 533 l 1
 450 533 l 1
 450 0 l 1
 50 0 l 1
100 50 m 1
 400 50 l 1
 400 483 l 1
 100 483 l 1
 100 50 l 1
EndSplineSet
EndChar
StartChar: plus
Encoding: 43 43 2
Width: 250
GlyphClass: 2
Flags: MW
HStem: 225 50<18 100 25 100 150 225>
VStem: 100 50<150 225 275 350>
Fore
125 125 m 0
 111 125 100 136 100 150 c 2
 100 225 l 1
 25 225 l 2
 11 225 0 236 0 250 c 0
 0 264 11 275 25 275 c 2
 100 275 l 1
 100 350 l 2
 100 364 111 375 125 375 c 0
 139 375 150 364 150 350 c 2
 150 275 l 1
 225 275 l 2
 239 275 250 264 250 250 c 0
 250 236 239 225 225 225 c 2
 150 225 l 1
 150 150 l 2
 150 136 139 125 125 125 c 0
EndSplineSet
EndChar
StartChar: comma
Encoding: 44 44 3
Width: 115
GlyphClass: 2
Flags: MW
HStem: -157 272<41.5 47.5>
VStem: 66 49<-56 73>
Fore
66 -36 m 0
 66 15 0 -6 0 57 c 0
 0 89 26 115 57 115 c 0
 89 115 115 89 115 57 c 0
 115 -15 88 -83 57 -149 c 0
 55 -155 50 -157 45 -157 c 0
 37 -157 29 -152 29 -143 c 0
 29 -131 66 -76 66 -36 c 0
EndSplineSet
EndChar
StartChar: hyphen
Encoding: 45 45 4
Width: 167
GlyphClass: 2
Flags: MW
HStem: 152 29<11 152 15 152>
VStem: 0 167<163 171>
Fore
152 152 m 2
 15 152 l 2
 7 152 0 159 0 167 c 0
 0 175 7 181 15 181 c 2
 152 181 l 2
 160 181 167 175 167 167 c 0
 167 159 160 152 152 152 c 2
EndSplineSet
EndChar
StartChar: period
Encoding: 46 46 5
Width: 115
GlyphClass: 2
Flags: MW
HStem: 0 115<41.5 73>
VStem: 0 115<41.5 73>
Fore
0 57 m 0
 0 89 26 115 57 115 c 0
 89 115 115 89 115 57 c 0
 115 26 89 0 57 0 c 0
 26 0 0 26 0 57 c 0
EndSplineSet
EndChar
StartChar: zero
Encoding: 48 48 6
Width: 368
GlyphClass: 2
Flags: MW
HStem: 0 29<152.5 213.5 152.5 241> 471 29<152.5 213.5>
VStem: 0 116<186.5 205 295 313.5> 250 117<195 250 250 305 305 313.5 186.5 344>
Fore
183 471 m 0
 122 471 116 383 116 305 c 0
 116 285 117 267 117 250 c 0
 117 233 116 215 116 195 c 0
 116 117 122 29 183 29 c 0
 244 29 250 117 250 195 c 2
 250 250 l 1
 250 305 l 2
 250 383 244 471 183 471 c 0
183 500 m 0
 299 500 367 377 367 250 c 0
 367 123 299 0 183 0 c 0
 68 0 0 123 0 250 c 0
 0 377 68 500 183 500 c 0
EndSplineSet
EndChar
StartChar: one
Encoding: 49 49 7
Width: 319
GlyphClass: 2
Flags: MW
HStem: 0 23<40 66 284 310> 481 20G<217.5 224>
VStem: 117 116<117 362 362 368>
Fore
175 487 m 0
 196 487 214 501 221 501 c 0
 227 501 233 493 233 484 c 2
 233 117 l 2
 233 68 262 23 306 23 c 0
 314 23 318 17 318 12 c 0
 318 6 314 0 306 0 c 0
 262 0 219 13 175 13 c 0
 131 13 88 0 44 0 c 0
 36 0 32 6 32 12 c 0
 32 17 36 23 44 23 c 0
 88 23 117 68 117 117 c 2
 117 362 l 2
 117 374 108 381 100 381 c 0
 96 381 92 379 90 374 c 2
 26 238 l 2
 24 232 19 229 14 229 c 0
 6 229 -2 235 -2 243 c 0
 -2 245 -1 248 0 250 c 2
 117 500 l 2
 118 502 120 503 122 503 c 0
 133 503 151 487 175 487 c 0
EndSplineSet
EndChar
StartChar: two
Encoding: 50 50 8
Width: 368
GlyphClass: 2
Flags: MW
HStem: 0 79<269.5 277> 66 72<70 172> 477 23<152 191>
VStem: 0 23<7.5 11 7 90> 12 102<353 452> 235 117<278.5 385>
Fore
229 0 m 0xac
 138 0 141 66 85 66 c 0
 55 66 26 45 23 11 c 0x74
 23 3 17 0 12 0 c 0xac
 6 0 0 4 0 11 c 0xb4
 0 169 235 179 235 355 c 0
 235 415 217 477 165 477 c 0
 139 477 114 464 114 440 c 0
 114 413 149 399 149 372 c 0
 149 334 119 303 81 303 c 0
 43 303 12 334 12 372 c 0
 12 448 84 500 165 500 c 0
 261 500 352 444 352 355 c 0
 352 202 200 196 103 135 c 1
 111 137 120 138 129 138 c 0x6c
 215 138 239 79 300 79 c 0
 348 79 338 117 355 117 c 0
 361 117 367 112 367 105 c 0
 367 85 325 0 229 0 c 0xac
EndSplineSet
PairPos2: "'kern' Horizontal Kerning lookup 1 subtable" seven dx=0 dy=0 dh=0 dv=0 dx=0 dy=0 dh=0 dv=0
EndChar
StartChar: three
Encoding: 51 51 9
Width: 334
GlyphClass: 2
Flags: MW
HStem: 0 23<138.5 178.5 138.5 204> 250 29<82.5 167 87 167> 477 23<135.5 174.5>
VStem: 0 91<46.5 131.5> 12 79 217 102<378 386 386 413> 217 116<140 156 156 182.5>
Fore
263 265 m 0xec
 263 231 333 243 333 140 c 0
 333 48 254 0 154 0 c 0
 76 0 0 42 0 113 c 0
 0 150 29 179 66 179 c 0
 102 179 131 150 131 113 c 0
 131 88 91 85 91 60 c 0
 91 33 123 23 154 23 c 0
 203 23 217 84 217 140 c 2
 217 156 l 2xf2
 217 209 215 250 167 250 c 2
 87 250 l 2
 78 250 73 257 73 265 c 0
 73 272 78 279 87 279 c 2
 167 279 l 2
 216 279 217 322 217 378 c 2
 217 386 l 2
 217 440 199 477 150 477 c 0
 121 477 91 469 91 444 c 0
 91 422 127 419 127 397 c 0
 127 365 101 339 69 339 c 0
 37 339 12 365 12 397 c 0
 12 461 79 500 150 500 c 0
 241 500 319 467 319 386 c 0
 319 267 263 303 263 265 c 0xec
EndSplineSet
PairPos2: "'kern' Horizontal Kerning lookup 1 subtable" three dx=0 dy=0 dh=0 dv=0 dx=0 dy=0 dh=0 dv=0
PairPos2: "'kern' Horizontal Kerning lookup 1 subtable" zero dx=0 dy=0 dh=0 dv=0 dx=0 dy=0 dh=0 dv=0
EndChar
StartChar: four
Encoding: 52 52 10
Width: 401
GlyphClass: 2
Flags: MW
HStem: 0 23<119 145 363 389> 125 29<17.5 196 29 196 313 385> 481 20G<297 306.5>
VStem: 196 117<117 125 92.5 125 154 285 285 307>
Fore
225 487 m 0
 263 487 293 501 301 501 c 0
 312 501 318 490 313 484 c 2
 29 154 l 1
 196 154 l 1
 196 285 l 2
 196 329 237 290 291 407 c 0
 292 411 296 413 300 413 c 0
 306 413 313 408 313 399 c 2
 313 154 l 1
 385 154 l 2
 395 154 400 147 400 140 c 0
 400 132 395 125 385 125 c 2
 313 125 l 1
 313 117 l 2
 313 68 341 23 385 23 c 0
 393 23 397 17 397 12 c 0
 397 6 393 0 385 0 c 0
 341 0 298 13 254 13 c 0
 210 13 167 0 123 0 c 0
 115 0 111 6 111 12 c 0
 111 17 115 23 123 23 c 0
 167 23 196 68 196 117 c 2
 196 125 l 1
 29 125 l 2
 6 125 -2 139 -2 148 c 0
 -2 162 138 289 138 484 c 0
 138 493 144 500 151 500 c 0
 158 500 188 487 225 487 c 0
EndSplineSet
EndChar
StartChar: five
Encoding: 53 53 11
Width: 338
GlyphClass: 2
Flags: MW
HStem: 0 23<145.5 191 145.5 212> 292 29<143.5 190.5> 391 109<40 123.5>
VStem: 0 91<45 131.5> 29 29<278 374 278 484> 233 116<127.5 192>
Fore
44 500 m 0xec
 48 500 108 487 183 487 c 0
 259 487 320 500 325 500 c 0
 337 500 343 489 338 484 c 0
 269 415 172 391 75 391 c 0
 66 391 58 383 58 374 c 2
 58 278 l 1xec
 86 305 124 321 163 321 c 0
 279 321 349 271 349 160 c 0
 349 67 261 0 163 0 c 0
 81 0 0 40 0 113 c 0
 0 150 29 179 66 179 c 0
 102 179 131 150 131 113 c 0
 131 88 91 85 91 60 c 0xf4
 91 30 128 23 163 23 c 0
 219 23 233 95 233 160 c 0
 233 224 218 292 163 292 c 0
 69 292 61 241 44 241 c 0
 37 241 29 247 29 256 c 2
 29 484 l 2
 29 493 36 500 44 500 c 0xec
EndSplineSet
EndChar
StartChar: six
Encoding: 54 54 12
Width: 341
GlyphClass: 2
Flags: MW
HStem: 0 23<144.5 198.5 144.5 220.5> 256 23<160.5 198.5> 477 23<157 201.5>
VStem: 0 117<96 314> 231 109<107 172.5> 236 92<378.5 456>
Fore
170 256 m 0xf8
 119 256 117 212 117 154 c 2
 117 140 l 1
 117 125 l 2
 117 67 119 23 170 23 c 0
 227 23 231 74 231 140 c 0
 231 205 227 256 170 256 c 0xf8
117 266 m 1
 134 272 151 279 170 279 c 0
 271 279 340 234 340 140 c 0xf8
 340 45 271 0 170 0 c 0
 58 0 0 124 0 250 c 0
 0 378 73 500 190 500 c 0
 261 500 328 461 328 397 c 0
 328 360 299 331 263 331 c 0
 226 331 197 360 197 397 c 0
 197 420 236 422 236 446 c 0xf4
 236 466 213 477 190 477 c 0
 124 477 115 412 115 338 c 0
 115 314 116 290 117 266 c 1
EndSplineSet
EndChar
StartChar: seven
Encoding: 55 55 13
Width: 338
GlyphClass: 2
Flags: MW
HStem: 353 91<154.5 276.5> 410 90<11 90>
VStem: 0 29<265 340 466.5 471 471 485>
Fore
67 410 m 0x60
 48 410 29 391 29 340 c 2
 29 265 l 2
 29 255 22 250 15 250 c 0
 7 250 0 255 0 265 c 2
 0 485 l 2
 0 495 7 500 15 500 c 0
 22 500 29 495 29 485 c 2
 29 471 l 2
 29 462 41 452 44 456 c 0
 64 486 93 500 122 500 c 0x60
 192 500 200 444 249 444 c 0xa0
 304 444 332 500 344 500 c 0x60
 352 500 360 494 360 486 c 0
 360 468 199 288 199 90 c 0
 199 26 218 -3 194 -3 c 0
 187 -3 151 13 117 13 c 0
 82 13 50 -3 39 -3 c 0
 30 -3 23 6 27 14 c 0
 81 142 161 256 243 369 c 1
 223 359 203 353 184 353 c 0xa0
 125 353 113 410 67 410 c 0x60
EndSplineSet
EndChar
StartChar: eight
Encoding: 56 56 14
Width: 368
GlyphClass: 2
Flags: MW
HStem: 0 23<146.5 210.5 146.5 244.5> 477 23<167 221>
VStem: 0 44<105.5 161.5 105.5 165> 15 101<395.5 400> 269 103<107.5 118> 308 44<370 417>
Fore
259 288 m 1xd4
 286 318 308 350 308 390 c 0
 308 444 251 477 191 477 c 0
 143 477 116 440 116 406 c 0
 116 385 125 365 146 354 c 2
 259 288 l 1xd4
289 271 m 1
 346 238 372 191 372 144 c 0
 372 71 306 0 183 0 c 0
 89 0 0 53 0 140 c 0xe8
 0 190 39 225 76 260 c 1
 35 288 15 327 15 366 c 0
 15 434 75 500 191 500 c 0
 272 500 352 462 352 390 c 0
 352 343 322 305 289 271 c 1
106 242 m 1
 74 213 44 183 44 140 c 0
 44 71 110 23 183 23 c 0
 238 23 269 65 269 106 c 0
 269 130 258 154 234 168 c 2
 106 242 l 1
EndSplineSet
EndChar
StartChar: nine
Encoding: 57 57 15
Width: 341
GlyphClass: 2
Flags: MW
HStem: 0 23<138.5 183 138.5 208.5> 221 23<141.5 179.5> 477 23<141.5 195.5>
VStem: 0 109<327.5 393 327.5 407.5> 12 92<44 121.5> 223 117<186 360 186 375 186 404>
Fore
170 244 m 0xf4
 221 244 223 288 223 346 c 2
 223 360 l 1
 223 375 l 2
 223 433 221 477 170 477 c 0
 113 477 109 426 109 360 c 0
 109 295 113 244 170 244 c 0xf4
223 234 m 1
 206 228 189 221 170 221 c 0
 69 221 0 266 0 360 c 0xf4
 0 455 69 500 170 500 c 0
 282 500 340 376 340 250 c 0
 340 122 267 0 150 0 c 0
 79 0 12 39 12 103 c 0
 12 140 41 169 77 169 c 0
 114 169 143 140 143 103 c 0
 143 80 104 78 104 54 c 0xec
 104 34 127 23 150 23 c 0
 216 23 225 88 225 162 c 0
 225 186 224 210 223 234 c 1
EndSplineSet
EndChar
StartChar: f
Encoding: 102 102 16
Width: 322
GlyphClass: 2
Flags: MW
HStem: -173 37<-21 -15 -15 9 -21 34> 245 38<71.5 137 77 126 264 319> 437 37<319 350 350 357>
VStem: -102 58<-125 -110 -130 -84.5> 379 58<411 426 385.5 431>
Fore
253 245 m 1
 203 82 l 2
 173 -17 83 -173 -15 -173 c 0
 -60 -173 -102 -146 -102 -104 c 0
 -102 -65 -84 -27 -50 -27 c 0
 -25 -27 -6 -46 -6 -71 c 0
 -6 -101 -44 -95 -44 -125 c 0
 -44 -135 -33 -136 -21 -136 c 2
 -15 -136 l 2
 33 -136 46 -78 58 -28 c 2
 126 245 l 1
 77 245 l 2
 66 245 58 254 58 264 c 0
 58 275 66 283 77 283 c 2
 137 283 l 1
 168 379 255 474 350 474 c 0
 395 474 437 447 437 405 c 0
 437 366 420 328 385 328 c 0
 361 328 341 347 341 371 c 0
 341 402 379 396 379 426 c 0
 379 436 368 437 357 437 c 2
 350 437 l 2
 288 437 280 349 264 283 c 1
 319 283 l 2
 329 283 338 275 338 264 c 0
 338 254 329 245 319 245 c 2
 253 245 l 1
EndSplineSet
EndChar
StartChar: m
Encoding: 109 109 17
Width: 439
GlyphClass: 2
Flags: MW
HStem: -7 60<306 392.5> 233 66<62 62.5 62 190.5>
VStem: 284 91<16 61.5>
Fore
-43 140 m 0
 -43 155 16 299 108 299 c 0
 130 299 144 279 149 254 c 1
 171 280 201 299 230 299 c 0
 253 299 268 278 274 253 c 1
 296 279 324 299 354 299 c 0
 387 299 413 264 413 230 c 0
 413 225 412 220 411 215 c 2
 376 66 l 1
 375 64 375 62 375 61 c 0
 375 56 378 53 382 53 c 0
 403 53 431 90 443 90 c 0
 449 90 454 86 454 80 c 0
 454 70 378 -7 316 -7 c 0
 296 -7 284 7 284 25 c 0
 284 29 284 33 285 36 c 2
 324 201 l 2
 325 206 326 211 326 215 c 0
 326 225 322 233 312 233 c 0
 297 233 278 217 273 201 c 2
 220 18 l 2
 218 8 207 0 198 0 c 2
 157 0 l 2
 147 0 141 8 144 18 c 2
 196 201 l 2
 198 206 199 212 199 217 c 0
 199 226 195 233 186 233 c 0
 170 233 151 217 145 201 c 2
 83 18 l 2
 79 8 69 0 59 0 c 2
 18 0 l 2
 8 0 3 8 6 18 c 2
 69 201 l 2
 70 206 71 211 71 216 c 0
 71 226 67 233 58 233 c 0
 29 233 3 180 -8 146 c 0
 -12 135 -22 129 -31 129 c 0
 -37 129 -43 133 -43 140 c 0
EndSplineSet
EndChar
StartChar: p
Encoding: 112 112 18
Width: 365
GlyphClass: 2
Flags: MW
HStem: -146 21G<-123.5 -118 110.5 116> -8 40<150 225.5> 243 49<47 68 232.5 242>
VStem: 258 99<193 210.5 119 219>
Fore
233 243 m 0
 172 243 131 117 131 70 c 0
 131 48 139 32 161 32 c 0
 177 32 195 40 207 55 c 0
 230 83 258 176 258 210 c 0
 258 228 251 243 233 243 c 0
-53 141 m 0
 -53 145 -1 292 81 292 c 0
 116 292 140 270 147 240 c 1
 175 271 215 292 250 292 c 0
 319 292 357 243 357 178 c 0
 357 60 253 -8 198 -8 c 0
 143 -8 129 12 114 12 c 0
 107 12 100 9 98 3 c 2
 69 -83 l 2
 68 -85 68 -87 68 -90 c 0
 68 -129 125 -107 125 -132 c 0
 125 -139 120 -146 112 -146 c 0
 109 -146 58 -141 -4 -141 c 0
 -66 -141 -117 -146 -119 -146 c 0
 -128 -146 -133 -139 -133 -132 c 0
 -133 -101 -46 -134 -31 -91 c 2
 71 209 l 2
 74 216 75 223 75 229 c 0
 75 237 72 243 64 243 c 0
 30 243 1 183 -15 146 c 0
 -20 134 -31 129 -39 129 c 0
 -47 129 -53 133 -53 141 c 0
EndSplineSet
EndChar
StartChar: r
Encoding: 114 114 19
Width: 219
GlyphClass: 2
Flags: MW
HStem: 0 21G<13 18 18 58> 263 43<179.5 245> 273 32<39 54>
Fore
244 218 m 0xc0
 200 218 221 263 190 263 c 0xc0
 169 263 138 241 132 219 c 2
 80 18 l 2
 78 8 68 0 58 0 c 2
 18 0 l 2
 8 0 2 8 5 18 c 2
 62 241 l 1
 64 245 64 250 64 253 c 0
 64 265 59 273 49 273 c 0
 29 273 4 242 -2 219 c 1
 -6 212 -12 209 -18 209 c 0
 -25 209 -30 214 -30 221 c 0
 -30 229 -6 305 70 305 c 0xa0
 99 305 122 293 134 270 c 1
 162 294 196 306 227 306 c 0
 263 306 287 290 287 265 c 0
 287 242 266 218 244 218 c 0xc0
EndSplineSet
EndChar
StartChar: s
Encoding: 115 115 20
Width: 207
GlyphClass: 2
Flags: MW
HStem: 0 27<90 115.5 90 135> 268 24<158 176.5>
VStem: 22 42<48 55.5 41.5 78.5> 63 61<202.5 222> 163 60<75.5 107> 189 52<236 244 220.5 251.5>
Fore
124 223 m 0xd4
 124 182 223 173 223 106 c 0
 223 45 167 0 103 0 c 0
 61 0 22 28 22 68 c 0
 22 89 33 110 53 110 c 0
 71 110 85 95 85 78 c 0
 85 64 64 62 64 49 c 0
 64 34 81 27 99 27 c 0
 132 27 163 47 163 78 c 0xe8
 163 136 63 140 63 195 c 0
 63 249 108 292 162 292 c 0
 218 292 241 258 241 230 c 0
 241 211 230 194 211 194 c 0
 193 194 180 205 180 216 c 0
 180 225 189 227 189 245 c 0
 189 258 182 268 171 268 c 0
 145 268 124 248 124 223 c 0xd4
EndSplineSet
EndChar
StartChar: z
Encoding: 122 122 21
Width: 286
GlyphClass: 2
Flags: MW
HStem: -28 83<197 215> 11 55<88 93 93 94> 247 20G<82.5 115.5>
VStem: 253 33<40 99.5>
Fore
49 12 m 0x70
 23 12 25 0 14 0 c 0
 6 0 0 7 0 14 c 0
 0 17 1 21 4 24 c 2
 190 200 l 1
 156 194 120 195 85 189 c 0
 71 187 56 182 45 182 c 0
 35 182 28 186 28 197 c 0
 28 229 66 267 99 267 c 0
 132 267 160 245 193 245 c 0
 200 245 208 244 216 244 c 0
 248 244 244 257 256 257 c 0
 263 257 270 250 270 243 c 0
 270 240 268 236 265 233 c 2
 88 66 l 1
 93 66 l 2x70
 135 66 176 55 218 55 c 0xb0
 239 55 253 73 253 93 c 0
 253 106 249 108 249 114 c 0
 249 122 257 127 264 127 c 0
 282 127 286 83 286 66 c 0x70
 286 14 242 -28 188 -28 c 0xb0
 147 -28 115 11 73 11 c 0
 65 11 57 12 49 12 c 0x70
EndSplineSet
EndChar
StartChar: rests.0
Encoding: 57600 57600 22
Width: 376
GlyphClass: 2
Flags: MW
HStem: -156 156<7 365 10 365>
VStem: 0 375<-146 -10 -149 -7>
Fore
365 -156 m 2
 10 -156 l 2
 4 -156 0 -152 0 -146 c 2
 0 -10 l 2
 0 -4 4 0 10 0 c 2
 365 0 l 2
 371 0 375 -4 375 -10 c 2
 375 -146 l 2
 375 -152 371 -156 365 -156 c 2
EndSplineSet
EndChar
StartChar: rests.1
Encoding: 57601 57601 23
Width: 376
GlyphClass: 2
Flags: MW
HStem: 0 156<7 365 10 365>
VStem: 0 375<10 146 7 149>
Fore
365 0 m 2
 10 0 l 2
 4 0 0 4 0 10 c 2
 0 146 l 2
 0 152 4 156 10 156 c 2
 365 156 l 2
 371 156 375 152 375 146 c 2
 375 10 l 2
 375 4 371 0 365 0 c 2
EndSplineSet
EndChar
StartChar: rests.0o
Encoding: 57602 57602 24
Width: 376
GlyphClass: 2
Flags: MW
HStem: -156 181<7 10 10 365> -25 50<-138 506 -131 0 375 375 375 506>
Fore
365 -156 m 2x80
 10 -156 l 2x80
 4 -156 0 -152 0 -146 c 2
 0 -25 l 1
 -131 -25 l 2
 -145 -25 -156 -14 -156 0 c 0
 -156 14 -145 25 -131 25 c 2
 506 25 l 2
 520 25 531 14 531 0 c 0
 531 -14 520 -25 506 -25 c 2
 375 -25 l 1x40
 375 -146 l 2
 375 -152 371 -156 365 -156 c 2x80
EndSplineSet
EndChar
StartChar: rests.1o
Encoding: 57603 57603 25
Width: 376
GlyphClass: 2
Flags: MW
HStem: -25 50<-138 0 -131 0 375 506> -25 181<-138 365 10 365 365 368 10 506>
Fore
506 -25 m 2x80
 -131 -25 l 2
 -145 -25 -156 -14 -156 0 c 0
 -156 14 -145 25 -131 25 c 2
 0 25 l 1x80
 0 146 l 2
 0 152 4 156 10 156 c 2
 365 156 l 2x40
 371 156 375 152 375 146 c 2
 375 25 l 1
 506 25 l 2
 520 25 531 14 531 0 c 0
 531 -14 520 -25 506 -25 c 2x80
EndSplineSet
EndChar
StartChar: rests.M3
Encoding: 57604 57604 26
Width: 451
GlyphClass: 2
Flags: MW
VStem: 0 150<-240 240> 300 150<-240 240>
Fore
440 -250 m 2
 310 -250 l 2
 304 -250 300 -246 300 -240 c 2
 300 240 l 2
 300 246 304 250 310 250 c 2
 440 250 l 2
 446 250 450 246 450 240 c 2
 450 -240 l 2
 450 -246 446 -250 440 -250 c 2
140 -250 m 2
 10 -250 l 2
 4 -250 0 -246 0 -240 c 2
 0 240 l 2
 0 246 4 250 10 250 c 2
 140 250 l 2
 146 250 150 246 150 240 c 2
 150 -240 l 2
 150 -246 146 -250 140 -250 c 2
EndSplineSet
EndChar
StartChar: rests.M2
Encoding: 57605 57605 27
Width: 150
GlyphClass: 2
Flags: MW
VStem: 0 150<-240 240>
Fore
140 -250 m 2
 10 -250 l 2
 4 -250 0 -246 0 -240 c 2
 0 240 l 2
 0 246 4 250 10 250 c 2
 140 250 l 2
 146 250 150 246 150 240 c 2
 150 -240 l 2
 150 -246 146 -250 140 -250 c 2
EndSplineSet
EndChar
StartChar: rests.M1
Encoding: 57606 57606 28
Width: 150
GlyphClass: 2
Flags: MW
HStem: 0 250<7 140 10 140>
VStem: 0 150<10 240>
Fore
140 0 m 2
 10 0 l 2
 4 0 0 4 0 10 c 2
 0 240 l 2
 0 246 4 250 10 250 c 2
 140 250 l 2
 146 250 150 246 150 240 c 2
 150 10 l 2
 150 4 146 0 140 0 c 2
EndSplineSet
EndChar
StartChar: rests.2
Encoding: 57607 57607 29
Width: 238
GlyphClass: 2
Flags: MW
HStem: -146 72<6.5 138.5>
VStem: -23 76<-230.5 -98> -6 125<-8.5 107.5> 118 125<156 272.5>
Fore
-6 78 m 0xa0
 -6 137 118 162 118 260 c 0
 118 285 110 309 93 329 c 2
 58 371 l 2
 56 374 54 377 54 381 c 0
 54 389 62 396 71 396 c 0
 75 396 79 395 82 391 c 2
 233 211 l 2
 240 202 243 194 243 186 c 0x90
 243 126 119 102 119 4 c 0xa0
 119 -21 127 -45 143 -65 c 2
 227 -164 l 2
 230 -167 231 -171 231 -174 c 0
 231 -183 223 -190 215 -190 c 0
 207 -190 171 -146 106 -146 c 0
 78 -146 53 -157 53 -213 c 0
 53 -248 64 -287 81 -307 c 0
 86 -313 81 -320 75 -320 c 0
 62 -320 -23 -189 -23 -116 c 0xc0
 -23 -80 -4 -74 17 -74 c 0
 50 -74 95 -87 136 -105 c 1
 4 53 l 2
 -3 61 -6 70 -6 78 c 0xa0
EndSplineSet
EndChar
StartChar: rests.2classical
Encoding: 57608 57608 30
Width: 250
GlyphClass: 2
Flags: MW
HStem: 54 53<81.5 189>
VStem: 123 55<-250 -250>
Fore
180 205 m 0
 220 205 253 173 253 133 c 0
 253 87 212 54 166 54 c 0
 130 54 95 64 61 76 c 1
 178 -250 l 1
 170 -257 160 -260 150 -260 c 0
 141 -260 131 -257 123 -250 c 1
 0 170 l 1
 5 182 22 183 28 170 c 0
 35 155 74 107 89 107 c 0
 135 107 98 205 180 205 c 0
EndSplineSet
EndChar
StartChar: rests.3
Encoding: 57609 57609 31
Width: 250
GlyphClass: 2
Flags: MW
HStem: 54 53<61 168.5>
VStem: 72 55<-250 -250>
Fore
70 205 m 0
 152 205 115 107 161 107 c 0
 176 107 215 155 222 170 c 0
 228 183 245 182 250 170 c 1
 127 -250 l 1
 119 -257 109 -260 100 -260 c 0
 90 -260 80 -257 72 -250 c 1
 189 76 l 1
 155 64 120 54 84 54 c 0
 38 54 -3 87 -3 133 c 0
 -3 173 30 205 70 205 c 0
EndSplineSet
EndChar
StartChar: rests.4
Encoding: 57610 57610 32
Width: 301
GlyphClass: 2
Flags: MW
HStem: -196 53<38 145.5> 54 53<116 223>
VStem: -26 326<-140 170>
Fore
125 205 m 0
 207 205 170 107 215 107 c 0
 231 107 265 156 272 170 c 0
 278 183 295 182 300 170 c 1
 121 -500 l 1
 113 -507 104 -510 94 -510 c 0
 84 -510 74 -507 66 -500 c 1
 167 -173 l 1
 133 -186 97 -196 61 -196 c 0
 15 -196 -26 -163 -26 -117 c 0
 -26 -77 7 -45 46 -45 c 0
 129 -45 91 -143 137 -143 c 0
 154 -143 192 -92 197 -75 c 2
 243 76 l 1
 210 64 175 54 139 54 c 0
 93 54 52 87 52 133 c 0
 52 173 85 205 125 205 c 0
EndSplineSet
EndChar
StartChar: rests.5
Encoding: 57611 57611 33
Width: 326
GlyphClass: 2
Flags: MW
HStem: -196 53<8.5 116> 54 53<77 184> 304 53<146 252.5>
VStem: -55 380
Fore
154 455 m 0
 237 455 199 357 245 357 c 0
 260 357 291 406 297 420 c 0
 303 433 320 432 325 420 c 1
 109 -500 l 1
 101 -507 91 -510 81 -510 c 0
 72 -510 62 -507 54 -500 c 1
 140 -173 l 1
 105 -185 69 -196 32 -196 c 0
 -15 -196 -55 -163 -55 -117 c 0
 -55 -77 -23 -45 17 -45 c 0
 99 -45 62 -143 108 -143 c 0
 124 -143 162 -90 167 -72 c 2
 206 77 l 1
 172 65 137 54 100 54 c 0
 54 54 13 87 13 133 c 0
 13 173 46 205 86 205 c 0
 168 205 131 107 176 107 c 0
 192 107 228 158 232 175 c 2
 272 326 l 1
 239 314 204 304 169 304 c 0
 123 304 82 337 82 383 c 0
 82 423 114 455 154 455 c 0
EndSplineSet
EndChar
StartChar: rests.6
Encoding: 57612 57612 34
Width: 351
GlyphClass: 2
Flags: MW
HStem: -446 53<-3 105> -196 53<56.5 164> 54 53<116 223> 304 53<175.5 282>
VStem: -67 417
Fore
184 455 m 0
 266 455 229 357 275 357 c 0
 289 357 316 407 322 420 c 0
 327 433 345 432 350 420 c 1
 115 -750 l 1
 107 -757 97 -760 87 -760 c 0
 77 -760 68 -757 60 -750 c 1
 133 -422 l 1
 97 -435 59 -446 20 -446 c 0
 -26 -446 -67 -413 -67 -367 c 0
 -67 -327 -34 -295 6 -295 c 0
 88 -295 51 -393 96 -393 c 0
 114 -393 152 -338 156 -320 c 2
 189 -173 l 1
 154 -185 117 -196 80 -196 c 0
 33 -196 -7 -163 -7 -117 c 0
 -7 -77 25 -45 65 -45 c 0
 147 -45 110 -143 156 -143 c 0
 172 -143 207 -90 211 -72 c 2
 245 77 l 1
 211 64 175 54 139 54 c 0
 93 54 52 87 52 133 c 0
 52 173 85 205 125 205 c 0
 207 205 170 107 215 107 c 0
 231 107 263 159 267 175 c 2
 301 326 l 1
 268 314 234 304 199 304 c 0
 152 304 112 337 112 383 c 0
 112 423 144 455 184 455 c 0
EndSplineSet
EndChar
StartChar: rests.7
Encoding: 57613 57613 35
Width: 376
GlyphClass: 2
Flags: MW
HStem: -446 53<3.5 111.5> -196 53<54 161.5> 54 53<104.5 212> 304 53<155 261.5> 554 53<205.5 312>
VStem: -60 435
Fore
214 705 m 0
 296 705 259 607 305 607 c 0
 319 607 341 657 347 670 c 0
 352 683 370 682 375 670 c 1
 138 -750 l 1
 130 -757 120 -760 110 -760 c 0
 101 -760 91 -757 83 -750 c 1
 144 -421 l 1
 106 -434 67 -446 27 -446 c 0
 -20 -446 -60 -413 -60 -367 c 0
 -60 -327 -28 -295 12 -295 c 0
 94 -295 57 -393 103 -393 c 0
 120 -393 160 -336 163 -317 c 2
 190 -172 l 1
 154 -185 116 -196 77 -196 c 0
 31 -196 -10 -163 -10 -117 c 0
 -10 -77 22 -45 62 -45 c 0
 145 -45 107 -143 153 -143 c 0
 170 -143 206 -88 209 -70 c 2
 236 77 l 1
 201 65 165 54 128 54 c 0
 81 54 41 87 41 133 c 0
 41 173 73 205 113 205 c 0
 195 205 158 107 204 107 c 0
 220 107 252 160 255 178 c 2
 283 326 l 1
 249 314 214 304 178 304 c 0
 132 304 91 337 91 383 c 0
 91 423 123 455 163 455 c 0
 246 455 208 357 254 357 c 0
 269 357 298 409 301 425 c 2
 329 576 l 1
 296 564 263 554 229 554 c 0
 182 554 142 587 142 633 c 0
 142 673 174 705 214 705 c 0
EndSplineSet
EndChar
StartChar: accidentals.sharp
Encoding: 57614 57614 36
Width: 276
GlyphClass: 2
Flags: MW
VStem: 59 37<-356 -211 -211 -211 -95 51 51 51 167 312> 179 37<-312 -167 -167 -167 -51 95 95 95 211 356>
Fore
216 -312 m 2
 216 -323 208 -331 198 -331 c 0
 187 -331 179 -323 179 -312 c 2
 179 -167 l 1
 96 -198 l 1
 96 -356 l 2
 96 -367 88 -375 77 -375 c 0
 67 -375 59 -367 59 -356 c 2
 59 -211 l 1
 27 -223 l 2
 25 -224 22 -224 20 -224 c 0
 9 -224 0 -215 0 -204 c 2
 0 -144 l 2
 0 -136 5 -128 13 -125 c 2
 59 -109 l 1
 59 51 l 1
 27 40 l 2
 25 39 22 39 20 39 c 0
 9 39 0 47 0 59 c 2
 0 119 l 2
 0 127 5 134 13 137 c 2
 59 154 l 1
 59 312 l 2
 59 323 67 331 77 331 c 0
 88 331 96 323 96 312 c 2
 96 167 l 1
 179 198 l 1
 179 356 l 2
 179 367 187 375 198 375 c 0
 208 375 216 367 216 356 c 2
 216 211 l 1
 248 223 l 2
 250 224 253 224 255 224 c 0
 266 224 275 215 275 204 c 2
 275 144 l 2
 275 136 270 128 262 125 c 2
 216 109 l 1
 216 -51 l 1
 248 -40 l 2
 250 -39 253 -39 255 -39 c 0
 266 -39 275 -47 275 -59 c 2
 275 -119 l 2
 275 -127 270 -134 262 -137 c 2
 216 -154 l 1
 216 -312 l 2
179 95 m 1
 96 65 l 1
 96 -95 l 1
 179 -65 l 1
 179 95 l 1
EndSplineSet
EndChar
StartChar: accidentals.sharp.slashslash.stem
Encoding: 57615 57615 37
Width: 175
GlyphClass: 2
Flags: MW
VStem: 0 106<-200 -174 63 89> 69 37<-318 -195 -195 -195 -67 67 67 67 195 318> 69 106<-318 -123 -195 -123 -89 -63 -126.5 67 174 200>
Fore
106 -318 m 2x40
 106 -328 98 -337 88 -337 c 0
 77 -337 69 -328 69 -318 c 2
 69 -195 l 1x40
 30 -217 l 2
 27 -219 23 -220 20 -220 c 0
 10 -220 0 -211 0 -200 c 2
 0 -140 l 2x80
 0 -133 4 -126 10 -122 c 2
 69 -89 l 1x20
 69 67 l 1x40
 30 45 l 2
 27 43 23 43 20 43 c 0
 10 43 0 51 0 63 c 2
 0 123 l 2x80
 0 130 4 136 10 140 c 2
 69 174 l 1x20
 69 318 l 2
 69 328 77 337 88 337 c 0
 98 337 106 328 106 318 c 2
 106 195 l 1x40
 145 217 l 2
 148 219 152 220 155 220 c 0
 165 220 175 211 175 200 c 2
 175 140 l 2x20
 175 133 171 126 165 122 c 2
 106 89 l 1x80
 106 -67 l 1x40
 145 -45 l 2
 148 -43 152 -43 155 -43 c 0
 165 -43 175 -51 175 -63 c 2
 175 -123 l 2x20
 175 -130 171 -136 165 -140 c 2
 106 -174 l 1x80
 106 -318 l 2x40
EndSplineSet
EndChar
StartChar: accidentals.sharp.slashslashslash.stemstem
Encoding: 57616 57616 38
Width: 276
GlyphClass: 2
Flags: MW
VStem: 59 37<-356 -217 -217 -217 -123 -73 -73 -73 33 83 83 83 177 316> 179 37<-316 -177 -177 -177 -83 -33 -33 -33 73 123 123 123 217 356>
Fore
216 -316 m 2
 216 -327 208 -335 198 -335 c 0
 187 -335 179 -327 179 -316 c 2
 179 -177 l 1
 96 -205 l 1
 96 -356 l 2
 96 -367 88 -375 77 -375 c 0
 67 -375 59 -367 59 -356 c 2
 59 -217 l 1
 43 -222 l 2
 41 -223 39 -223 36 -223 c 0
 26 -223 16 -215 16 -203 c 2
 16 -163 l 2
 16 -155 22 -147 30 -144 c 2
 59 -135 l 1
 59 -73 l 1
 26 -83 l 2
 24 -84 22 -84 20 -84 c 0
 9 -84 0 -76 0 -64 c 2
 0 -13 l 2
 0 -5 6 3 14 6 c 2
 59 20 l 1
 59 83 l 1
 43 78 l 2
 41 77 39 77 36 77 c 0
 26 77 16 85 16 97 c 2
 16 137 l 2
 16 145 22 153 30 156 c 2
 59 165 l 1
 59 316 l 2
 59 327 67 335 77 335 c 0
 88 335 96 327 96 316 c 2
 96 177 l 1
 179 205 l 1
 179 356 l 2
 179 367 187 375 198 375 c 0
 208 375 216 367 216 356 c 2
 216 217 l 1
 232 222 l 2
 234 223 236 223 239 223 c 0
 249 223 259 215 259 203 c 2
 259 163 l 2
 259 155 253 147 245 144 c 2
 216 135 l 1
 216 73 l 1
 249 83 l 2
 251 84 253 84 255 84 c 0
 266 84 275 76 275 64 c 2
 275 13 l 2
 275 5 269 -3 261 -6 c 2
 216 -20 l 1
 216 -83 l 1
 232 -78 l 2
 234 -77 236 -77 239 -77 c 0
 249 -77 259 -85 259 -97 c 2
 259 -137 l 2
 259 -145 253 -153 245 -156 c 2
 216 -165 l 1
 216 -316 l 2
179 -33 m 1
 96 -60 l 1
 96 -123 l 1
 179 -95 l 1
 179 -33 l 1
179 60 m 1
 179 123 l 1
 96 95 l 1
 96 33 l 1
 179 60 l 1
EndSplineSet
EndChar
StartChar: accidentals.sharp.slashslashslash.stem
Encoding: 57617 57617 39
Width: 238
GlyphClass: 2
Flags: MW
VStem: 100 38<-304 -200 -200 -200 -100 -60 -60 -60 60 100 100 100 200 304>
Fore
138 -304 m 2
 138 -315 129 -323 119 -323 c 0
 108 -323 100 -315 100 -304 c 2
 100 -200 l 1
 52 -220 l 2
 49 -221 46 -222 44 -222 c 0
 33 -222 24 -213 24 -202 c 2
 24 -162 l 2
 24 -154 29 -146 36 -143 c 2
 100 -116 l 1
 100 -60 l 1
 28 -90 l 2
 25 -91 23 -92 20 -92 c 0
 9 -92 0 -83 0 -72 c 2
 0 -12 l 2
 0 -4 5 4 12 7 c 2
 100 44 l 1
 100 100 l 1
 52 80 l 2
 49 79 46 78 44 78 c 0
 33 78 24 87 24 98 c 2
 24 138 l 2
 24 146 29 154 36 157 c 2
 100 184 l 1
 100 304 l 2
 100 315 108 323 119 323 c 0
 129 323 138 315 138 304 c 2
 138 200 l 1
 186 220 l 2
 189 221 191 222 194 222 c 0
 204 222 214 213 214 202 c 2
 214 162 l 2
 214 154 209 146 202 143 c 2
 138 116 l 1
 138 60 l 1
 210 90 l 2
 212 91 215 92 218 92 c 0
 228 92 238 83 238 72 c 2
 238 12 l 2
 238 4 233 -4 225 -7 c 2
 138 -44 l 1
 138 -100 l 1
 186 -80 l 2
 189 -79 191 -78 194 -78 c 0
 204 -78 214 -87 214 -98 c 2
 214 -138 l 2
 214 -146 209 -154 202 -157 c 2
 138 -184 l 1
 138 -304 l 2
EndSplineSet
EndChar
StartChar: accidentals.sharp.slashslash.stemstemstem
Encoding: 57618 57618 40
Width: 401
GlyphClass: 2
Flags: MW
VStem: 69 37<-356 -215 -215 -215 -104 48 48 48 158 300> 181 38<-328 -187 -187 -187 -76 76 76 76 187 328> 294 37<-300 -158 -158 -158 -48 104 104 104 215 356>
Fore
331 -300 m 2
 331 -310 323 -319 312 -319 c 0
 302 -319 294 -310 294 -300 c 2
 294 -158 l 1
 219 -177 l 1
 219 -328 l 2
 219 -338 210 -347 200 -347 c 0
 190 -347 181 -338 181 -328 c 2
 181 -187 l 1
 106 -205 l 1
 106 -356 l 2
 106 -367 98 -375 88 -375 c 0
 77 -375 69 -367 69 -356 c 2
 69 -215 l 1
 25 -226 l 1
 20 -226 l 2
 9 -226 0 -218 0 -206 c 2
 0 -146 l 2
 0 -137 6 -129 15 -127 c 2
 69 -113 l 1
 69 48 l 1
 25 37 l 1
 23 36 22 36 20 36 c 0
 9 36 0 45 0 56 c 2
 0 116 l 2
 0 125 6 133 15 136 c 2
 69 149 l 1
 69 300 l 2
 69 310 77 319 88 319 c 0
 98 319 106 310 106 300 c 2
 106 158 l 1
 181 177 l 1
 181 328 l 2
 181 338 190 347 200 347 c 0
 210 347 219 338 219 328 c 2
 219 187 l 1
 294 205 l 1
 294 356 l 2
 294 367 302 375 312 375 c 0
 323 375 331 367 331 356 c 2
 331 215 l 1
 375 226 l 1
 380 226 l 2
 391 226 400 218 400 206 c 2
 400 146 l 2
 400 137 394 129 385 127 c 2
 331 113 l 1
 331 -48 l 1
 375 -37 l 1
 377 -36 378 -36 380 -36 c 0
 391 -36 400 -45 400 -56 c 2
 400 -116 l 2
 400 -125 394 -133 385 -136 c 2
 331 -149 l 1
 331 -300 l 2
294 104 m 1
 219 85 l 1
 219 -76 l 1
 294 -57 l 1
 294 104 l 1
181 76 m 1
 106 57 l 1
 106 -104 l 1
 181 -85 l 1
 181 76 l 1
EndSplineSet
EndChar
StartChar: accidentals.natural
Encoding: 57619 57619 41
Width: 167
GlyphClass: 2
Flags: MW
HStem: -192 97<127 128> 95 97<39 40>
VStem: -8 48 0 36 124 50<-375 -375> 128 39
Fore
-8 375 m 1xe0
 0 379 9 382 18 382 c 0
 26 382 35 379 43 375 c 1
 40 192 l 1
 146 212 l 1
 149 212 l 2
 159 212 167 205 167 195 c 2xe4
 174 -375 l 1
 166 -379 158 -382 149 -382 c 0
 141 -382 132 -379 124 -375 c 1
 127 -192 l 1
 21 -212 l 1
 18 -212 l 2
 8 -212 0 -205 0 -195 c 2xd8
 -8 375 l 1xe0
128 -95 m 1
 131 112 l 1
 39 95 l 1
 36 -112 l 1xd4
 128 -95 l 1
EndSplineSet
EndChar
StartChar: accidentals.flat
Encoding: 57620 57620 42
Width: 200
GlyphClass: 2
Flags: MW
HStem: 104 42<64.5 137>
VStem: -27 54<457 457> -15 41 123 77<8 54>
Fore
27 41 m 2xd0
 26 -25 l 1
 26 -36 l 2xb0
 26 -58 27 -80 30 -102 c 1
 75 -63 123 -21 123 37 c 0
 123 71 109 104 80 104 c 0
 49 104 28 74 27 41 c 2xd0
-15 -138 m 2
 -27 457 l 1
 -19 462 -9 465 0 465 c 0
 9 465 19 462 27 457 c 1xd0
 20 112 l 1
 45 134 78 146 111 146 c 0
 163 146 200 98 200 44 c 0
 200 -36 113 -73 53 -125 c 0
 37 -138 29 -163 8 -163 c 0
 -5 -163 -15 -151 -15 -138 c 2
EndSplineSet
EndChar
StartChar: accidentals.flat.slash
Encoding: 57621 57621 43
Width: 200
GlyphClass: 2
Flags: MW
HStem: 104 42<64.5 137>
VStem: -22 44<206 228> -15 41 123 77<8 54>
Fore
27 41 m 2xb0
 26 -25 l 1
 26 -36 l 2
 26 -58 27 -80 30 -102 c 1
 75 -63 123 -21 123 37 c 0
 123 71 109 104 80 104 c 0
 49 104 28 74 27 41 c 2xb0
-23 247 m 1
 -27 457 l 1
 -19 462 -9 465 0 465 c 0
 9 465 19 462 27 457 c 1
 23 270 l 1
 92 304 l 2
 113 315 131 282 108 271 c 2
 22 228 l 1xd0
 20 112 l 1
 45 134 78 146 111 146 c 0
 163 146 200 98 200 44 c 0
 200 -36 113 -73 53 -125 c 0
 37 -138 29 -163 8 -163 c 0
 -5 -163 -15 -151 -15 -138 c 2xb0
 -22 206 l 1xd0
 -92 171 l 2
 -103 165 -119 173 -119 187 c 0
 -119 194 -115 201 -108 204 c 2
 -23 247 l 1
EndSplineSet
EndChar
StartChar: accidentals.flat.slashslash
Encoding: 57622 57622 44
Width: 200
GlyphClass: 2
Flags: MW
HStem: 104 42<64.5 137>
VStem: -24 48<284 308 308 325> -15 41 123 77<8 54>
Fore
27 41 m 2xb0
 26 -25 l 1
 26 -36 l 2
 26 -58 27 -80 30 -102 c 1
 75 -63 123 -21 123 37 c 0
 123 71 109 104 80 104 c 0
 49 104 28 74 27 41 c 2xb0
-24 325 m 1xd0
 -27 457 l 1
 -19 462 -9 465 0 465 c 0
 9 465 19 462 27 457 c 1
 25 350 l 1
 92 383 l 2
 113 394 131 361 108 350 c 2
 24 308 l 1xd0
 22 230 l 1
 92 265 l 2
 113 275 131 242 108 231 c 2
 22 188 l 1
 20 112 l 1
 45 134 78 146 111 146 c 0
 163 146 200 98 200 44 c 0
 200 -36 113 -73 53 -125 c 0
 37 -138 29 -163 8 -163 c 0
 -5 -163 -15 -151 -15 -138 c 2xb0
 -21 166 l 1
 -92 131 l 2
 -103 125 -119 133 -119 148 c 0
 -119 155 -115 161 -108 165 c 2
 -22 208 l 1
 -24 284 l 1
 -92 250 l 2
 -103 244 -119 252 -119 267 c 0
 -119 274 -115 280 -108 283 c 2
 -24 325 l 1xd0
EndSplineSet
EndChar
StartChar: accidentals.mirroredflat.flat
Encoding: 57623 57623 45
Width: 401
GlyphClass: 2
Flags: MW
HStem: 104 42<63 135.5>
VStem: 0 77<8 54 8 71> 173 54<41 41> 174 52<-36 -25 -47 -25> 323 77<8 54>
Fore
208 -163 m 2xe8
 192 -163 l 2
 171 -163 163 -138 147 -125 c 0
 87 -73 0 -36 0 44 c 0
 0 98 37 146 89 146 c 0
 122 146 155 134 180 113 c 1
 173 457 l 1
 181 462 191 465 200 465 c 0
 209 465 219 462 227 457 c 1
 220 113 l 1
 245 134 278 146 311 146 c 0
 363 146 400 98 400 44 c 0
 400 -36 313 -73 253 -125 c 0
 237 -138 229 -163 208 -163 c 2xe8
173 41 m 2
 172 74 151 104 120 104 c 0
 91 104 77 71 77 37 c 0
 77 -21 125 -63 170 -102 c 1
 173 -80 174 -58 174 -36 c 2
 174 -25 l 1xd8
 173 41 l 2
227 41 m 2xe8
 226 -25 l 1
 226 -36 l 2xd8
 226 -58 227 -80 230 -102 c 1
 275 -63 323 -21 323 37 c 0
 323 71 309 104 280 104 c 0
 249 104 228 74 227 41 c 2xe8
EndSplineSet
EndChar
StartChar: accidentals.mirroredflat
Encoding: 57624 57624 46
Width: 200
GlyphClass: 2
Flags: MW
HStem: 104 42<33 105.5>
VStem: -30 77<8 54 8 71> 143 54<457 457> 144 41
Fore
143 41 m 2xe0
 142 74 121 104 90 104 c 0
 61 104 47 71 47 37 c 0
 47 -21 95 -63 140 -102 c 1
 143 -80 144 -58 144 -36 c 2
 144 -25 l 1xd0
 143 41 l 2xe0
185 -138 m 2
 185 -151 175 -163 162 -163 c 0
 141 -163 133 -138 117 -125 c 0
 57 -73 -30 -36 -30 44 c 0
 -30 98 7 146 59 146 c 0
 92 146 125 134 150 112 c 1
 143 457 l 1
 151 462 161 465 170 465 c 0
 179 465 189 462 197 457 c 1
 185 -138 l 2
EndSplineSet
EndChar
StartChar: accidentals.mirroredflat.backslash
Encoding: 57625 57625 47
Width: 200
GlyphClass: 2
Flags: MW
HStem: 104 42<-37 35.5>
VStem: -100 77<8 54 8 71> 73 54<457 457> 74 41 80 42
Fore
73 41 m 2xe0
 72 74 51 104 20 104 c 0
 -9 104 -23 71 -23 37 c 0
 -23 -21 25 -63 70 -102 c 1
 73 -80 74 -58 74 -36 c 2
 74 -25 l 1xd0
 73 41 l 2xe0
123 247 m 1
 208 204 l 2
 215 201 219 194 219 187 c 0
 219 173 203 165 192 171 c 2
 122 206 l 1xc8
 115 -138 l 2xd0
 115 -151 105 -163 92 -163 c 0
 71 -163 63 -138 47 -125 c 0
 -13 -73 -100 -36 -100 44 c 0
 -100 98 -63 146 -11 146 c 0
 22 146 55 134 80 112 c 1xc8
 78 228 l 1
 -8 271 l 2
 -31 282 -13 315 8 304 c 2
 77 270 l 1
 73 457 l 1
 81 462 91 465 100 465 c 0
 109 465 119 462 127 457 c 1
 123 247 l 1
EndSplineSet
EndChar
StartChar: accidentals.flatflat
Encoding: 57626 57626 48
Width: 363
GlyphClass: 2
Flags: MW
HStem: 104 42<45 100>
VStem: -27 54<457 457> -15 32 92 97<-25 53> 135 54<457 457> 145 43<-47 -32> 279 83<8.5 53.5>
Fore
190 41 m 2x86
 189 -25 l 1x92
 188 -29 188 -32 188 -36 c 0
 188 -58 190 -80 192 -102 c 1
 236 -64 279 -20 279 37 c 0
 279 70 268 104 239 104 c 0
 209 104 191 74 190 41 c 2x86
147 -138 m 2
 145 -32 l 1
 119 -66 79 -94 47 -125 c 0
 33 -138 28 -163 8 -163 c 0
 -5 -163 -15 -151 -15 -138 c 2xa6
 -27 457 l 1
 -19 462 -9 465 0 465 c 0
 9 465 19 462 27 457 c 1
 20 112 l 1
 37 133 63 146 90 146 c 0
 110 146 128 138 142 125 c 1
 135 457 l 1
 144 462 153 465 162 465 c 0
 172 465 181 462 189 457 c 1xca
 183 112 l 1
 207 134 238 146 270 146 c 0
 323 146 362 99 362 45 c 0
 362 -36 276 -73 215 -125 c 0
 200 -138 192 -163 171 -163 c 0
 158 -163 147 -151 147 -138 c 2
17 -26 m 1
 17 -36 l 2
 17 -59 19 -82 21 -104 c 1
 61 -66 92 -17 92 37 c 0xb2
 92 69 86 104 59 104 c 0
 31 104 19 72 19 41 c 2
 17 -26 l 1
EndSplineSet
EndChar
StartChar: accidentals.flatflat.slash
Encoding: 57627 57627 49
Width: 363
GlyphClass: 2
Flags: MW
HStem: 104 42<45 100>
VStem: -22 45<223 249> -15 32 92 97<-25 53> 138 49<315 343> 145 43<-47 -32> 279 83<8.5 53.5>
Fore
190 41 m 2x86
 189 -25 l 1x92
 188 -29 188 -32 188 -36 c 0
 188 -58 190 -80 192 -102 c 1
 236 -64 279 -20 279 37 c 0
 279 70 268 104 239 104 c 0
 209 104 191 74 190 41 c 2x86
-121 112 m 0
 -133 112 -146 123 -146 137 c 0
 -146 146 -141 155 -133 159 c 2
 -22 223 l 1
 -27 457 l 1
 -19 462 -9 465 0 465 c 0
 9 465 19 462 27 457 c 1
 23 249 l 1
 138 315 l 1xca
 135 457 l 1
 144 462 153 465 162 465 c 0
 172 465 181 462 189 457 c 1x92
 187 343 l 1x8a
 259 384 l 2
 263 386 268 388 272 388 c 0
 284 388 297 377 297 363 c 0
 297 354 292 345 284 341 c 2
 186 284 l 1
 183 112 l 1
 207 134 238 146 270 146 c 0
 323 146 362 99 362 45 c 0
 362 -36 276 -73 215 -125 c 0
 200 -138 192 -163 171 -163 c 0
 158 -163 147 -151 147 -138 c 2
 145 -32 l 1
 119 -66 79 -94 47 -125 c 0
 33 -138 28 -163 8 -163 c 0
 -5 -163 -15 -151 -15 -138 c 2xa6
 -21 166 l 1
 -108 116 l 2
 -112 114 -116 112 -121 112 c 0
140 258 m 1
 22 190 l 1
 20 112 l 1
 37 133 63 146 90 146 c 0
 110 146 128 138 142 125 c 1
 140 258 l 1
17 -26 m 1xb2
 17 -36 l 2
 17 -59 19 -82 21 -104 c 1
 61 -66 92 -17 92 37 c 0
 92 69 86 104 59 104 c 0
 31 104 19 72 19 41 c 2
 17 -26 l 1xb2
EndSplineSet
EndChar
StartChar: accidentals.doublesharp
Encoding: 57628 57628 50
Width: 250
GlyphClass: 2
Flags: MW
HStem: -126 98<6 90.5> 28 98<6 90.5>
VStem: -1 98<-135 -100 -119 -35> 153 98<-135 -100>
Fore
152 0 m 1
 175 -23 209 -28 241 -28 c 0
 247 -28 251 -32 251 -38 c 2
 260 -125 l 2
 261 -130 256 -135 251 -135 c 2
 250 -135 l 1
 163 -126 l 2
 157 -126 153 -122 153 -116 c 0
 153 -84 148 -50 125 -27 c 1
 102 -50 97 -84 97 -116 c 0
 97 -122 93 -126 88 -126 c 2
 0 -135 l 1
 -1 -135 l 2
 -6 -135 -11 -130 -10 -125 c 2
 -1 -38 l 2
 -1 -32 3 -28 9 -28 c 0
 41 -28 75 -23 98 0 c 1
 75 23 41 28 9 28 c 0
 3 28 -1 32 -1 38 c 2
 -10 125 l 2
 -11 130 -6 135 -1 135 c 2
 0 135 l 1
 88 126 l 2
 93 126 97 122 97 116 c 0
 97 84 102 50 125 27 c 1
 148 50 153 84 153 116 c 0
 153 122 157 126 163 126 c 2
 250 135 l 1
 251 135 l 2
 256 135 261 130 260 125 c 2
 251 38 l 2
 251 32 247 28 241 28 c 0
 209 28 175 23 152 0 c 1
EndSplineSet
EndChar
StartChar: accidentals.rightparen
Encoding: 57629 57629 51
Width: 150
GlyphClass: 2
Flags: MW
VStem: 100 50<-67 66 -67 94.5>
Fore
37 -250 m 0
 37 -237 100 -189 100 0 c 0
 100 189 37 237 37 250 c 0
 37 257 44 263 50 263 c 0
 65 263 150 132 150 0 c 0
 150 -134 64 -263 50 -263 c 0
 44 -263 37 -257 37 -250 c 0
EndSplineSet
EndChar
StartChar: accidentals.leftparen
Encoding: 57630 57630 52
Width: 0
GlyphClass: 2
Flags: MW
VStem: -150 50<-67 66>
Fore
-37 -250 m 0
 -37 -257 -44 -263 -50 -263 c 0
 -64 -263 -150 -134 -150 0 c 0
 -150 132 -65 263 -50 263 c 0
 -44 263 -37 257 -37 250 c 0
 -37 237 -100 189 -100 0 c 0
 -100 -189 -37 -237 -37 -250 c 0
EndSplineSet
EndChar
StartChar: arrowheads.open.01
Encoding: 57631 57631 53
Width: 20
GlyphClass: 2
Flags: MW
HStem: -20 40<-41 6.5>
VStem: -250 270<-111 5 -5 111>
Fore
-230 125 m 0
 -209 125 -152 20 0 20 c 0
 13 20 20 10 20 0 c 0
 20 -10 13 -20 0 -20 c 0
 -82 -20 -161 -56 -215 -118 c 0
 -219 -123 -224 -125 -230 -125 c 0
 -241 -125 -250 -117 -250 -105 c 0
 -250 -86 -183 -26 -112 0 c 1
 -189 28 -250 88 -250 105 c 0
 -250 117 -241 125 -230 125 c 0
EndSplineSet
EndChar
StartChar: arrowheads.open.0M1
Encoding: 57632 57632 54
Width: 250
GlyphClass: 2
Flags: MW
HStem: -20 40<-6.5 76>
VStem: -20 270<-111 5>
Fore
230 -125 m 0
 209 -125 152 -20 0 -20 c 0
 -13 -20 -20 -10 -20 0 c 0
 -20 10 -13 20 0 20 c 0
 152 20 209 125 230 125 c 0
 241 125 250 117 250 105 c 0
 250 88 189 28 112 0 c 1
 183 -26 250 -86 250 -105 c 0
 250 -117 241 -125 230 -125 c 0
EndSplineSet
EndChar
StartChar: arrowheads.open.11
Encoding: 57633 57633 55
Width: 125
GlyphClass: 2
Flags: MW
HStem: -250 270<-111 5 -5 111>
VStem: -20 40<-41 6.5 -41 6.5>
Fore
-125 -230 m 0
 -125 -209 -20 -152 -20 0 c 0
 -20 13 -10 20 0 20 c 0
 10 20 20 13 20 0 c 0
 20 -82 56 -161 118 -215 c 0
 123 -219 125 -224 125 -230 c 0
 125 -241 117 -250 105 -250 c 0
 86 -250 26 -183 0 -112 c 1
 -28 -189 -88 -250 -105 -250 c 0
 -117 -250 -125 -241 -125 -230 c 0
EndSplineSet
EndChar
StartChar: arrowheads.open.1M1
Encoding: 57634 57634 56
Width: 125
GlyphClass: 2
Flags: MW
HStem: -20 270<-111 5>
VStem: -20 40<-6.5 76>
Fore
125 230 m 0
 125 209 20 152 20 0 c 0
 20 -13 10 -20 0 -20 c 0
 -10 -20 -20 -13 -20 0 c 0
 -20 152 -125 209 -125 230 c 0
 -125 241 -117 250 -105 250 c 0
 -88 250 -28 189 0 112 c 1
 26 183 86 250 105 250 c 0
 117 250 125 241 125 230 c 0
EndSplineSet
EndChar
StartChar: arrowheads.close.01
Encoding: 57635 57635 57
Width: 0
GlyphClass: 2
Flags: MW
HStem: -10 20<-30 3.5>
VStem: -250 260<-118 2.5 -2.5 117.5>
Fore
-250 -115 m 0
 -250 -112 -237 -62 -237 0 c 0
 -237 62 -250 112 -250 115 c 0
 -250 120 -245 125 -240 125 c 0
 -237 125 -234 124 -232 121 c 0
 -195 74 -60 10 0 10 c 0
 7 10 10 5 10 0 c 0
 10 -5 7 -10 0 -10 c 0
 -60 -10 -195 -74 -232 -121 c 0
 -234 -124 -237 -125 -240 -125 c 0
 -245 -125 -250 -121 -250 -115 c 0
EndSplineSet
EndChar
StartChar: arrowheads.close.0M1
Encoding: 57636 57636 58
Width: 250
GlyphClass: 2
Flags: MW
HStem: -10 20<-3.5 30>
Fore
250 -115 m 0
 250 -121 245 -125 240 -125 c 0
 237 -125 234 -124 232 -121 c 0
 195 -74 60 -10 0 -10 c 0
 -7 -10 -10 -5 -10 0 c 0
 -10 5 -7 10 0 10 c 0
 60 10 195 74 232 121 c 0
 234 124 237 125 240 125 c 0
 245 125 250 120 250 115 c 0
 250 112 237 62 237 0 c 0
 237 -62 250 -112 250 -115 c 0
EndSplineSet
EndChar
StartChar: arrowheads.close.11
Encoding: 57637 57637 59
Width: 125
GlyphClass: 2
Flags: MW
HStem: -250 260<-117.5 2.5 -2.5 118>
VStem: -10 20<-30 3.5>
Fore
115 -250 m 0
 112 -250 62 -237 0 -237 c 0
 -62 -237 -112 -250 -115 -250 c 0
 -120 -250 -125 -245 -125 -240 c 0
 -125 -237 -124 -234 -121 -232 c 0
 -74 -195 -10 -60 -10 0 c 0
 -10 7 -5 10 0 10 c 0
 5 10 10 7 10 0 c 0
 10 -60 74 -195 121 -232 c 0
 124 -234 125 -237 125 -240 c 0
 125 -245 121 -250 115 -250 c 0
EndSplineSet
EndChar
StartChar: arrowheads.close.1M1
Encoding: 57638 57638 60
Width: 125
GlyphClass: 2
Flags: MW
VStem: -10 20<-3.5 30>
Fore
-115 250 m 0
 -112 250 -62 237 0 237 c 0
 62 237 112 250 115 250 c 0
 120 250 125 245 125 240 c 0
 125 237 124 234 121 232 c 0
 74 195 10 60 10 0 c 0
 10 -7 5 -10 0 -10 c 0
 -5 -10 -10 -7 -10 0 c 0
 -10 60 -74 195 -121 232 c 0
 -124 234 -125 237 -125 240 c 0
 -125 245 -121 250 -115 250 c 0
EndSplineSet
EndChar
StartChar: dots.dot
Encoding: 57639 57639 61
Width: 112
GlyphClass: 2
Flags: MW
HStem: -56 112<40.5 71.5>
VStem: 0 112<-15.5 15.5>
Fore
0 0 m 0
 0 31 25 56 56 56 c 0
 87 56 112 31 112 0 c 0
 112 -31 87 -56 56 -56 c 0
 25 -56 0 -31 0 0 c 0
EndSplineSet
EndChar
StartChar: noteheads.uM2
Encoding: 57640 57640 62
Width: 496
GlyphClass: 2
Flags: MW
HStem: -138 26<-40 -8 256 304> 112 26<-40 -8 -22 10 191 239>
VStem: -40 50<-112 -39 39 112> 485 50<-112 -39 -39 -39 39 862>
Fore
248 138 m 0
 396 138 466 74 485 39 c 1
 485 862 l 2
 485 876 496 888 510 888 c 0
 524 888 535 876 535 862 c 2
 535 -112 l 2
 535 -126 524 -138 510 -138 c 0
 496 -138 485 -126 485 -112 c 2
 485 -39 l 1
 466 -74 396 -138 248 -138 c 0
 99 -138 29 -74 10 -39 c 1
 10 -112 l 2
 10 -126 -1 -138 -15 -138 c 0
 -29 -138 -40 -126 -40 -112 c 2
 -40 112 l 2
 -40 126 -29 138 -15 138 c 0
 -1 138 10 126 10 112 c 2
 10 39 l 1
 29 74 99 138 248 138 c 0
215 112 m 0
 167 112 146 75 146 24 c 0
 146 -75 232 -112 280 -112 c 0
 328 -112 349 -75 349 -24 c 0
 349 75 263 112 215 112 c 0
EndSplineSet
EndChar
StartChar: noteheads.dM2
Encoding: 57641 57641 63
Width: 496
GlyphClass: 2
Flags: MW
HStem: -138 26<256 304 256 322> 112 26<-40 -8 -22 10 191 239>
VStem: -40 50<-863 -39 39 112> 485 50<-113 -39 -39 -39 39 112>
Fore
248 138 m 0
 396 138 466 74 485 39 c 1
 485 112 l 2
 485 126 496 138 510 138 c 0
 524 138 535 126 535 112 c 2
 535 -113 l 2
 535 -126 524 -138 510 -138 c 0
 496 -138 485 -126 485 -113 c 2
 485 -39 l 1
 466 -74 396 -138 248 -138 c 0
 99 -138 29 -74 10 -39 c 1
 10 -863 l 2
 10 -876 -1 -888 -15 -888 c 0
 -29 -888 -40 -876 -40 -863 c 2
 -40 112 l 2
 -40 126 -29 138 -15 138 c 0
 -1 138 10 126 10 112 c 2
 10 39 l 1
 29 74 99 138 248 138 c 0
215 112 m 0
 167 112 146 75 146 24 c 0
 146 -75 232 -112 280 -112 c 0
 328 -112 349 -75 349 -24 c 0
 349 75 263 112 215 112 c 0
EndSplineSet
EndChar
StartChar: noteheads.sM1
Encoding: 57642 57642 64
Width: 496
GlyphClass: 2
Flags: MW
HStem: -138 26<-40 -8 256 304> 112 26<-40 -8 -22 10 191 239>
VStem: -40 50<-112 -39 39 112> 485 50<-112 -39 -39 -39 39 112>
Fore
248 138 m 0
 396 138 466 74 485 39 c 1
 485 112 l 2
 485 126 496 138 510 138 c 0
 524 138 535 126 535 112 c 2
 535 -112 l 2
 535 -126 524 -138 510 -138 c 0
 496 -138 485 -126 485 -112 c 2
 485 -39 l 1
 466 -74 396 -138 248 -138 c 0
 99 -138 29 -74 10 -39 c 1
 10 -112 l 2
 10 -126 -1 -138 -15 -138 c 0
 -29 -138 -40 -126 -40 -112 c 2
 -40 112 l 2
 -40 126 -29 138 -15 138 c 0
 -1 138 10 126 10 112 c 2
 10 39 l 1
 29 74 99 138 248 138 c 0
215 112 m 0
 167 112 146 75 146 24 c 0
 146 -75 232 -112 280 -112 c 0
 328 -112 349 -75 349 -24 c 0
 349 75 263 112 215 112 c 0
EndSplineSet
EndChar
StartChar: noteheads.s0
Encoding: 57643 57643 65
Width: 496
GlyphClass: 2
Flags: MW
HStem: -138 26<256 304 256 312.5> 112 26<191 239>
VStem: 0 146<-25.5 40.5> 349 146<-40.5 25.5>
Fore
215 112 m 0
 167 112 146 75 146 24 c 0
 146 -75 232 -112 280 -112 c 0
 328 -112 349 -75 349 -24 c 0
 349 75 263 112 215 112 c 0
248 138 m 0
 389 138 495 74 495 0 c 0
 495 -81 377 -138 248 -138 c 0
 106 -138 0 -74 0 0 c 0
 0 81 118 138 248 138 c 0
EndSplineSet
EndChar
StartChar: noteheads.s1
Encoding: 57644 57644 66
Width: 348
GlyphClass: 2
Flags: MW
HStem: -138 32<62.5 94 62.5 109.5> 106 31<253 285>
VStem: 0 32<-77 -60 -77 -46.5> 315 32<60 77>
Fore
315 65 m 0
 315 89 297 106 273 106 c 0
 233 106 68 -7 43 -37 c 0
 36 -45 32 -55 32 -65 c 0
 32 -89 51 -106 74 -106 c 0
 114 -106 279 7 305 37 c 0
 312 45 315 55 315 65 c 0
264 137 m 0
 330 137 347 103 347 65 c 0
 347 28 324 -52 272 -87 c 0
 211 -128 135 -138 84 -138 c 0
 18 -138 0 -103 0 -65 c 0
 0 -28 23 52 75 87 c 0
 136 128 212 137 264 137 c 0
EndSplineSet
EndChar
StartChar: noteheads.s2
Encoding: 57645 57645 67
Width: 330
GlyphClass: 2
Flags: MW
HStem: -138 276<76.5 252.5>
VStem: 0 329<-74 74>
Fore
220 138 m 0
 285 138 329 101 329 47 c 0
 329 -43 216 -138 109 -138 c 0
 44 -138 0 -101 0 -47 c 0
 0 43 113 138 220 138 c 0
EndSplineSet
EndChar
StartChar: noteheads.s0diamond
Encoding: 57646 57646 68
Width: 496
GlyphClass: 2
Flags: MW
HStem: -138 63<223.5 293> 75 63<202 272>
VStem: 0 184<-22.5 29> 311 184<-29 22.5>
Fore
210 75 m 0
 194 75 184 69 184 1 c 0
 184 -46 202 -53 245 -66 c 0
 257 -70 273 -75 285 -75 c 0
 301 -75 311 -69 311 -1 c 0
 311 46 293 53 250 66 c 0
 238 70 222 75 210 75 c 0
495 0 m 0
 495 -58 415 -43 370 -68 c 0
 328 -91 296 -138 248 -138 c 0
 199 -138 167 -91 125 -68 c 0
 80 -43 0 -58 0 0 c 0
 0 58 80 43 125 68 c 0
 167 91 199 138 248 138 c 0
 296 138 328 91 370 68 c 0
 415 43 495 58 495 0 c 0
EndSplineSet
EndChar
StartChar: noteheads.s1diamond
Encoding: 57647 57647 69
Width: 365
GlyphClass: 2
Flags: MW
HStem: -105 24<92.5 174> 81 30
VStem: 0 72<-106 -50.5> 292 72<50.5 106>
Fore
292 55 m 0
 292 71 281 81 263 81 c 0
 229 81 102 -7 81 -31 c 0
 75 -38 72 -46 72 -55 c 0
 72 -71 84 -81 101 -81 c 0
 135 -81 262 7 283 31 c 0
 289 38 292 46 292 55 c 0
323 138 m 0
 348 138 364 115 364 97 c 0
 364 69 331 42 322 11 c 0
 308 -35 334 -111 239 -111 c 0
 214 -111 187 -105 161 -105 c 0
 113 -105 77 -137 41 -137 c 0
 17 -137 0 -115 0 -97 c 0
 0 -69 33 -42 42 -11 c 0
 57 35 30 111 125 111 c 0
 150 111 177 105 203 105 c 0
 251 105 287 138 323 138 c 0
EndSplineSet
EndChar
StartChar: noteheads.s2diamond
Encoding: 57648 57648 70
Width: 370
GlyphClass: 2
Flags: MW
HStem: -137 275<168.5 346> -125 262<95.5 200>
VStem: 0 369<-104 104>
Fore
331 138 m 0xa0
 361 138 369 109 369 99 c 0
 369 62 306 36 283 -3 c 0
 256 -47 239 -137 180 -137 c 0xa0
 157 -137 132 -125 107 -125 c 0
 84 -125 58 -138 37 -138 c 0
 7 -138 0 -109 0 -99 c 0
 0 -62 62 -36 86 3 c 0
 112 47 130 137 188 137 c 0x60
 212 137 236 125 261 125 c 0
 285 125 310 138 331 138 c 0xa0
EndSplineSet
EndChar
StartChar: noteheads.s0triangle
Encoding: 57649 57649 71
Width: 580
GlyphClass: 2
Flags: MW
VStem: 103 74<-96 -82.5>
Fore
131 83 m 1
 157 37 177 -22 177 -93 c 0
 177 -99 177 -104 176 -110 c 1
 240 -57 313 -12 396 19 c 1
 301 31 213 54 131 83 c 1
0 160 m 0
 0 179 30 183 43 183 c 0
 59 183 243 61 538 61 c 2
 543 61 l 2
 561 61 579 52 579 37 c 0
 579 -8 374 17 153 -214 c 0
 149 -218 144 -219 138 -219 c 0
 124 -219 93 -215 93 -196 c 0
 93 -195 103 -154 103 -107 c 0
 103 -58 93 43 16 137 c 0
 9 145 0 150 0 160 c 0
EndSplineSet
EndChar
StartChar: noteheads.d1triangle
Encoding: 57650 57650 72
Width: 419
GlyphClass: 2
Flags: MW
HStem: -197 254<89.5 397>
VStem: 74 59<-87 -57.5 -87 -22>
Fore
102 69 m 1
 121 24 133 -28 133 -87 c 1
 175 -46 223 -11 278 16 c 1
 214 26 155 45 102 69 c 1
0 142 m 0
 0 156 15 165 32 165 c 0
 54 165 168 57 389 57 c 0
 405 57 418 47 418 33 c 0
 418 -11 262 8 119 -188 c 0
 114 -195 106 -197 98 -197 c 0
 81 -197 66 -188 66 -173 c 0
 66 -165 74 -141 74 -94 c 0
 74 50 0 124 0 142 c 0
EndSplineSet
EndChar
StartChar: noteheads.u1triangle
Encoding: 57651 57651 73
Width: 419
GlyphClass: 2
Flags: MW
HStem: -197 254<89.5 397>
VStem: 74 59<-87 -57.5 -87 -22>
Fore
102 69 m 1
 121 24 133 -28 133 -87 c 1
 175 -46 223 -11 278 16 c 1
 214 26 155 45 102 69 c 1
0 142 m 0
 0 156 15 165 32 165 c 0
 54 165 168 57 389 57 c 0
 405 57 418 47 418 33 c 0
 418 -11 262 8 119 -188 c 0
 114 -195 106 -197 98 -197 c 0
 81 -197 66 -188 66 -173 c 0
 66 -165 74 -141 74 -94 c 0
 74 50 0 124 0 142 c 0
EndSplineSet
EndChar
StartChar: noteheads.u2triangle
Encoding: 57652 57652 74
Width: 349
GlyphClass: 2
Flags: MW
HStem: -197 254<73 330.5>
VStem: 62 286<-117 39>
Fore
62 -93 m 0
 62 47 0 124 0 140 c 0
 0 154 11 165 25 165 c 0
 47 165 139 57 324 57 c 0
 337 57 348 46 348 32 c 0
 348 -2 297 13 200 -69 c 0
 107 -147 110 -197 80 -197 c 0
 66 -197 55 -186 55 -173 c 0
 55 -165 62 -141 62 -93 c 0
EndSplineSet
EndChar
StartChar: noteheads.d2triangle
Encoding: 57653 57653 75
Width: 349
GlyphClass: 2
Flags: MW
HStem: -197 254<73 330.5>
VStem: 62 286<-117 39>
Fore
62 -93 m 0
 62 47 0 124 0 140 c 0
 0 154 11 165 25 165 c 0
 47 165 139 57 324 57 c 0
 337 57 348 46 348 32 c 0
 348 -2 297 13 200 -69 c 0
 107 -147 110 -197 80 -197 c 0
 66 -197 55 -186 55 -173 c 0
 55 -165 62 -141 62 -93 c 0
EndSplineSet
EndChar
StartChar: noteheads.s0slash
Encoding: 57654 57654 76
Width: 756
GlyphClass: 2
Flags: MW
HStem: -263 70<117 401 117 435> 193 70<352 637 352 352>
Fore
117 -193 m 1
 401 -193 l 1
 637 193 l 1
 352 193 l 1
 117 -193 l 1
10 -263 m 2
 4 -263 0 -258 0 -252 c 0
 0 -251 0 -249 1 -247 c 2
 310 258 l 2
 312 261 315 263 319 263 c 2
 744 263 l 2
 750 263 754 258 754 252 c 0
 754 251 753 249 752 247 c 2
 444 -258 l 2
 442 -261 438 -263 435 -263 c 2
 10 -263 l 2
EndSplineSet
EndChar
StartChar: noteheads.s1slash
Encoding: 57655 57655 77
Width: 588
GlyphClass: 2
Flags: MW
HStem: -263 70<117 234 117 267> 193 70<352 469 352 352>
Fore
117 -193 m 1
 234 -193 l 1
 469 193 l 1
 352 193 l 1
 117 -193 l 1
10 -263 m 2
 4 -263 0 -258 0 -252 c 0
 0 -251 0 -249 1 -247 c 2
 310 258 l 2
 312 261 315 263 319 263 c 2
 576 263 l 2
 582 263 586 258 586 252 c 0
 586 251 586 249 585 247 c 2
 276 -258 l 2
 274 -261 271 -263 267 -263 c 2
 10 -263 l 2
EndSplineSet
EndChar
StartChar: noteheads.s2slash
Encoding: 57656 57656 78
Width: 430
GlyphClass: 2
Flags: MW
VStem: 0 427
Fore
10 -263 m 2
 4 -263 0 -258 0 -252 c 0
 0 -251 0 -249 1 -247 c 2
 310 258 l 2
 312 261 315 263 319 263 c 2
 419 263 l 2
 425 263 429 258 429 252 c 0
 429 251 428 249 427 247 c 2
 119 -258 l 2
 117 -261 113 -263 110 -263 c 2
 10 -263 l 2
EndSplineSet
EndChar
StartChar: noteheads.s0cross
Encoding: 57657 57657 79
Width: 430
GlyphClass: 2
Flags: MW
HStem: -147 294<90 90 90 107 90 322 90 339>
VStem: 0 429<-80.5 -75.5 75.5 80.5>
Fore
223 44 m 2
 220 42 218 42 215 42 c 0
 212 42 209 42 206 44 c 2
 99 117 l 1
 42 78 l 1
 139 12 l 2
 143 10 146 5 146 0 c 0
 146 -5 143 -10 139 -12 c 2
 42 -78 l 1
 99 -117 l 1
 206 -44 l 1
 209 -43 212 -42 215 -42 c 0
 218 -42 220 -43 223 -44 c 1
 330 -117 l 1
 387 -78 l 1
 290 -12 l 2
 286 -10 283 -5 283 0 c 0
 283 5 286 10 290 12 c 2
 387 78 l 1
 330 117 l 1
 223 44 l 2
215 75 m 1
 322 147 l 2
 324 149 327 150 330 150 c 0
 333 150 336 149 339 147 c 2
 422 91 l 2
 427 88 429 83 429 78 c 0
 429 73 427 69 422 66 c 2
 325 0 l 1
 422 -66 l 2
 427 -69 429 -73 429 -78 c 0
 429 -83 427 -88 422 -91 c 2
 339 -147 l 2
 336 -149 333 -150 330 -150 c 0
 327 -150 324 -149 322 -147 c 2
 215 -75 l 1
 107 -147 l 2
 105 -149 102 -150 99 -150 c 0
 96 -150 93 -149 90 -147 c 2
 7 -91 l 2
 2 -88 0 -83 0 -78 c 0
 0 -73 2 -69 7 -66 c 2
 104 0 l 1
 7 66 l 2
 2 69 0 73 0 78 c 0
 0 83 2 88 7 91 c 2
 90 147 l 2
 93 149 96 150 99 150 c 0
 102 150 105 149 107 147 c 2
 215 75 l 1
EndSplineSet
EndChar
StartChar: noteheads.s1cross
Encoding: 57658 57658 80
Width: 380
GlyphClass: 2
Flags: MW
HStem: -141 282<69 69 69 87 69 292 69 310>
VStem: 0 379<-84.5 -79.5 79.5 84.5>
Fore
198 35 m 2
 196 33 193 32 190 32 c 0
 186 32 183 33 181 35 c 2
 78 110 l 1
 40 82 l 1
 135 12 l 2
 139 9 141 5 141 0 c 0
 141 -5 139 -9 135 -12 c 2
 40 -82 l 1
 78 -110 l 1
 181 -35 l 2
 183 -33 186 -32 190 -32 c 0
 193 -32 196 -33 198 -35 c 2
 301 -110 l 1
 339 -82 l 1
 244 -12 l 2
 240 -9 238 -5 238 0 c 0
 238 5 240 9 244 12 c 2
 339 82 l 1
 301 110 l 1
 198 35 l 2
190 65 m 1
 292 141 l 2
 295 143 298 144 301 144 c 0
 304 144 307 143 310 141 c 2
 373 94 l 2
 377 91 379 87 379 82 c 0
 379 77 377 73 373 70 c 2
 278 0 l 1
 373 -70 l 2
 377 -73 379 -77 379 -82 c 0
 379 -87 377 -91 373 -94 c 2
 310 -141 l 2
 307 -143 304 -144 301 -144 c 0
 298 -144 295 -143 292 -141 c 2
 190 -65 l 1
 87 -141 l 2
 85 -143 81 -144 78 -144 c 0
 75 -144 72 -143 69 -141 c 2
 6 -94 l 2
 2 -91 0 -87 0 -82 c 0
 0 -77 2 -73 6 -70 c 2
 101 0 l 1
 6 70 l 2
 2 73 0 77 0 82 c 0
 0 87 2 91 6 94 c 2
 69 141 l 2
 72 143 75 144 78 144 c 0
 81 144 85 143 87 141 c 2
 190 65 l 1
EndSplineSet
EndChar
StartChar: noteheads.s2cross
Encoding: 57659 57659 81
Width: 330
GlyphClass: 2
Flags: MW
HStem: -138 276<33 36.5 292.5 296>
VStem: 0 329<-108.5 -104 104 108.5>
Fore
165 36 m 1
 285 134 l 2
 287 136 291 138 294 138 c 0
 298 138 301 136 304 134 c 2
 324 118 l 2
 327 115 329 111 329 106 c 0
 329 102 327 98 324 95 c 2
 208 0 l 1
 324 -95 l 2
 327 -98 329 -102 329 -106 c 0
 329 -111 327 -115 324 -118 c 2
 304 -134 l 2
 301 -136 298 -138 294 -138 c 0
 291 -138 287 -136 285 -134 c 2
 165 -36 l 1
 44 -134 l 2
 42 -136 38 -138 35 -138 c 0
 31 -138 28 -136 25 -134 c 2
 5 -118 l 2
 2 -115 0 -111 0 -106 c 0
 0 -102 2 -98 5 -95 c 2
 121 0 l 1
 5 95 l 2
 2 98 0 102 0 106 c 0
 0 111 2 115 5 118 c 2
 25 134 l 2
 28 136 31 138 35 138 c 0
 38 138 42 136 44 134 c 2
 165 36 l 1
EndSplineSet
EndChar
StartChar: noteheads.s2xcircle
Encoding: 57660 57660 82
Width: 392
GlyphClass: 2
Flags: MW
HStem: -173 37<178 213.5 178 249> 136 37<178 213.5>
VStem: 0 36<-15.5 15.5 -15.5 48> 355 36<-15.5 15.5>
Fore
196 173 m 0
 302 173 391 96 391 0 c 0
 391 -96 302 -173 196 -173 c 0
 89 -173 0 -96 0 0 c 0
 0 96 89 173 196 173 c 0
196 24 m 1
 292 108 l 1
 265 126 231 136 196 136 c 0
 160 136 126 126 99 108 c 1
 196 24 l 1
168 0 m 1
 71 85 l 1
 49 61 36 31 36 0 c 0
 36 -31 49 -61 71 -85 c 1
 168 0 l 1
223 0 m 1
 321 -85 l 1
 343 -61 355 -31 355 0 c 0
 355 31 343 61 321 85 c 1
 223 0 l 1
196 -24 m 1
 99 -108 l 1
 126 -126 160 -136 196 -136 c 0
 231 -136 265 -126 292 -108 c 1
 196 -24 l 1
EndSplineSet
EndChar
StartChar: noteheads.s0do
Encoding: 57661 57661 83
Width: 496
GlyphClass: 2
Flags: MW
HStem: -112 43<84 411 84 473>
VStem: 0 495<-97 -87.5>
Fore
84 -69 m 1
 411 -69 l 1
 248 63 l 1
 84 -69 l 1
22 -112 m 2
 10 -112 0 -103 0 -91 c 0
 0 -84 3 -78 8 -74 c 2
 234 108 l 2
 238 111 243 112 248 112 c 0
 252 112 257 111 261 108 c 2
 487 -74 l 2
 492 -78 495 -84 495 -91 c 0
 495 -103 485 -112 473 -112 c 2
 22 -112 l 2
EndSplineSet
EndChar
StartChar: noteheads.d1do
Encoding: 57662 57662 84
Width: 348
GlyphClass: 2
Flags: MW
HStem: -112 43<69 279 69 326>
VStem: 0 347<-97 -88>
Fore
69 -69 m 1
 279 -69 l 1
 174 57 l 1
 69 -69 l 1
22 -112 m 2
 10 -112 0 -103 0 -91 c 0
 0 -85 2 -81 5 -77 c 2
 157 105 l 2
 161 110 167 113 174 113 c 0
 180 113 186 110 191 105 c 2
 342 -77 l 2
 346 -81 347 -85 347 -91 c 0
 347 -103 338 -112 326 -112 c 2
 22 -112 l 2
EndSplineSet
EndChar
StartChar: noteheads.u1do
Encoding: 57663 57663 85
Width: 348
GlyphClass: 2
Flags: MW
HStem: -112 43<69 279 69 326>
VStem: 0 347<-97 -88>
Fore
69 -69 m 1
 279 -69 l 1
 174 57 l 1
 69 -69 l 1
22 -112 m 2
 10 -112 0 -103 0 -91 c 0
 0 -85 2 -81 5 -77 c 2
 157 105 l 2
 161 110 167 113 174 113 c 0
 180 113 186 110 191 105 c 2
 342 -77 l 2
 346 -81 347 -85 347 -91 c 0
 347 -103 338 -112 326 -112 c 2
 22 -112 l 2
EndSplineSet
EndChar
StartChar: noteheads.d2do
Encoding: 57664 57664 86
Width: 330
GlyphClass: 2
Flags: MW
HStem: -112 225<16 168 161.5 168 161.5 307>
VStem: 0 329<-97 -88.5>
Fore
22 -112 m 2
 10 -112 0 -103 0 -91 c 0
 0 -86 2 -81 5 -77 c 2
 147 104 l 2
 151 109 158 113 165 113 c 0
 171 113 178 109 182 104 c 2
 324 -77 l 2
 327 -81 329 -86 329 -91 c 0
 329 -103 319 -112 307 -112 c 2
 22 -112 l 2
EndSplineSet
EndChar
StartChar: noteheads.u2do
Encoding: 57665 57665 87
Width: 330
GlyphClass: 2
Flags: MW
HStem: -112 225<16 168 161.5 168 161.5 307>
VStem: 0 329<-97 -88.5>
Fore
22 -112 m 2
 10 -112 0 -103 0 -91 c 0
 0 -86 2 -81 5 -77 c 2
 147 104 l 2
 151 109 158 113 165 113 c 0
 171 113 178 109 182 104 c 2
 324 -77 l 2
 327 -81 329 -86 329 -91 c 0
 329 -103 319 -112 307 -112 c 2
 22 -112 l 2
EndSplineSet
EndChar
StartChar: noteheads.s0re
Encoding: 57666 57666 88
Width: 496
GlyphClass: 2
Flags: MW
HStem: -112 43<199 296.5 199 308.5>
VStem: 0 44<36 69 -6 91> 451 44<36 69 69 69>
Fore
44 69 m 1
 44 36 l 2
 44 -48 150 -69 248 -69 c 0
 345 -69 451 -48 451 36 c 2
 451 69 l 1
 44 69 l 1
0 91 m 2
 0 103 10 112 22 112 c 2
 473 112 l 2
 485 112 495 103 495 91 c 2
 495 36 l 2
 495 -70 369 -112 248 -112 c 0
 126 -112 0 -70 0 36 c 2
 0 91 l 2
EndSplineSet
EndChar
StartChar: noteheads.u1re
Encoding: 57667 57667 89
Width: 348
GlyphClass: 2
Flags: MW
HStem: -112 43<140 207.5 140 219.5>
VStem: 0 44<36 69 4.5 91> 304 43<36 69 69 69>
Fore
44 69 m 1
 44 36 l 2
 44 -27 106 -69 174 -69 c 0
 241 -69 304 -27 304 36 c 2
 304 69 l 1
 44 69 l 1
0 91 m 2
 0 103 10 112 22 112 c 2
 326 112 l 2
 338 112 347 103 347 91 c 2
 347 36 l 2
 347 -51 265 -112 174 -112 c 0
 82 -112 0 -51 0 36 c 2
 0 91 l 2
EndSplineSet
EndChar
StartChar: noteheads.d1re
Encoding: 57668 57668 90
Width: 348
GlyphClass: 2
Flags: MW
HStem: -112 43<140 207.5 140 219.5>
VStem: 0 44<36 69 4.5 91> 304 43<36 69 69 69>
Fore
44 69 m 1
 44 36 l 2
 44 -27 106 -69 174 -69 c 0
 241 -69 304 -27 304 36 c 2
 304 69 l 1
 44 69 l 1
0 91 m 2
 0 103 10 112 22 112 c 2
 326 112 l 2
 338 112 347 103 347 91 c 2
 347 36 l 2
 347 -51 265 -112 174 -112 c 0
 82 -112 0 -51 0 36 c 2
 0 91 l 2
EndSplineSet
EndChar
StartChar: noteheads.u2re
Encoding: 57669 57669 91
Width: 330
GlyphClass: 2
Flags: MW
HStem: -112 224<120.5 209>
VStem: 0 329<36 91 -6.5 97>
Fore
0 91 m 2
 0 103 10 112 22 112 c 2
 307 112 l 2
 319 112 329 103 329 91 c 2
 329 36 l 2
 329 -49 253 -112 165 -112 c 0
 76 -112 0 -49 0 36 c 2
 0 91 l 2
EndSplineSet
EndChar
StartChar: noteheads.d2re
Encoding: 57670 57670 92
Width: 330
GlyphClass: 2
Flags: MW
HStem: -112 224<120.5 209>
VStem: 0 329<36 91 -6.5 97>
Fore
0 91 m 2
 0 103 10 112 22 112 c 2
 307 112 l 2
 319 112 329 103 329 91 c 2
 329 36 l 2
 329 -49 253 -112 165 -112 c 0
 76 -112 0 -49 0 36 c 2
 0 91 l 2
EndSplineSet
EndChar
StartChar: noteheads.s0mi
Encoding: 57671 57671 93
Width: 496
GlyphClass: 2
Flags: MW
HStem: -111 222<239 239 239 256>
VStem: 0 495<-4.5 4.5>
Fore
95 6 m 1
 262 -61 l 1
 400 -6 l 1
 233 61 l 1
 95 6 l 1
14 -20 m 2
 5 -17 0 -9 0 0 c 0
 0 9 5 17 14 20 c 2
 239 111 l 2
 242 112 245 112 248 112 c 0
 250 112 253 112 256 111 c 2
 481 20 l 2
 490 17 495 9 495 0 c 0
 495 -9 490 -17 481 -20 c 2
 256 -111 l 2
 253 -112 250 -112 248 -112 c 0
 245 -112 242 -112 239 -111 c 2
 14 -20 l 2
EndSplineSet
EndChar
StartChar: noteheads.s1mi
Encoding: 57672 57672 94
Width: 330
GlyphClass: 2
Flags: MW
HStem: -109 218<153 153 153 176>
VStem: 0 329<-3.5 3.5>
Fore
73 6 m 1
 175 -58 l 1
 256 -6 l 1
 154 58 l 1
 73 6 l 1
10 -18 m 2
 4 -14 0 -7 0 0 c 0
 0 7 4 14 10 18 c 2
 153 109 l 2
 156 111 160 112 165 112 c 0
 169 112 173 111 176 109 c 2
 319 18 l 2
 325 14 329 7 329 0 c 0
 329 -7 325 -14 319 -18 c 2
 176 -109 l 2
 173 -111 169 -112 165 -112 c 0
 160 -112 156 -111 153 -109 c 2
 10 -18 l 2
EndSplineSet
EndChar
StartChar: noteheads.s2mi
Encoding: 57673 57673 95
Width: 330
GlyphClass: 2
Flags: MW
HStem: -109 218<153 153 153 176>
VStem: 0 329<-3.5 3.5>
Fore
10 -18 m 2
 4 -14 0 -7 0 0 c 0
 0 7 4 14 10 18 c 2
 153 109 l 2
 156 111 160 112 165 112 c 0
 169 112 173 111 176 109 c 2
 319 18 l 2
 325 14 329 7 329 0 c 0
 329 -7 325 -14 319 -18 c 2
 176 -109 l 2
 173 -111 169 -112 165 -112 c 0
 160 -112 156 -111 153 -109 c 2
 10 -18 l 2
EndSplineSet
EndChar
StartChar: noteheads.u0fa
Encoding: 57674 57674 96
Width: 496
GlyphClass: 2
Flags: MW
HStem: 69 43<135 135 135 451>
VStem: 451 44<-58 69 69 69>
Fore
135 69 m 1
 451 -58 l 1
 451 69 l 1
 135 69 l 1
0 91 m 0
 0 103 10 112 22 112 c 2
 473 112 l 2
 485 112 495 103 495 91 c 2
 495 -91 l 2
 495 -103 485 -112 473 -112 c 0
 470 -112 468 -112 465 -111 c 2
 14 70 l 2
 5 74 0 82 0 91 c 0
EndSplineSet
EndChar
StartChar: noteheads.d0fa
Encoding: 57675 57675 97
Width: 496
GlyphClass: 2
Flags: MW
HStem: -112 43<16 360 44 360 44 473>
VStem: 0 44<-69 58 -69 91 -69 97>
Fore
360 -69 m 1
 44 58 l 1
 44 -69 l 1
 360 -69 l 1
495 -91 m 0
 495 -103 485 -112 473 -112 c 2
 22 -112 l 2
 10 -112 0 -103 0 -91 c 2
 0 91 l 2
 0 103 10 112 22 112 c 0
 25 112 27 112 30 111 c 2
 481 -70 l 2
 490 -74 495 -82 495 -91 c 0
EndSplineSet
EndChar
StartChar: noteheads.u1fa
Encoding: 57676 57676 98
Width: 348
GlyphClass: 2
Flags: MW
HStem: 69 43<101 101 101 304>
VStem: 304 43<-52 69 69 69>
Fore
101 69 m 1
 304 -52 l 1
 304 69 l 1
 101 69 l 1
0 91 m 0
 0 103 10 112 22 112 c 2
 326 112 l 2
 338 112 347 103 347 91 c 2
 347 -91 l 2
 347 -103 338 -112 326 -112 c 0
 322 -112 318 -111 314 -109 c 2
 11 72 l 2
 4 76 0 83 0 91 c 0
EndSplineSet
EndChar
StartChar: noteheads.d1fa
Encoding: 57677 57677 99
Width: 348
GlyphClass: 2
Flags: MW
HStem: -112 43<16 246 44 246 44 326>
VStem: 0 44<-69 52 -69 91 -69 97>
Fore
246 -69 m 1
 44 52 l 1
 44 -69 l 1
 246 -69 l 1
347 -91 m 0
 347 -103 338 -112 326 -112 c 2
 22 -112 l 2
 10 -112 0 -103 0 -91 c 2
 0 91 l 2
 0 103 10 112 22 112 c 0
 26 112 30 111 33 109 c 2
 337 -72 l 2
 343 -76 347 -83 347 -91 c 0
EndSplineSet
EndChar
StartChar: noteheads.u2fa
Encoding: 57678 57678 100
Width: 330
GlyphClass: 2
Flags: MW
HStem: -109 221<295 295>
VStem: 0 329<87 91 -97 97>
Fore
0 91 m 0
 0 103 10 112 22 112 c 2
 307 112 l 2
 319 112 329 103 329 91 c 2
 329 -91 l 2
 329 -103 319 -112 307 -112 c 0
 303 -112 299 -111 295 -109 c 2
 10 72 l 2
 4 76 0 83 0 91 c 0
EndSplineSet
EndChar
StartChar: noteheads.d2fa
Encoding: 57679 57679 101
Width: 330
GlyphClass: 2
Flags: MW
HStem: -112 224<16 22 22 24 16 307>
VStem: 0 329<-91 -87 -97 91 -97 97>
Fore
329 -91 m 0
 329 -103 319 -112 307 -112 c 2
 22 -112 l 2
 10 -112 0 -103 0 -91 c 2
 0 91 l 2
 0 103 10 112 22 112 c 0
 26 112 30 111 34 109 c 2
 319 -72 l 2
 325 -76 329 -83 329 -91 c 0
EndSplineSet
EndChar
StartChar: noteheads.s0la
Encoding: 57680 57680 102
Width: 496
GlyphClass: 2
Flags: MW
HStem: -112 43<16 451 44 451 44 473> 69 43<44 44 44 451>
VStem: 0 44<-69 69 -69 91 -69 97> 451 44<-69 69 69 69>
Fore
44 69 m 1
 44 -69 l 1
 451 -69 l 1
 451 69 l 1
 44 69 l 1
22 112 m 2
 473 112 l 2
 485 112 495 103 495 91 c 2
 495 -91 l 2
 495 -103 485 -112 473 -112 c 2
 22 -112 l 2
 10 -112 0 -103 0 -91 c 2
 0 91 l 2
 0 103 10 112 22 112 c 2
EndSplineSet
EndChar
StartChar: noteheads.s1la
Encoding: 57681 57681 103
Width: 348
GlyphClass: 2
Flags: MW
HStem: -112 43<16 304 44 304 44 326> 69 43<44 44 44 304>
VStem: 0 44<-69 69 -69 91 -69 97> 304 43<-69 69 69 69>
Fore
44 69 m 1
 44 -69 l 1
 304 -69 l 1
 304 69 l 1
 44 69 l 1
22 112 m 2
 326 112 l 2
 338 112 347 103 347 91 c 2
 347 -91 l 2
 347 -103 338 -112 326 -112 c 2
 22 -112 l 2
 10 -112 0 -103 0 -91 c 2
 0 91 l 2
 0 103 10 112 22 112 c 2
EndSplineSet
EndChar
StartChar: noteheads.s2la
Encoding: 57682 57682 104
Width: 330
GlyphClass: 2
Flags: MW
HStem: -112 224<16 307 22 307>
VStem: 0 329<-91 91 -97 97>
Fore
22 112 m 2
 307 112 l 2
 319 112 329 103 329 91 c 2
 329 -91 l 2
 329 -103 319 -112 307 -112 c 2
 22 -112 l 2
 10 -112 0 -103 0 -91 c 2
 0 91 l 2
 0 103 10 112 22 112 c 2
EndSplineSet
EndChar
StartChar: noteheads.s0ti
Encoding: 57683 57683 105
Width: 496
GlyphClass: 2
Flags: MW
HStem: 69 44<216.5 279>
VStem: 0 495<21 27 21 39.5>
Fore
248 -66 m 1
 427 26 l 1
 371 54 310 69 248 69 c 0
 185 69 124 54 68 26 c 1
 248 -66 l 1
0 25 m 0
 0 54 127 113 248 113 c 0
 331 113 412 89 483 45 c 0
 494 38 495 29 495 25 c 0
 495 17 490 9 483 6 c 2
 258 -110 l 2
 254 -112 251 -112 248 -112 c 0
 244 -112 241 -112 238 -110 c 2
 12 6 l 2
 5 9 0 17 0 25 c 0
EndSplineSet
EndChar
StartChar: noteheads.u1ti
Encoding: 57684 57684 106
Width: 348
GlyphClass: 2
Flags: MW
HStem: 69 43<152.5 195.5>
VStem: 0 348<21 34.5>
Fore
174 -63 m 1
 292 27 l 1
 258 54 217 69 174 69 c 0
 131 69 89 54 56 27 c 1
 174 -63 l 1
174 112 m 0
 275 112 348 45 348 24 c 0
 348 18 344 12 339 8 c 2
 187 -108 l 2
 183 -111 179 -112 174 -112 c 0
 169 -112 164 -111 160 -108 c 2
 9 8 l 2
 3 12 0 18 0 24 c 0
 0 45 73 112 174 112 c 0
EndSplineSet
EndChar
StartChar: noteheads.d1ti
Encoding: 57685 57685 107
Width: 348
GlyphClass: 2
Flags: MW
HStem: 69 43<152.5 195.5>
VStem: 0 348<21 34.5>
Fore
174 -63 m 1
 292 27 l 1
 258 54 217 69 174 69 c 0
 131 69 89 54 56 27 c 1
 174 -63 l 1
174 112 m 0
 275 112 348 45 348 24 c 0
 348 18 344 12 339 8 c 2
 187 -108 l 2
 183 -111 179 -112 174 -112 c 0
 169 -112 164 -111 160 -108 c 2
 9 8 l 2
 3 12 0 18 0 24 c 0
 0 45 73 112 174 112 c 0
EndSplineSet
EndChar
StartChar: noteheads.u2ti
Encoding: 57686 57686 108
Width: 330
GlyphClass: 2
Flags: MW
HStem: -112 224<162 167.5>
VStem: 0 329<21 33 21 34.5>
Fore
165 112 m 0
 264 112 329 42 329 24 c 0
 329 18 326 12 321 8 c 2
 178 -108 l 2
 174 -111 170 -112 165 -112 c 0
 159 -112 155 -111 151 -108 c 2
 8 8 l 2
 3 12 0 18 0 24 c 0
 0 45 68 112 165 112 c 0
EndSplineSet
EndChar
StartChar: noteheads.d2ti
Encoding: 57687 57687 109
Width: 330
GlyphClass: 2
Flags: MW
HStem: -112 224<162 167.5>
VStem: 0 329<21 33 21 34.5>
Fore
165 112 m 0
 264 112 329 42 329 24 c 0
 329 18 326 12 321 8 c 2
 178 -108 l 2
 174 -111 170 -112 165 -112 c 0
 159 -112 155 -111 151 -108 c 2
 8 8 l 2
 3 12 0 18 0 24 c 0
 0 45 68 112 165 112 c 0
EndSplineSet
EndChar
StartChar: scripts.ufermata
Encoding: 57688 57688 110
Width: 332
GlyphClass: 2
Flags: MW
HStem: -19 134<-18.5 18.5> 262 101<-74 74>
VStem: -67 134<29.5 66.5>
Fore
-67 48 m 0
 -67 85 -37 115 0 115 c 0
 37 115 67 85 67 48 c 0
 67 11 37 -19 0 -19 c 0
 -37 -19 -67 11 -67 48 c 0
0 363 m 0
 258 363 332 27 332 -3 c 0
 332 -12 323 -18 313 -18 c 0
 305 -18 296 -13 294 0 c 0
 268 148 148 262 0 262 c 0
 -148 262 -268 148 -294 0 c 0
 -296 -13 -305 -18 -313 -18 c 0
 -323 -18 -332 -12 -332 -3 c 0
 -332 27 -258 363 0 363 c 0
EndSplineSet
EndChar
StartChar: scripts.dfermata
Encoding: 57689 57689 111
Width: 332
GlyphClass: 2
Flags: MW
HStem: -363 101<-74 74 -74 129> -115 134<-18.5 18.5>
VStem: -67 134<-66.5 -29.5>
Fore
-67 -48 m 0
 -67 -11 -37 19 0 19 c 0
 37 19 67 -11 67 -48 c 0
 67 -85 37 -115 0 -115 c 0
 -37 -115 -67 -85 -67 -48 c 0
0 -363 m 0
 -258 -363 -332 -27 -332 3 c 0
 -332 12 -323 18 -313 18 c 0
 -305 18 -296 13 -294 0 c 0
 -268 -148 -148 -262 0 -262 c 0
 148 -262 268 -148 294 0 c 0
 296 13 305 18 313 18 c 0
 323 18 332 12 332 3 c 0
 332 -27 258 -363 0 -363 c 0
EndSplineSet
EndChar
StartChar: scripts.ushortfermata
Encoding: 57690 57690 112
Width: 250
GlyphClass: 2
Flags: MW
HStem: 0 133<-43 -6.5>
VStem: -91 133<48.5 85>
Fore
-91 67 m 0
 -91 103 -61 133 -25 133 c 0
 12 133 42 103 42 67 c 0
 42 30 12 0 -25 0 c 0
 -61 0 -91 30 -91 67 c 0
-231 0 m 0
 -242 0 -250 9 -250 19 c 0
 -250 21 -249 24 -248 26 c 2
 -17 539 l 2
 -14 546 -7 550 0 550 c 0
 7 550 14 546 17 539 c 2
 248 26 l 2
 249 24 250 21 250 19 c 0
 250 9 242 0 231 0 c 2
 182 0 l 2
 175 0 168 4 165 11 c 2
 -25 429 l 1
 -214 11 l 2
 -217 4 -224 0 -231 0 c 0
EndSplineSet
EndChar
StartChar: scripts.dshortfermata
Encoding: 57691 57691 113
Width: 250
GlyphClass: 2
Flags: MW
HStem: -133 133<6.5 43>
VStem: -42 133<-85 -48.5>
Fore
91 -67 m 0
 91 -103 61 -133 25 -133 c 0
 -12 -133 -42 -103 -42 -67 c 0
 -42 -30 -12 0 25 0 c 0
 61 0 91 -30 91 -67 c 0
231 0 m 0
 242 0 250 -9 250 -19 c 0
 250 -21 249 -24 248 -26 c 2
 17 -539 l 2
 14 -546 7 -550 0 -550 c 0
 -7 -550 -14 -546 -17 -539 c 2
 -248 -26 l 2
 -249 -24 -250 -21 -250 -19 c 0
 -250 -9 -242 0 -231 0 c 2
 -182 0 l 2
 -175 0 -168 -4 -165 -11 c 2
 25 -429 l 1
 214 -11 l 2
 217 -4 224 0 231 0 c 0
EndSplineSet
EndChar
StartChar: scripts.ulongfermata
Encoding: 57692 57692 114
Width: 313
GlyphClass: 2
Flags: MW
HStem: 0 133<-18.5 18.5> 275 100<-275 275 -275 -275>
VStem: -312 37<19 275> -67 134<48.5 85> 275 38<19 275 275 275>
Fore
-67 67 m 0
 -67 103 -37 133 0 133 c 0
 37 133 67 103 67 67 c 0
 67 30 37 0 0 0 c 0
 -37 0 -67 30 -67 67 c 0
-302 375 m 2
 303 375 l 2
 308 375 313 371 313 365 c 2
 313 19 l 2
 313 8 304 0 294 0 c 0
 283 0 275 8 275 19 c 2
 275 275 l 1
 -275 275 l 1
 -275 19 l 2
 -275 8 -283 0 -294 0 c 0
 -304 0 -312 8 -312 19 c 2
 -312 365 l 2
 -312 371 -308 375 -302 375 c 2
EndSplineSet
EndChar
StartChar: scripts.dlongfermata
Encoding: 57693 57693 115
Width: 313
GlyphClass: 2
Flags: MW
HStem: -375 100<-305 275 -275 275 -275 303> -133 133<-18.5 18.5>
VStem: -312 37<-275 -19 -275 -19 -275 -13.5> -67 134<-85 -48.5> 275 38<-275 -19>
Fore
-67 -67 m 0
 -67 -30 -37 0 0 0 c 0
 37 0 67 -30 67 -67 c 0
 67 -103 37 -133 0 -133 c 0
 -37 -133 -67 -103 -67 -67 c 0
-302 -375 m 2
 -308 -375 -312 -371 -312 -365 c 2
 -312 -19 l 2
 -312 -8 -304 0 -294 0 c 0
 -283 0 -275 -8 -275 -19 c 2
 -275 -275 l 1
 275 -275 l 1
 275 -19 l 2
 275 -8 283 0 294 0 c 0
 304 0 313 -8 313 -19 c 2
 313 -365 l 2
 313 -371 308 -375 303 -375 c 2
 -302 -375 l 2
EndSplineSet
EndChar
StartChar: scripts.uverylongfermata
Encoding: 57694 57694 116
Width: 376
GlyphClass: 2
Flags: MW
HStem: 0 120<-16.5 16.5> 150 75<-212 212 -212 -212> 275 125<-337 337 -337 -337>
VStem: -375 38<19 275> -250 38<19 150> -60 120<43.5 76.5> 212 38<19 150 150 150> 337 38<19 275 275 275>
Fore
-60 60 m 0
 -60 93 -33 120 0 120 c 0
 33 120 60 93 60 60 c 0
 60 27 33 0 0 0 c 0
 -33 0 -60 27 -60 60 c 0
-240 225 m 2
 240 225 l 2
 246 225 250 221 250 215 c 2
 250 19 l 2
 250 8 242 0 231 0 c 0
 221 0 212 8 212 19 c 2
 212 150 l 1
 -212 150 l 1
 -212 19 l 2
 -212 8 -221 0 -231 0 c 0
 -242 0 -250 8 -250 19 c 2
 -250 215 l 2
 -250 221 -246 225 -240 225 c 2
-365 400 m 2
 365 400 l 2
 371 400 375 396 375 390 c 2
 375 19 l 2
 375 8 367 0 356 0 c 0
 346 0 337 8 337 19 c 2
 337 275 l 1
 -337 275 l 1
 -337 19 l 2
 -337 8 -346 0 -356 0 c 0
 -367 0 -375 8 -375 19 c 2
 -375 390 l 2
 -375 396 -371 400 -365 400 c 2
EndSplineSet
EndChar
StartChar: scripts.dverylongfermata
Encoding: 57695 57695 117
Width: 376
GlyphClass: 2
Flags: MW
HStem: -400 125<-368 337 -337 337 -337 365> -225 75<-243 212 -212 212 -212 240> -120 120<-16.5 16.5>
VStem: -375 38<-275 -19 -275 -19 -275 -13.5> -250 38<-150 -19 -150 -19 -150 -13.5> -60 120<-76.5 -43.5> 212 38<-150 -19> 337 38<-275 -19>
Fore
-60 -60 m 0
 -60 -27 -33 0 0 0 c 0
 33 0 60 -27 60 -60 c 0
 60 -93 33 -120 0 -120 c 0
 -33 -120 -60 -93 -60 -60 c 0
-240 -225 m 2
 -246 -225 -250 -221 -250 -215 c 2
 -250 -19 l 2
 -250 -8 -242 0 -231 0 c 0
 -221 0 -212 -8 -212 -19 c 2
 -212 -150 l 1
 212 -150 l 1
 212 -19 l 2
 212 -8 221 0 231 0 c 0
 242 0 250 -8 250 -19 c 2
 250 -215 l 2
 250 -221 246 -225 240 -225 c 2
 -240 -225 l 2
-365 -400 m 2
 -371 -400 -375 -396 -375 -390 c 2
 -375 -19 l 2
 -375 -8 -367 0 -356 0 c 0
 -346 0 -337 -8 -337 -19 c 2
 -337 -275 l 1
 337 -275 l 1
 337 -19 l 2
 337 -8 346 0 356 0 c 0
 367 0 375 -8 375 -19 c 2
 375 -390 l 2
 375 -396 371 -400 365 -400 c 2
 -365 -400 l 2
EndSplineSet
EndChar
StartChar: scripts.thumb
Encoding: 57696 57696 118
Width: 100
GlyphClass: 2
Flags: MW
HStem: 95 30<-19.5 19.5>
VStem: -100 53<-22.5 22.5 -22.5 32.5> -21 42<-125 -123 -125 -123> 48 52<-22.5 22.5>
Fore
21 -125 m 1
 24 -176 l 2
 24 -189 13 -200 0 -200 c 0
 -13 -200 -24 -189 -24 -176 c 2
 -21 -125 l 1
 -21 -123 l 1
 -69 -111 -100 -57 -100 0 c 0
 -100 65 -60 125 0 125 c 0
 60 125 100 65 100 0 c 0
 100 -57 69 -111 21 -123 c 1
 21 -125 l 1
48 0 m 0
 48 45 39 95 0 95 c 0
 -39 95 -47 45 -47 0 c 0
 -47 -45 -39 -95 0 -95 c 0
 39 -95 48 -45 48 0 c 0
EndSplineSet
EndChar
StartChar: scripts.sforzato
Encoding: 57697 57697 119
Width: 225
GlyphClass: 2
Flags: MW
VStem: -225 450<-111.5 6.5 -6.5 111.5>
Fore
-211 88 m 2
 -219 90 -225 98 -225 106 c 0
 -225 117 -217 125 -206 125 c 0
 -205 125 -203 125 -202 124 c 1
 206 19 l 1
 219 19 225 13 225 0 c 0
 225 -13 219 -19 206 -19 c 1
 -202 -124 l 1
 -203 -125 -205 -125 -206 -125 c 0
 -217 -125 -225 -117 -225 -106 c 0
 -225 -98 -219 -90 -211 -88 c 2
 40 -23 l 1
 180 0 l 1
 40 23 l 1
 -211 88 l 2
EndSplineSet
EndChar
StartChar: scripts.espr
Encoding: 57698 57698 120
Width: 476
GlyphClass: 2
Flags: MW
HStem: -19 38<-462.5 -456 456 462.5>
Fore
-44 88 m 2
 -292 23 l 1
 -434 0 l 1
 -292 -23 l 1
 -44 -88 l 2
 -36 -90 -30 -98 -30 -106 c 0
 -30 -117 -38 -125 -49 -125 c 0
 -50 -125 -52 -125 -53 -124 c 1
 -456 -19 l 1
 -469 -19 -475 -13 -475 0 c 0
 -475 13 -469 19 -456 19 c 1
 -53 124 l 1
 -52 125 -50 125 -49 125 c 0
 -38 125 -30 117 -30 106 c 0
 -30 98 -36 90 -44 88 c 2
44 88 m 2
 36 90 30 98 30 106 c 0
 30 117 38 125 49 125 c 0
 50 125 52 125 53 124 c 1
 456 19 l 1
 469 19 475 13 475 0 c 0
 475 -13 469 -19 456 -19 c 1
 53 -124 l 1
 52 -125 50 -125 49 -125 c 0
 38 -125 30 -117 30 -106 c 0
 30 -98 36 -90 44 -88 c 2
 292 -23 l 1
 434 0 l 1
 292 23 l 1
 44 88 l 2
EndSplineSet
EndChar
StartChar: scripts.staccato
Encoding: 57699 57699 121
Width: 50
GlyphClass: 2
Flags: MW
HStem: -50 100<-14 14>
VStem: -50 100<-14 14>
Fore
-50 0 m 0
 -50 28 -28 50 0 50 c 0
 28 50 50 28 50 0 c 0
 50 -28 28 -50 0 -50 c 0
 -28 -50 -50 -28 -50 0 c 0
EndSplineSet
EndChar
StartChar: scripts.ustaccatissimo
Encoding: 57700 57700 122
Width: 50
GlyphClass: 2
Flags: MW
HStem: -13 263<-3.5 3.5>
VStem: -50 100<200 201>
Fore
-13 0 m 2
 -50 200 l 2
 -50 202 -51 205 -51 207 c 0
 -51 231 -27 250 0 250 c 0
 27 250 51 231 51 207 c 0
 51 205 50 202 50 200 c 2
 13 0 l 2
 11 -7 7 -13 0 -13 c 0
 -7 -13 -11 -7 -13 0 c 2
EndSplineSet
EndChar
StartChar: scripts.dstaccatissimo
Encoding: 57701 57701 123
Width: 50
GlyphClass: 2
Flags: MW
HStem: -250 263<-3.5 3.5 -3.5 13.5>
VStem: -51 102<-219 -206>
Fore
-13 0 m 2
 -11 7 -7 13 0 13 c 0
 7 13 11 7 13 0 c 2
 50 -200 l 2
 50 -202 51 -205 51 -207 c 0
 51 -231 27 -250 0 -250 c 0
 -27 -250 -51 -231 -51 -207 c 0
 -51 -205 -50 -202 -50 -200 c 2
 -13 0 l 2
EndSplineSet
EndChar
StartChar: scripts.tenuto
Encoding: 57702 57702 124
Width: 150
GlyphClass: 2
Flags: MW
HStem: -20 40<-135.5 130 -130 130>
VStem: -150 300<-5.5 5.5>
Fore
130 -20 m 2
 -130 -20 l 2
 -141 -20 -150 -11 -150 0 c 0
 -150 11 -141 20 -130 20 c 2
 130 20 l 2
 141 20 150 11 150 0 c 0
 150 -11 141 -20 130 -20 c 2
EndSplineSet
EndChar
StartChar: scripts.uportato
Encoding: 57703 57703 125
Width: 150
GlyphClass: 2
Flags: MW
HStem: -18 36<-137 132 -132 132> 125 80<-11 11>
VStem: -40 80<154 176>
Fore
-40 165 m 0
 -40 187 -22 205 0 205 c 0
 22 205 40 187 40 165 c 0
 40 143 22 125 0 125 c 0
 -22 125 -40 143 -40 165 c 0
132 -18 m 2
 -132 -18 l 2
 -142 -18 -150 -10 -150 0 c 0
 -150 10 -142 18 -132 18 c 2
 132 18 l 2
 142 18 150 10 150 0 c 0
 150 -10 142 -18 132 -18 c 2
EndSplineSet
EndChar
StartChar: scripts.dportato
Encoding: 57704 57704 126
Width: 150
GlyphClass: 2
Flags: MW
HStem: -205 80<-11 11> -18 36<-137 132 -132 132>
VStem: -40 80<-176 -154>
Fore
-40 -165 m 0
 -40 -143 -22 -125 0 -125 c 0
 22 -125 40 -143 40 -165 c 0
 40 -187 22 -205 0 -205 c 0
 -22 -205 -40 -187 -40 -165 c 0
132 18 m 2
 142 18 150 10 150 0 c 0
 150 -10 142 -18 132 -18 c 2
 -132 -18 l 2
 -142 -18 -150 -10 -150 0 c 0
 -150 10 -142 18 -132 18 c 2
 132 18 l 2
EndSplineSet
EndChar
StartChar: scripts.umarcato
Encoding: 57705 57705 127
Width: 125
GlyphClass: 2
Flags: MW
HStem: 0 275<-116 2.5 -2.5 46 -2.5 112>
VStem: -125 250<9 13>
Fore
-112 0 m 0
 -120 0 -125 6 -125 12 c 0
 -125 14 -125 16 -124 18 c 2
 -11 268 l 2
 -9 272 -5 275 0 275 c 0
 5 275 9 272 11 268 c 2
 124 18 l 2
 125 16 125 14 125 12 c 0
 125 6 120 0 112 0 c 2
 46 0 l 2
 41 0 36 3 34 7 c 2
 -34 157 l 1
 -101 7 l 2
 -103 3 -108 0 -112 0 c 0
EndSplineSet
EndChar
StartChar: scripts.dmarcato
Encoding: 57706 57706 128
Width: 125
GlyphClass: 2
Flags: MW
HStem: -275 275<-112 2.5>
VStem: -124 248<-18 -18>
Fore
112 0 m 0
 120 0 125 -6 125 -12 c 0
 125 -14 125 -16 124 -18 c 2
 11 -268 l 2
 9 -272 5 -275 0 -275 c 0
 -5 -275 -9 -272 -11 -268 c 2
 -124 -18 l 2
 -125 -16 -125 -14 -125 -12 c 0
 -125 -6 -120 0 -112 0 c 2
 -46 0 l 2
 -41 0 -36 -3 -34 -7 c 2
 34 -157 l 1
 101 -7 l 2
 103 -3 108 0 112 0 c 0
EndSplineSet
EndChar
StartChar: scripts.open
Encoding: 57707 57707 129
Width: 100
GlyphClass: 2
Flags: MW
HStem: -125 30<-20.5 20.5 -20.5 30> 95 30<-20.5 20.5>
VStem: -100 43<-23.5 23.5 -23.5 32.5> 57 43<-23.5 23.5>
Fore
100 0 m 0
 100 -65 60 -125 0 -125 c 0
 -60 -125 -100 -65 -100 0 c 0
 -100 65 -60 125 0 125 c 0
 60 125 100 65 100 0 c 0
57 0 m 0
 57 47 41 95 0 95 c 0
 -41 95 -57 47 -57 0 c 0
 -57 -47 -41 -95 0 -95 c 0
 41 -95 57 -47 57 0 c 0
EndSplineSet
EndChar
StartChar: scripts.stopped
Encoding: 57708 57708 130
Width: 138
GlyphClass: 2
Flags: MW
HStem: -25 50<-119 -25 -112 -25 25 112>
VStem: -25 50<-112 -25 25 112>
Fore
0 -138 m 0
 -14 -138 -25 -126 -25 -112 c 2
 -25 -25 l 1
 -112 -25 l 2
 -126 -25 -138 -14 -138 0 c 0
 -138 14 -126 25 -112 25 c 2
 -25 25 l 1
 -25 112 l 2
 -25 126 -14 138 0 138 c 0
 14 138 25 126 25 112 c 2
 25 25 l 1
 112 25 l 2
 126 25 138 14 138 0 c 0
 138 -14 126 -25 112 -25 c 2
 25 -25 l 1
 25 -112 l 2
 25 -126 14 -138 0 -138 c 0
EndSplineSet
EndChar
StartChar: scripts.upbow
Encoding: 57709 57709 131
Width: 163
GlyphClass: 2
Flags: MW
HStem: 0 21G<-6 6>
VStem: -18 36<11.5 18>
Fore
128 508 m 2
 130 515 137 520 145 520 c 0
 155 520 163 512 163 502 c 0
 163 501 162 499 162 497 c 1
 18 18 l 1
 18 5 12 0 0 0 c 0
 -12 0 -18 5 -18 18 c 1
 -162 497 l 1
 -162 502 l 2
 -162 512 -155 520 -145 520 c 0
 -137 520 -130 515 -128 508 c 2
 -40 213 l 1
 0 49 l 1
 40 213 l 1
 128 508 l 2
EndSplineSet
EndChar
StartChar: scripts.downbow
Encoding: 57710 57710 132
Width: 188
GlyphClass: 2
Flags: MW
HStem: 0 21G<-176.5 -168 168.5 177> 200 133<-157 157 -157 -157>
VStem: -188 31<15 200> 157 31<15 200 200 200>
Fore
-178 333 m 2
 178 333 l 2
 183 333 188 329 188 323 c 2
 188 15 l 2
 188 7 181 0 173 0 c 0
 164 0 157 7 157 15 c 2
 157 200 l 1
 -157 200 l 1
 -157 15 l 2
 -157 7 -164 0 -172 0 c 0
 -181 0 -188 7 -188 15 c 2
 -188 323 l 2
 -188 329 -183 333 -178 333 c 2
EndSplineSet
EndChar
StartChar: scripts.reverseturn
Encoding: 57711 57711 133
Width: 274
GlyphClass: 2
Flags: MW
HStem: -132 78<-175.5 -123.5 -198.5 -71.5> -132 106<141.5 155 130 192.5> 26 106<-155 -141.5 -192.5 -130> 54 78<123.5 175.5>
VStem: -273 30<-15.5 15.5 -15.5 35> 243 30<-15.5 15.5>
Fore
139 132 m 0x9c
 212 132 273 74 273 0 c 0
 273 -70 226 -132 159 -132 c 0
 124 -132 91 -111 91 -79 c 0
 91 -48 115 -26 145 -26 c 0
 165 -26 184 -36 193 -57 c 1
 220 -54 243 -31 243 0 c 0
 243 31 215 54 182 54 c 0x5c
 65 54 -4 -132 -139 -132 c 0
 -212 -132 -273 -74 -273 0 c 0
 -273 70 -226 132 -159 132 c 0
 -124 132 -91 111 -91 79 c 0
 -91 48 -115 26 -145 26 c 0xac
 -165 26 -184 36 -193 57 c 1
 -220 54 -243 31 -243 0 c 0
 -243 -31 -215 -54 -182 -54 c 0
 -65 -54 4 132 139 132 c 0x9c
EndSplineSet
EndChar
StartChar: scripts.turn
Encoding: 57712 57712 134
Width: 274
GlyphClass: 2
Flags: MW
HStem: -132 78<123.5 175.5> -132 106<-155 -141.5> 26 106<141.5 155> 54 78<-175.5 -123.5>
VStem: -273 30<-15.5 15.5 -15.5 37> 243 30<-15.5 15.5>
Fore
139 -132 m 0xac
 4 -132 -65 54 -182 54 c 0
 -215 54 -243 31 -243 0 c 0
 -243 -31 -220 -54 -193 -57 c 1
 -184 -36 -165 -26 -145 -26 c 0
 -115 -26 -91 -48 -91 -79 c 0
 -91 -111 -124 -132 -159 -132 c 0
 -226 -132 -273 -70 -273 0 c 0
 -273 74 -212 132 -139 132 c 0x5c
 -4 132 65 -54 182 -54 c 0
 215 -54 243 -31 243 0 c 0
 243 31 220 54 193 57 c 1
 184 36 165 26 145 26 c 0
 115 26 91 48 91 79 c 0
 91 111 124 132 159 132 c 0
 226 132 273 70 273 0 c 0
 273 -74 212 -132 139 -132 c 0xac
EndSplineSet
EndChar
StartChar: scripts.trill
Encoding: 57713 57713 135
Width: 213
GlyphClass: 2
Flags: MW
HStem: -11 50<-144 -74.5> 172 25<-275 -252> 173 112<199 237> 278 25<-256 -215.5> 295 35<30 89.5> 305 27<195.5 207>
VStem: -322 25<221 237.5 221 244> -180 79<59.5 81.5 59.5 86.5> -51 25<87.5 115> 174 103<240.5 246.5>
Fore
-322 223 m 0xcbc0
 -322 265 -286 303 -226 303 c 0
 -196 303 -168 293 -144 278 c 1xd3c0
 -98 510 l 1
 -92 507 -85 505 -78 505 c 0
 -56 505 -30 520 -10 540 c 1
 -63 274 l 1
 1 310 l 2
 27 324 53 330 75 330 c 0x8bc0
 104 330 127 320 139 302 c 1
 156 321 183 332 208 332 c 0
 244 332 277 310 277 263 c 0
 277 218 249 173 212 173 c 0
 186 173 174 194 174 221 c 0
 174 272 213 285 234 285 c 2
 237 285 l 1
 229 299 215 305 199 305 c 0xa7c0
 176 305 150 289 144 262 c 2
 90 -8 l 1
 79 0 66 3 52 3 c 0
 38 3 23 0 9 -8 c 1
 63 262 l 1
 63 269 l 2
 63 284 50 295 34 295 c 0
 26 295 18 293 10 288 c 2
 -69 244 l 1
 -76 213 l 1
 -49 182 -26 146 -26 104 c 0
 -26 46 -71 -11 -124 -11 c 0
 -164 -11 -180 33 -180 80 c 0
 -180 93 -178 108 -176 121 c 2
 -161 197 l 1
 -208 177 -242 172 -262 172 c 0
 -313 172 -322 202 -322 223 c 0xcbc0
-297 227 m 0
 -297 215 -292 197 -258 197 c 0
 -228 197 -188 210 -155 225 c 1
 -150 249 l 1
 -173 266 -200 278 -231 278 c 0
 -282 278 -297 248 -297 227 c 0
-86 39 m 0
 -63 39 -51 75 -51 100 c 0
 -51 130 -65 155 -83 178 c 1
 -88 151 l 2
 -92 133 -101 95 -101 68 c 0
 -101 51 -97 39 -86 39 c 0
EndSplineSet
EndChar
StartChar: scripts.upedalheel
Encoding: 57714 57714 136
Width: 125
GlyphClass: 2
Flags: MW
HStem: -125 38<-24 24 -24 34.5>
VStem: -125 38<0 148> 87 38<0 148>
Fore
0 -87 m 0
 48 -87 87 -48 87 0 c 2
 87 148 l 2
 87 158 96 167 106 167 c 0
 117 167 125 158 125 148 c 2
 125 0 l 2
 125 -69 69 -125 0 -125 c 0
 -69 -125 -125 -69 -125 0 c 2
 -125 148 l 2
 -125 158 -117 167 -106 167 c 0
 -96 167 -87 158 -87 148 c 2
 -87 0 l 2
 -87 -48 -48 -87 0 -87 c 0
EndSplineSet
EndChar
StartChar: scripts.dpedalheel
Encoding: 57715 57715 137
Width: 125
GlyphClass: 2
Flags: MW
HStem: 87 38<-24 24>
VStem: -125 38<-148 0> 87 38<-148 0>
Fore
0 87 m 0
 -48 87 -87 48 -87 0 c 2
 -87 -148 l 2
 -87 -158 -96 -167 -106 -167 c 0
 -117 -167 -125 -158 -125 -148 c 2
 -125 0 l 2
 -125 69 -69 125 0 125 c 0
 69 125 125 69 125 0 c 2
 125 -148 l 2
 125 -158 117 -167 106 -167 c 0
 96 -167 87 -158 87 -148 c 2
 87 0 l 2
 87 48 48 87 0 87 c 0
EndSplineSet
EndChar
StartChar: scripts.upedaltoe
Encoding: 57716 57716 138
Width: 125
GlyphClass: 2
Flags: MW
HStem: 0 375<-111.5 6.5>
Fore
88 362 m 2
 91 370 98 375 106 375 c 0
 117 375 125 367 125 356 c 0
 125 354 125 352 124 351 c 1
 19 19 l 1
 19 6 13 0 0 0 c 0
 -13 0 -19 6 -19 19 c 1
 -124 351 l 1
 -125 352 -125 354 -125 356 c 0
 -125 367 -117 375 -106 375 c 0
 -98 375 -91 370 -88 362 c 2
 -23 156 l 1
 0 53 l 1
 23 156 l 1
 88 362 l 2
EndSplineSet
EndChar
StartChar: scripts.dpedaltoe
Encoding: 57717 57717 139
Width: 125
GlyphClass: 2
Flags: MW
HStem: -375 375<-111.5 6.5 -6.5 111.5>
Fore
88 -362 m 2
 23 -156 l 1
 0 -53 l 1
 -23 -156 l 1
 -88 -362 l 2
 -91 -370 -98 -375 -106 -375 c 0
 -117 -375 -125 -367 -125 -356 c 0
 -125 -354 -125 -352 -124 -351 c 1
 -19 -19 l 1
 -19 -6 -13 0 0 0 c 0
 13 0 19 -6 19 -19 c 1
 124 -351 l 1
 125 -352 125 -354 125 -356 c 0
 125 -367 117 -375 106 -375 c 0
 98 -375 91 -370 88 -362 c 2
EndSplineSet
EndChar
StartChar: scripts.flageolet
Encoding: 57718 57718 140
Width: 133
GlyphClass: 2
Flags: MW
HStem: -133 20<-31.5 31.5 -31.5 37> 113 20<-31.5 31.5>
VStem: -133 20<-31.5 31.5 -31.5 37> 113 20<-31.5 31.5>
Fore
0 133 m 0
 74 133 133 74 133 0 c 0
 133 -74 74 -133 0 -133 c 0
 -74 -133 -133 -74 -133 0 c 0
 -133 74 -74 133 0 133 c 0
0 113 m 0
 -63 113 -113 63 -113 0 c 0
 -113 -63 -63 -113 0 -113 c 0
 63 -113 113 -63 113 0 c 0
 113 63 63 113 0 113 c 0
EndSplineSet
EndChar
StartChar: scripts.segno
Encoding: 57719 57719 141
Width: 250
GlyphClass: 2
Flags: MW
HStem: -375 30<89.5 125 89.5 145.5> -80 60<-180.5 -163.5> 20 60<163.5 180.5> 345 30<-125 -89.5>
VStem: -250 78<220.5 262.5> -202 60<-58.5 -41.5> -77 112<214.5 243.5> -35 112<-243.5 -214.5 -243.5 -213.5> 142 60<41.5 58.5> 172 78<-262.5 -220.5>
Fore
-202 -50 m 0xf4
 -202 -33 -189 -20 -172 -20 c 0xf8
 -155 -20 -142 -33 -142 -50 c 0xf4
 -142 -67 -155 -80 -172 -80 c 0xf8
 -189 -80 -202 -67 -202 -50 c 0xf4
142 50 m 0xf080
 142 67 155 80 172 80 c 0xf040
 189 80 202 67 202 50 c 0xf080
 202 33 189 20 172 20 c 0xf040
 155 20 142 33 142 50 c 0xf080
-35 -227 m 0xf940
 -35 -200 -24 -168 19 -168 c 0
 58 -168 77 -199 77 -230 c 0xf940
 77 -257 63 -285 37 -294 c 1
 46 -323 73 -345 106 -345 c 0
 144 -345 172 -310 172 -270 c 0
 172 -171 89 -102 0 -51 c 1
 -190 -375 l 1
 -250 -375 l 1
 -46 -26 l 1
 -150 31 -250 106 -250 219 c 0
 -250 306 -185 375 -106 375 c 0
 -27 375 35 308 35 227 c 0
 35 200 24 168 -19 168 c 0
 -58 168 -77 199 -77 230 c 0xfa40
 -77 257 -63 285 -37 294 c 1
 -46 323 -73 345 -106 345 c 0
 -144 345 -172 310 -172 270 c 0
 -172 171 -89 102 0 51 c 1
 190 375 l 1
 250 375 l 1
 46 26 l 1
 150 -31 250 -106 250 -219 c 0
 250 -306 185 -375 106 -375 c 0
 27 -375 -35 -308 -35 -227 c 0xf940
EndSplineSet
EndChar
StartChar: scripts.coda
Encoding: 57720 57720 142
Width: 255
GlyphClass: 2
Flags: MW
HStem: -249 30<-15 -15> -15 30<-258 -166 -254 -166 -93 -15 15 93 166 254> 219 30<-15 -15>
VStem: -166 73<-15 -15 -15 15> -15 30<-338 -249 -219 -15 15 219 249 338> 93 73<-15 -15 -15 15>
Fore
15 -338 m 2
 15 -346 8 -353 0 -353 c 0
 -8 -353 -15 -346 -15 -338 c 2
 -15 -249 l 1
 -112 -239 -162 -129 -166 -15 c 1
 -254 -15 l 2
 -262 -15 -269 -8 -269 0 c 0
 -269 8 -262 15 -254 15 c 2
 -166 15 l 1
 -162 129 -112 239 -15 249 c 1
 -15 338 l 2
 -15 346 -8 353 0 353 c 0
 8 353 15 346 15 338 c 2
 15 249 l 1
 112 239 162 129 166 15 c 1
 254 15 l 2
 262 15 269 8 269 0 c 0
 269 -8 262 -15 254 -15 c 2
 166 -15 l 1
 162 -129 112 -239 15 -249 c 1
 15 -338 l 2
15 15 m 1
 93 15 l 1
 92 108 85 207 15 219 c 1
 15 15 l 1
15 -15 m 1
 15 -219 l 1
 85 -207 92 -108 93 -15 c 1
 15 -15 l 1
-15 15 m 1
 -15 219 l 1
 -85 207 -92 108 -93 15 c 1
 -15 15 l 1
-15 -15 m 1
 -93 -15 l 1
 -92 -108 -85 -207 -15 -219 c 1
 -15 -15 l 1
EndSplineSet
EndChar
StartChar: scripts.varcoda
Encoding: 57721 57721 143
Width: 255
GlyphClass: 2
Flags: MW
HStem: -250 30<-79 -15 -79 -15 15 79> -15 30<-258 -167 -254 -167 -79 -15 15 79 167 254> 220 30<-79 -15 -79 -79 15 79>
VStem: -167 88<-220 -15 -220 -15 -220 -15 15 220> -15 30<-338 -250 -220 -15 15 220 250 338> 79 88<-220 -15 15 220 220 220>
Fore
15 -338 m 2
 15 -346 8 -353 0 -353 c 0
 -8 -353 -15 -346 -15 -338 c 2
 -15 -250 l 1
 -157 -250 l 2
 -162 -250 -167 -246 -167 -240 c 2
 -167 -15 l 1
 -254 -15 l 2
 -262 -15 -269 -8 -269 0 c 0
 -269 8 -262 15 -254 15 c 2
 -167 15 l 1
 -167 240 l 2
 -167 246 -162 250 -157 250 c 2
 -15 250 l 1
 -15 338 l 2
 -15 346 -8 353 0 353 c 0
 8 353 15 346 15 338 c 2
 15 250 l 1
 157 250 l 2
 162 250 167 246 167 240 c 2
 167 15 l 1
 254 15 l 2
 262 15 269 8 269 0 c 0
 269 -8 262 -15 254 -15 c 2
 167 -15 l 1
 167 -240 l 2
 167 -246 162 -250 157 -250 c 2
 89 -250 l 1
 15 -250 l 1
 15 -338 l 2
15 15 m 1
 79 15 l 1
 79 220 l 1
 15 220 l 1
 15 15 l 1
15 -15 m 1
 15 -220 l 1
 79 -220 l 1
 79 -15 l 1
 15 -15 l 1
-15 15 m 1
 -15 220 l 1
 -79 220 l 1
 -79 15 l 1
 -15 15 l 1
-15 -15 m 1
 -79 -15 l 1
 -79 -220 l 1
 -15 -220 l 1
 -15 -15 l 1
EndSplineSet
EndChar
StartChar: scripts.rcomma
Encoding: 57722 57722 144
Width: 125
GlyphClass: 2
Flags: MW
HStem: -153 310<8 75.5>
VStem: 50 62<25 46.5>
Fore
50 13 m 0
 50 80 18 94 18 119 c 0
 18 140 35 157 55 157 c 0
 96 157 112 90 112 59 c 0
 112 -9 69 -82 25 -146 c 0
 22 -150 17 -153 12 -153 c 0
 4 -153 -3 -147 -3 -138 c 0
 -3 -126 50 -69 50 13 c 0
EndSplineSet
EndChar
StartChar: scripts.lcomma
Encoding: 57723 57723 145
Width: 0
GlyphClass: 2
Flags: MW
HStem: -157 310<-75.5 -8>
VStem: -112 62<-46.5 -25>
Fore
-50 -13 m 0
 -50 -80 -18 -94 -18 -119 c 0
 -18 -140 -35 -157 -55 -157 c 0
 -96 -157 -112 -90 -112 -59 c 0
 -112 9 -69 82 -25 146 c 0
 -22 150 -17 153 -12 153 c 0
 -4 153 3 147 3 138 c 0
 3 126 -50 69 -50 -13 c 0
EndSplineSet
EndChar
StartChar: scripts.rvarcomma
Encoding: 57724 57724 146
Width: 62
GlyphClass: 2
Flags: MW
HStem: -165 353<-67.5 73>
VStem: -77 178
Fore
-63 -165 m 0
 -72 -165 -77 -157 -77 -150 c 0
 -77 -148 -77 -146 -76 -144 c 2
 28 164 l 2
 33 179 47 188 62 188 c 0
 84 188 101 169 101 150 c 0
 101 145 100 140 97 136 c 1
 -49 -156 l 2
 -51 -161 -57 -165 -63 -165 c 0
EndSplineSet
EndChar
StartChar: scripts.lvarcomma
Encoding: 57725 57725 147
Width: 62
GlyphClass: 2
Flags: MW
HStem: -188 353<-73 67.5>
VStem: -101 177
Fore
63 165 m 0
 72 165 77 157 77 150 c 0
 77 148 77 146 76 144 c 2
 -28 -164 l 2
 -33 -179 -47 -188 -62 -188 c 0
 -84 -188 -101 -169 -101 -150 c 0
 -101 -145 -100 -140 -97 -136 c 1
 49 156 l 2
 51 161 57 165 63 165 c 0
EndSplineSet
EndChar
StartChar: scripts.arpeggio
Encoding: 57726 57726 148
Width: 200
GlyphClass: 2
Flags: MW
HStem: -56 362<47.5 152>
VStem: -1 111<71.5 77 36 96> 90 111<173 178.5 154 214>
Fore
-1 75 m 0xc0
 -1 117 90 140 90 206 c 0
 90 222 84 239 73 253 c 1
 42 278 l 2
 38 282 36 286 36 290 c 0
 36 298 43 306 52 306 c 0
 55 306 59 305 62 302 c 2
 190 195 l 2
 198 188 201 182 201 175 c 0xa0
 201 133 110 110 110 44 c 0
 110 28 116 11 127 -3 c 1
 158 -28 l 2
 162 -32 164 -36 164 -40 c 0
 164 -48 156 -56 148 -56 c 0
 145 -56 141 -55 138 -52 c 2
 10 55 l 2
 2 62 -1 68 -1 75 c 0xc0
EndSplineSet
EndChar
StartChar: scripts.trill_element
Encoding: 57727 57727 149
Width: 250
GlyphClass: 2
Flags: MW
HStem: -1 111<173 178.5> 90 111<71.5 77>
VStem: -56 362<47.5 152>
Fore
175 -1 m 0xa0
 133 -1 110 90 44 90 c 0
 28 90 11 84 -3 73 c 1
 -28 42 l 2
 -32 38 -36 36 -40 36 c 0
 -48 36 -56 43 -56 52 c 0
 -56 55 -55 59 -52 62 c 2
 55 190 l 2
 62 198 68 201 75 201 c 0x60
 117 201 140 110 206 110 c 0
 222 110 239 116 253 127 c 1
 278 158 l 2
 282 162 286 164 290 164 c 0
 298 164 306 156 306 148 c 0
 306 145 305 141 302 138 c 2
 195 10 l 2
 188 2 182 -1 175 -1 c 0xa0
EndSplineSet
EndChar
StartChar: scripts.arpeggio.arrow.M1
Encoding: 57728 57728 150
Width: 200
GlyphClass: 2
Flags: MW
HStem: 2 305
Fore
42 278 m 2
 37 282 36 286 36 291 c 0
 36 299 43 307 52 307 c 0
 55 307 59 306 62 302 c 2
 148 210 l 2
 159 198 165 183 168 168 c 1
 246 205 l 2
 259 211 260 203 260 200 c 0
 260 181 140 95 106 3 c 1
 106 2 105 0 99 0 c 0
 97 0 96 0 95 2 c 0
 61 94 -60 181 -60 200 c 0
 -60 207 -54 209 -47 206 c 2
 45 162 l 1
 63 183 87 205 87 226 c 0
 87 235 83 244 73 253 c 2
 42 278 l 2
EndSplineSet
EndChar
StartChar: scripts.arpeggio.arrow.1
Encoding: 57729 57729 151
Width: 200
GlyphClass: 2
Flags: MW
HStem: -57 305
Fore
158 -28 m 2
 163 -32 164 -36 164 -41 c 0
 164 -49 157 -57 148 -57 c 0
 145 -57 141 -56 138 -52 c 2
 52 40 l 2
 41 52 35 67 32 82 c 1
 -46 45 l 2
 -58 39 -60 47 -60 50 c 0
 -60 69 60 155 94 247 c 1
 94 248 95 250 101 250 c 0
 103 250 104 250 105 248 c 0
 139 156 260 69 260 50 c 0
 260 43 254 41 247 44 c 2
 155 88 l 1
 137 67 113 45 113 24 c 0
 113 15 117 6 127 -3 c 2
 158 -28 l 2
EndSplineSet
EndChar
StartChar: scripts.trilelement
Encoding: 57730 57730 152
Width: 104
GlyphClass: 2
Flags: MW
HStem: -125 250<-37.5 37.5>
VStem: -121 242<-11 11>
Fore
-80 1 m 1
 -88 -11 l 1
 -121 11 l 1
 -51 116 l 2
 -47 122 -41 125 -34 125 c 0
 -28 125 -23 122 -19 118 c 2
 80 -1 l 1
 88 11 l 1
 121 -11 l 1
 51 -116 l 2
 47 -122 41 -125 34 -125 c 0
 28 -125 23 -122 19 -118 c 2
 -80 1 l 1
EndSplineSet
EndChar
StartChar: scripts.prall
Encoding: 57731 57731 153
Width: 209
GlyphClass: 2
Flags: MW
HStem: -125 250<-141.5 -66.5>
Fore
215 46 m 2
 219 51 225 55 231 55 c 0
 242 55 251 46 251 35 c 0
 251 31 250 27 248 24 c 2
 155 -116 l 2
 151 -122 145 -125 138 -125 c 0
 132 -125 127 -122 123 -118 c 2
 25 1 l 1
 -53 -116 l 2
 -57 -122 -63 -125 -70 -125 c 0
 -76 -125 -82 -122 -85 -118 c 2
 -184 1 l 1
 -215 -46 l 2
 -219 -51 -225 -55 -231 -55 c 0
 -242 -55 -251 -46 -251 -35 c 0
 -251 -31 -250 -27 -248 -24 c 2
 -155 116 l 2
 -151 122 -145 125 -138 125 c 0
 -132 125 -127 122 -123 118 c 2
 -25 -1 l 1
 53 116 l 2
 57 122 63 125 70 125 c 0
 76 125 82 122 85 118 c 2
 184 -1 l 1
 215 46 l 2
EndSplineSet
EndChar
StartChar: scripts.mordent
Encoding: 57732 57732 154
Width: 209
GlyphClass: 2
Flags: MW
HStem: -167 334<-5.5 5.5>
VStem: -20 40<-147 -66 -66 -66 66 147>
Fore
20 -147 m 2
 20 -158 11 -167 0 -167 c 0
 -11 -167 -20 -158 -20 -147 c 2
 -20 -66 l 1
 -53 -116 l 2
 -57 -122 -63 -125 -70 -125 c 0
 -76 -125 -82 -122 -85 -118 c 2
 -184 1 l 1
 -215 -46 l 2
 -219 -51 -225 -55 -231 -55 c 0
 -242 -55 -251 -46 -251 -35 c 0
 -251 -31 -250 -27 -248 -24 c 2
 -155 116 l 2
 -151 122 -145 125 -138 125 c 0
 -132 125 -127 122 -123 118 c 2
 -25 -1 l 1
 -20 6 l 1
 -20 147 l 2
 -20 158 -11 167 0 167 c 0
 11 167 20 158 20 147 c 2
 20 66 l 1
 53 116 l 2
 57 122 63 125 70 125 c 0
 76 125 82 122 85 118 c 2
 184 -1 l 1
 215 46 l 2
 219 51 225 55 231 55 c 0
 242 55 251 46 251 35 c 0
 251 31 250 27 248 24 c 2
 155 -116 l 2
 151 -122 145 -125 138 -125 c 0
 132 -125 127 -122 123 -118 c 2
 25 1 l 1
 20 -6 l 1
 20 -147 l 2
EndSplineSet
EndChar
StartChar: scripts.prallprall
Encoding: 57733 57733 155
Width: 313
GlyphClass: 2
Flags: MW
HStem: -125 250<-245.5 -170.5>
Fore
319 46 m 2
 323 51 329 55 336 55 c 0
 347 55 356 46 356 35 c 0
 356 31 354 27 352 24 c 2
 259 -116 l 2
 255 -122 249 -125 243 -125 c 0
 237 -125 231 -122 227 -118 c 2
 129 1 l 1
 51 -116 l 2
 47 -122 41 -125 34 -125 c 0
 28 -125 23 -122 19 -118 c 2
 -80 1 l 1
 -158 -116 l 2
 -161 -122 -167 -125 -174 -125 c 0
 -180 -125 -186 -122 -190 -118 c 2
 -288 1 l 1
 -319 -46 l 2
 -323 -51 -329 -55 -336 -55 c 0
 -347 -55 -356 -46 -356 -35 c 0
 -356 -31 -354 -27 -352 -24 c 2
 -259 116 l 2
 -255 122 -249 125 -242 125 c 0
 -237 125 -231 122 -227 118 c 2
 -129 -1 l 1
 -51 116 l 2
 -47 122 -41 125 -34 125 c 0
 -28 125 -23 122 -19 118 c 2
 80 -1 l 1
 158 116 l 2
 161 122 167 125 174 125 c 0
 180 125 186 122 190 118 c 2
 288 -1 l 1
 319 46 l 2
EndSplineSet
EndChar
StartChar: scripts.prallmordent
Encoding: 57734 57734 156
Width: 313
GlyphClass: 2
Flags: MW
HStem: -167 334<98.5 109.5>
VStem: 84 40<-147 -66 -66 -66 66 147>
Fore
124 -147 m 2
 124 -158 115 -167 104 -167 c 0
 93 -167 84 -158 84 -147 c 2
 84 -66 l 1
 51 -116 l 2
 47 -122 41 -125 34 -125 c 0
 28 -125 23 -122 19 -118 c 2
 -80 1 l 1
 -158 -116 l 2
 -161 -122 -167 -125 -174 -125 c 0
 -180 -125 -186 -122 -190 -118 c 2
 -288 1 l 1
 -319 -46 l 2
 -323 -51 -329 -55 -336 -55 c 0
 -347 -55 -356 -46 -356 -35 c 0
 -356 -31 -354 -27 -352 -24 c 2
 -259 116 l 2
 -255 122 -249 125 -242 125 c 0
 -237 125 -231 122 -227 118 c 2
 -129 -1 l 1
 -51 116 l 2
 -47 122 -41 125 -34 125 c 0
 -28 125 -23 122 -19 118 c 2
 80 -1 l 1
 84 6 l 1
 84 147 l 2
 84 158 93 167 104 167 c 0
 115 167 124 158 124 147 c 2
 124 66 l 1
 158 116 l 2
 161 122 167 125 174 125 c 0
 180 125 186 122 190 118 c 2
 288 -1 l 1
 319 46 l 2
 323 51 329 55 336 55 c 0
 347 55 356 46 356 35 c 0
 356 31 354 27 352 24 c 2
 259 -116 l 2
 255 -122 249 -125 243 -125 c 0
 237 -125 231 -122 227 -118 c 2
 129 1 l 1
 124 -6 l 1
 124 -147 l 2
EndSplineSet
EndChar
StartChar: scripts.upprall
Encoding: 57735 57735 157
Width: 313
GlyphClass: 2
Flags: MW
VStem: -393 40<-191.5 -140 -198 -136>
Fore
-336 -305 m 0
 -361 -305 -393 -223 -393 -160 c 0
 -393 -112 -380 -65 -352 -24 c 2
 -259 116 l 2
 -255 122 -249 125 -242 125 c 0
 -237 125 -231 122 -227 118 c 2
 -129 -1 l 1
 -51 116 l 2
 -47 122 -41 125 -34 125 c 0
 -28 125 -23 122 -19 118 c 2
 80 -1 l 1
 158 116 l 2
 161 122 167 125 174 125 c 0
 180 125 186 122 190 118 c 2
 288 -1 l 1
 319 46 l 2
 323 51 329 55 336 55 c 0
 347 55 356 46 356 35 c 0
 356 31 354 27 352 24 c 2
 259 -116 l 2
 255 -122 249 -125 243 -125 c 0
 237 -125 231 -122 227 -118 c 2
 129 1 l 1
 51 -116 l 2
 47 -122 41 -125 34 -125 c 0
 28 -125 23 -122 19 -118 c 2
 -80 1 l 1
 -158 -116 l 2
 -161 -122 -167 -125 -174 -125 c 0
 -180 -125 -186 -122 -190 -118 c 2
 -288 1 l 1
 -319 -46 l 2
 -342 -80 -353 -120 -353 -160 c 0
 -353 -236 -315 -271 -316 -285 c 0
 -316 -296 -325 -305 -336 -305 c 0
EndSplineSet
EndChar
StartChar: scripts.upmordent
Encoding: 57736 57736 158
Width: 313
GlyphClass: 2
Flags: MW
VStem: -393 40<-191.5 -140 -198 -136> 84 40<-147 -66 -66 -66 66 147>
Fore
-336 -305 m 0
 -361 -305 -393 -223 -393 -160 c 0
 -393 -112 -380 -65 -352 -24 c 2
 -259 116 l 2
 -255 122 -249 125 -242 125 c 0
 -237 125 -231 122 -227 118 c 2
 -129 -1 l 1
 -51 116 l 2
 -47 122 -41 125 -34 125 c 0
 -28 125 -23 122 -19 118 c 2
 80 -1 l 1
 84 6 l 1
 84 147 l 2
 84 158 93 167 104 167 c 0
 115 167 124 158 124 147 c 2
 124 66 l 1
 158 116 l 2
 161 122 167 125 174 125 c 0
 180 125 186 122 190 118 c 2
 288 -1 l 1
 319 46 l 2
 323 51 329 55 336 55 c 0
 347 55 356 46 356 35 c 0
 356 31 354 27 352 24 c 2
 259 -116 l 2
 255 -122 249 -125 243 -125 c 0
 237 -125 231 -122 227 -118 c 2
 129 1 l 1
 124 -6 l 1
 124 -147 l 2
 124 -158 115 -167 104 -167 c 0
 93 -167 84 -158 84 -147 c 2
 84 -66 l 1
 51 -116 l 2
 47 -122 41 -125 34 -125 c 0
 28 -125 23 -122 19 -118 c 2
 -80 1 l 1
 -158 -116 l 2
 -161 -122 -167 -125 -174 -125 c 0
 -180 -125 -186 -122 -190 -118 c 2
 -288 1 l 1
 -319 -46 l 2
 -342 -80 -353 -120 -353 -160 c 0
 -353 -236 -315 -271 -316 -285 c 0
 -316 -296 -325 -305 -336 -305 c 0
EndSplineSet
EndChar
StartChar: scripts.pralldown
Encoding: 57737 57737 159
Width: 313
GlyphClass: 2
Flags: MW
VStem: 353 40<-191.5 -140>
Fore
336 -305 m 0
 325 -305 316 -296 316 -285 c 0
 315 -271 353 -236 353 -160 c 0
 353 -120 342 -80 319 -46 c 2
 288 1 l 1
 190 -118 l 2
 186 -122 180 -125 174 -125 c 0
 167 -125 161 -122 158 -116 c 2
 80 1 l 1
 -19 -118 l 2
 -23 -122 -28 -125 -34 -125 c 0
 -41 -125 -47 -122 -51 -116 c 2
 -129 1 l 1
 -227 -118 l 2
 -231 -122 -237 -125 -243 -125 c 0
 -249 -125 -255 -122 -259 -116 c 2
 -352 24 l 2
 -354 27 -356 31 -356 35 c 0
 -356 46 -347 55 -336 55 c 0
 -329 55 -323 51 -319 46 c 2
 -288 -1 l 1
 -190 118 l 2
 -186 122 -180 125 -174 125 c 0
 -167 125 -161 122 -158 116 c 2
 -80 -1 l 1
 19 118 l 2
 23 122 28 125 34 125 c 0
 41 125 47 122 51 116 c 2
 129 -1 l 1
 227 118 l 2
 231 122 237 125 242 125 c 0
 249 125 255 122 259 116 c 2
 352 -24 l 2
 380 -65 393 -112 393 -160 c 0
 393 -223 361 -305 336 -305 c 0
EndSplineSet
EndChar
StartChar: scripts.downprall
Encoding: 57738 57738 160
Width: 313
GlyphClass: 2
Flags: MW
HStem: -125 360<-347.5 -170.5 -347.5 37.5>
VStem: -393 40<75.5 110 75.5 124.5>
Fore
-393 90 m 0
 -393 159 -359 235 -336 235 c 0
 -321 235 -310 218 -319 204 c 0
 -342 170 -353 130 -353 90 c 0
 -353 61 -347 31 -334 3 c 1
 -259 116 l 2
 -255 122 -249 125 -242 125 c 0
 -237 125 -231 122 -227 118 c 2
 -129 -1 l 1
 -51 116 l 2
 -47 122 -41 125 -34 125 c 0
 -28 125 -23 122 -19 118 c 2
 80 -1 l 1
 158 116 l 2
 161 122 167 125 174 125 c 0
 180 125 186 122 190 118 c 2
 288 -1 l 1
 319 46 l 2
 323 51 329 55 336 55 c 0
 347 55 356 46 356 35 c 0
 356 31 354 27 352 24 c 2
 259 -116 l 2
 255 -122 249 -125 243 -125 c 0
 237 -125 231 -122 227 -118 c 2
 129 1 l 1
 51 -116 l 2
 47 -122 41 -125 34 -125 c 0
 28 -125 23 -122 19 -118 c 2
 -80 1 l 1
 -158 -116 l 2
 -161 -122 -167 -125 -174 -125 c 0
 -180 -125 -186 -122 -190 -118 c 2
 -288 1 l 1
 -319 -46 l 2
 -323 -51 -329 -55 -336 -55 c 0
 -363 -55 -393 30 -393 90 c 0
EndSplineSet
EndChar
StartChar: scripts.downmordent
Encoding: 57739 57739 161
Width: 313
GlyphClass: 2
Flags: MW
VStem: -393 40<75.5 110 75.5 124.5> 84 40<-147 -66 -66 -66 66 147>
Fore
-393 90 m 0
 -393 159 -359 235 -336 235 c 0
 -321 235 -310 218 -319 204 c 0
 -342 170 -353 130 -353 90 c 0
 -353 61 -347 31 -334 3 c 1
 -259 116 l 2
 -255 122 -249 125 -242 125 c 0
 -237 125 -231 122 -227 118 c 2
 -129 -1 l 1
 -51 116 l 2
 -47 122 -41 125 -34 125 c 0
 -28 125 -23 122 -19 118 c 2
 80 -1 l 1
 84 6 l 1
 84 147 l 2
 84 158 93 167 104 167 c 0
 115 167 124 158 124 147 c 2
 124 66 l 1
 158 116 l 2
 161 122 167 125 174 125 c 0
 180 125 186 122 190 118 c 2
 288 -1 l 1
 319 46 l 2
 323 51 329 55 336 55 c 0
 347 55 356 46 356 35 c 0
 356 31 354 27 352 24 c 2
 259 -116 l 2
 255 -122 249 -125 243 -125 c 0
 237 -125 231 -122 227 -118 c 2
 129 1 l 1
 124 -6 l 1
 124 -147 l 2
 124 -158 115 -167 104 -167 c 0
 93 -167 84 -158 84 -147 c 2
 84 -66 l 1
 51 -116 l 2
 47 -122 41 -125 34 -125 c 0
 28 -125 23 -122 19 -118 c 2
 -80 1 l 1
 -158 -116 l 2
 -161 -122 -167 -125 -174 -125 c 0
 -180 -125 -186 -122 -190 -118 c 2
 -288 1 l 1
 -319 -46 l 2
 -323 -51 -329 -55 -336 -55 c 0
 -363 -55 -393 30 -393 90 c 0
EndSplineSet
EndChar
StartChar: scripts.prallup
Encoding: 57740 57740 162
Width: 313
GlyphClass: 2
Flags: MW
HStem: -125 360<-37.5 347.5 170.5 347.5>
VStem: 353 40<75.5 110>
Fore
393 90 m 0
 393 30 363 -55 336 -55 c 0
 329 -55 323 -51 319 -46 c 2
 288 1 l 1
 190 -118 l 2
 186 -122 180 -125 174 -125 c 0
 167 -125 161 -122 158 -116 c 2
 80 1 l 1
 -19 -118 l 2
 -23 -122 -28 -125 -34 -125 c 0
 -41 -125 -47 -122 -51 -116 c 2
 -129 1 l 1
 -227 -118 l 2
 -231 -122 -237 -125 -243 -125 c 0
 -249 -125 -255 -122 -259 -116 c 2
 -352 24 l 2
 -354 27 -356 31 -356 35 c 0
 -356 46 -347 55 -336 55 c 0
 -329 55 -323 51 -319 46 c 2
 -288 -1 l 1
 -190 118 l 2
 -186 122 -180 125 -174 125 c 0
 -167 125 -161 122 -158 116 c 2
 -80 -1 l 1
 19 118 l 2
 23 122 28 125 34 125 c 0
 41 125 47 122 51 116 c 2
 129 -1 l 1
 227 118 l 2
 231 122 237 125 242 125 c 0
 249 125 255 122 259 116 c 2
 334 3 l 1
 347 31 353 61 353 90 c 0
 353 130 342 170 319 204 c 0
 310 218 321 235 336 235 c 0
 359 235 393 159 393 90 c 0
EndSplineSet
EndChar
StartChar: scripts.lineprall
Encoding: 57741 57741 163
Width: 313
GlyphClass: 2
Flags: MW
VStem: -356 40<31 465 31 465 31 470.5>
Fore
319 46 m 2
 323 51 329 55 336 55 c 0
 347 55 356 46 356 35 c 0
 356 31 354 27 352 24 c 2
 259 -116 l 2
 255 -122 249 -125 242 -125 c 0
 237 -125 231 -122 227 -118 c 2
 129 1 l 1
 51 -116 l 2
 47 -122 41 -125 34 -125 c 0
 28 -125 23 -122 19 -118 c 2
 -80 1 l 1
 -158 -116 l 2
 -161 -122 -167 -125 -174 -125 c 0
 -180 -125 -186 -122 -190 -118 c 2
 -288 1 l 1
 -319 -46 l 2
 -323 -51 -329 -55 -336 -55 c 0
 -347 -55 -356 -46 -356 -35 c 2
 -356 465 l 2
 -356 476 -347 485 -336 485 c 0
 -325 485 -316 476 -316 465 c 2
 -316 31 l 1
 -259 116 l 2
 -255 122 -249 125 -242 125 c 0
 -237 125 -231 122 -227 118 c 2
 -129 -1 l 1
 -51 116 l 2
 -47 122 -41 125 -34 125 c 0
 -28 125 -23 122 -19 118 c 2
 80 -1 l 1
 158 116 l 2
 161 122 167 125 174 125 c 0
 180 125 186 122 190 118 c 2
 288 -1 l 1
 319 46 l 2
EndSplineSet
EndChar
StartChar: scripts.caesura.curved
Encoding: 57742 57742 164
Width: 501
GlyphClass: 2
Flags: MW
VStem: 101 62 251 62
Fore
282 313 m 0
 300 313 313 298 313 281 c 0
 313 243 300 69 186 -189 c 0
 183 -196 176 -200 169 -200 c 0
 155 -200 146 -185 152 -174 c 0
 215 -30 241 127 251 283 c 0
 252 300 266 313 282 313 c 0
19 -200 m 0
 8 -200 0 -191 0 -181 c 0
 0 -162 79 -46 101 283 c 0
 102 300 116 313 132 313 c 0
 150 313 163 298 163 281 c 0
 163 243 150 69 36 -189 c 0
 33 -196 26 -200 19 -200 c 0
EndSplineSet
EndChar
StartChar: scripts.caesura.straight
Encoding: 57743 57743 165
Width: 501
GlyphClass: 2
Flags: MW
VStem: 8 445
Fore
149 -182 m 2
 381 282 l 2
 387 293 398 300 410 300 c 2
 442 300 l 2
 449 300 454 294 454 288 c 0
 454 286 454 284 453 282 c 2
 221 -182 l 2
 215 -193 204 -200 192 -200 c 2
 160 -200 l 2
 151 -200 145 -190 149 -182 c 2
9 -182 m 2
 241 282 l 2
 247 293 258 300 270 300 c 2
 302 300 l 2
 309 300 314 294 314 288 c 0
 314 286 314 284 313 282 c 2
 81 -182 l 2
 75 -193 64 -200 52 -200 c 2
 20 -200 l 2
 13 -200 8 -194 8 -188 c 0
 8 -186 8 -184 9 -182 c 2
EndSplineSet
EndChar
StartChar: flags.u3
Encoding: 57744 57744 166
Width: 226
GlyphClass: 2
Flags: MW
HStem: -20 20G<-16 0 0 0>
VStem: -16 16<-99 0> 167 42<-566 -481>
Fore
-16 -250 m 1
 -16 0 l 1
 0 0 l 1
 0 -198 209 -335 209 -533 c 0
 209 -604 193 -674 167 -740 c 0
 163 -748 155 -752 148 -752 c 0
 135 -752 122 -741 125 -725 c 1
 151 -664 167 -599 167 -533 c 0
 167 -429 72 -325 0 -250 c 1
 -16 -250 l 1
EndSplineSet
EndChar
StartChar: flags.u4
Encoding: 57745 57745 167
Width: 226
GlyphClass: 2
Flags: MW
HStem: -20 20G<-16 0 0 0>
VStem: -16 16<-500 -425 -271.5 -213 -89 0> 160 43<-478 -422> 167 42<-711.5 -661 -713.5 -633.5>
Fore
0 0 m 1xd0
 0 -178 203 -292 203 -470 c 0xe0
 203 -503 194 -535 180 -565 c 1
 197 -601 209 -640 209 -682 c 0
 209 -745 193 -807 167 -865 c 0
 163 -873 155 -877 148 -877 c 0
 135 -877 122 -866 125 -850 c 1
 151 -797 167 -741 167 -682 c 0
 167 -585 72 -491 0 -425 c 1
 0 -500 l 1
 -16 -500 l 1
 -16 0 l 1
 0 0 l 1xd0
153 -517 m 1
 158 -502 160 -486 160 -470 c 0
 160 -374 69 -280 0 -213 c 1
 0 -330 91 -419 153 -517 c 1
EndSplineSet
EndChar
StartChar: flags.u5
Encoding: 57746 57746 168
Width: 209
GlyphClass: 2
Flags: MW
HStem: -20 20G<-16 0 0 0>
VStem: -16 16<-750 -647 -492 -435 -435 -430 -273.5 -217 -217 -212 -88.5 0> 150 43<-480 -426.5> 160 43<-679 -649 -687 -623.5> 167 42<-915 -866.5 -917.5 -840.5>
Fore
0 -212 m 1xe0
 0 -217 l 2
 0 -330 86 -414 146 -507 c 1
 149 -497 150 -486 150 -474 c 0
 150 -379 65 -282 0 -212 c 1xe0
0 0 m 1
 0 -177 193 -297 193 -474 c 0xe0
 193 -503 186 -530 174 -556 c 1
 191 -591 203 -629 203 -669 c 0xd0
 203 -705 194 -740 179 -773 c 1
 197 -808 209 -846 209 -887 c 0
 209 -948 193 -1007 167 -1062 c 0
 163 -1071 155 -1074 148 -1074 c 0
 135 -1074 122 -1063 125 -1047 c 1
 151 -997 167 -943 167 -887 c 0xc8
 167 -794 72 -708 0 -647 c 1
 0 -750 l 1
 -16 -750 l 1
 -16 0 l 1
 0 0 l 1
0 -430 m 1
 0 -435 l 2
 0 -549 89 -633 151 -725 c 1
 157 -707 160 -689 160 -669 c 0xd0
 160 -578 69 -491 0 -430 c 1
EndSplineSet
EndChar
StartChar: flags.u6
Encoding: 57747 57747 169
Width: 209
GlyphClass: 2
Flags: MW
HStem: -20 20G<-16 0 0 0>
VStem: -16 16<-1000 -887 -730.5 -675 -675 -662 -507.5 -450 -450 -437 -282 -225 -225 -212 -89.5 0> 150 43<-488 -433.5> 160 43<-918.5 -888.5 -925.5 -862.5 -695 -663.5> 167 42<-1162.5 -1109 -1165 -1086.5>
Fore
0 -212 m 1xe0
 0 -225 l 2
 0 -339 86 -425 146 -519 c 1
 149 -507 150 -494 150 -482 c 0
 150 -385 65 -285 0 -212 c 1xe0
0 0 m 1
 0 -179 193 -303 193 -482 c 0xe0
 193 -512 186 -542 174 -569 c 1
 191 -605 203 -643 203 -684 c 0
 203 -723 192 -760 174 -795 c 1
 191 -830 203 -868 203 -909 c 0xd0
 203 -942 189 -973 168 -998 c 1
 192 -1040 209 -1084 209 -1134 c 0
 209 -1196 193 -1256 167 -1313 c 0
 163 -1321 155 -1324 148 -1324 c 0
 135 -1324 122 -1313 125 -1297 c 1
 151 -1246 167 -1191 167 -1134 c 0xc8
 167 -1039 72 -950 0 -887 c 1
 0 -1000 l 1
 -16 -1000 l 1
 -16 0 l 1
 0 0 l 1
0 -437 m 1
 0 -450 l 2
 0 -565 88 -652 148 -748 c 1
 156 -727 160 -706 160 -684 c 0xd0
 160 -591 69 -501 0 -437 c 1
0 -662 m 1
 0 -675 l 2
 0 -786 83 -870 145 -961 c 1
 155 -945 160 -928 160 -909 c 0
 160 -816 69 -726 0 -662 c 1
EndSplineSet
EndChar
StartChar: flags.d3
Encoding: 57748 57748 170
Width: 270
GlyphClass: 2
Flags: MW
HStem: 0 21G<-16 0 -16 -16>
VStem: -16 16<0 102.5 0 250> 227 42<457 545.5>
Fore
196 724 m 0
 228 724 269 596 269 513 c 0
 269 308 0 205 0 0 c 1
 -16 0 l 1
 -16 250 l 1
 0 250 l 1
 98 310 227 401 227 513 c 0
 227 578 206 641 173 697 c 1
 170 713 183 724 196 724 c 0
EndSplineSet
EndChar
StartChar: flags.ugrace
Encoding: 57749 57749 171
Width: 209
GlyphClass: 2
Flags: MW
HStem: -564 338
VStem: -175 408<-546.5 -243.5>
Fore
-166 -521 m 2
 194 -231 l 2
 198 -228 203 -226 209 -226 c 0
 222 -226 233 -237 233 -250 c 0
 233 -258 230 -265 224 -269 c 2
 -135 -559 l 2
 -139 -562 -145 -564 -150 -564 c 0
 -164 -564 -175 -553 -175 -540 c 0
 -175 -532 -172 -525 -166 -521 c 2
EndSplineSet
EndChar
StartChar: flags.dgrace
Encoding: 57750 57750 172
Width: 270
GlyphClass: 2
Flags: MW
HStem: 226 308
Fore
-206 492 m 2
 -214 496 -218 504 -218 513 c 0
 -218 526 -207 537 -193 537 c 0
 -189 537 -185 536 -182 534 c 2
 281 269 l 2
 289 264 294 257 294 248 c 0
 294 234 283 223 269 223 c 0
 265 223 261 224 257 226 c 2
 -206 492 l 2
EndSplineSet
EndChar
StartChar: flags.d4
Encoding: 57751 57751 173
Width: 270
GlyphClass: 2
Flags: MW
HStem: 0 21G<-16 0 -16 -16>
VStem: -16 16<0 90.5 200 225 425 500> 214 42<386 450> 227 42<641 667.5 641 673.5>
Fore
0 200 m 1xe0
 92 253 214 334 214 438 c 0
 214 462 208 486 200 508 c 1
 120 420 0 348 0 225 c 2
 0 200 l 1xe0
269 663 m 0xd0
 269 619 254 581 231 547 c 1
 246 513 256 476 256 438 c 0xe0
 256 256 0 181 0 0 c 1
 -16 0 l 1
 -16 500 l 1
 0 500 l 1
 0 425 l 1
 98 476 227 556 227 663 c 0
 227 684 222 705 213 725 c 1
 210 741 223 752 236 752 c 0
 268 752 269 672 269 663 c 0xd0
EndSplineSet
EndChar
StartChar: flags.d5
Encoding: 57752 57752 174
Width: 270
GlyphClass: 2
Flags: MW
HStem: 0 21G<-16 0 -16 -16>
VStem: -16 16<0 92.5 210 225 435 450 660 750> 206 42<405.5 466> 219 42<639 673.5> 227 42<864 890.5 864 896.5>
Fore
0 210 m 1xe0
 89 268 206 354 206 457 c 0
 206 475 202 493 195 509 c 1
 117 419 0 347 0 225 c 2
 0 210 l 1xe0
269 886 m 0xc8
 269 842 254 805 231 771 c 1
 250 737 261 699 261 661 c 0xd0
 261 617 246 581 224 547 c 1
 239 519 248 489 248 457 c 0xe0
 248 273 0 185 0 0 c 1
 -16 0 l 1
 -16 750 l 1
 0 750 l 1
 0 660 l 1
 98 706 227 781 227 886 c 0
 227 907 222 928 213 947 c 1
 210 963 223 974 236 974 c 0
 268 974 269 895 269 886 c 0xc8
0 435 m 1
 94 482 219 558 219 661 c 0
 219 686 212 711 201 734 c 1
 122 645 0 574 0 450 c 2
 0 435 l 1
EndSplineSet
EndChar
StartChar: flags.d6
Encoding: 57753 57753 175
Width: 270
GlyphClass: 2
Flags: MW
HStem: 0 21G<-16 0 -16 -16>
VStem: -16 16<0 5 205 225 425 450 650 675 875 1000> 188 43<490 506.5 396 526 396 526> 211 42<669.5 696.5> 219 42<856 878> 227 42<1012 1039.5>
Fore
269 1026 m 0xc4
 269 998 262 975 250 954 c 1
 257 927 261 899 261 871 c 0xc8
 261 841 254 815 242 790 c 1
 249 757 253 722 253 688 c 0xd0
 253 651 243 618 228 587 c 1
 229 555 231 523 231 490 c 0xe0
 231 302 0 193 0 5 c 2
 0 0 l 1
 -16 0 l 1
 -16 1000 l 1
 0 1000 l 1
 0 875 l 1
 99 891 227 935 227 1026 c 0
 227 1053 221 1070 221 1077 c 0
 221 1090 233 1099 244 1099 c 0
 264 1099 269 1081 269 1026 c 0xc4
0 205 m 1
 81 278 188 382 188 490 c 2
 188 526 l 1xe0
 113 431 0 350 0 225 c 2
 0 205 l 1
0 425 m 1
 91 487 211 579 211 688 c 0xd0
 211 705 210 721 207 738 c 1
 131 645 0 576 0 450 c 2
 0 425 l 1
0 650 m 1
 94 696 219 769 219 871 c 0xc8
 219 885 217 898 215 912 c 1
 136 837 0 792 0 675 c 2
 0 650 l 1
EndSplineSet
EndChar
StartChar: clefs.C
Encoding: 57754 57754 176
Width: 682
GlyphClass: 2
Flags: MW
HStem: -500 28<402.5 473 402.5 501.5> -70 28<435 496.5> 42 28<435 496.5 415 512.5> 472 28<402.5 473>
VStem: 0 139<-490 490> 180 41<-490 -19 19 490> 263 103<-446 -337> 305 27<-224 -181.5 181.5 224> 555 125<-316 -197 197 316>
Fore
318 0 m 0xfe80
 318 -37 326 -73 363 -73 c 0
 393 -73 419 -42 451 -42 c 0
 574 -42 680 -131 680 -250 c 0
 680 -419 588 -500 415 -500 c 0
 333 -500 263 -438 263 -358 c 0
 263 -316 297 -281 339 -281 c 0
 381 -281 415 -316 415 -358 c 0
 415 -397 366 -395 366 -434 c 0xfe80
 366 -458 390 -472 415 -472 c 0
 531 -472 555 -382 555 -250 c 0
 555 -144 542 -70 451 -70 c 0
 379 -70 332 -142 332 -219 c 0
 332 -229 325 -233 318 -233 c 0
 311 -233 305 -229 305 -219 c 0
 305 -144 274 -72 221 -19 c 1
 221 -490 l 2
 221 -496 217 -500 211 -500 c 2
 190 -500 l 2
 184 -500 180 -496 180 -490 c 2
 180 490 l 2
 180 496 184 500 190 500 c 2
 211 500 l 2
 217 500 221 496 221 490 c 2
 221 19 l 1
 274 72 305 144 305 219 c 0
 305 229 311 233 318 233 c 0
 325 233 332 229 332 219 c 0xfd80
 332 142 379 70 451 70 c 0
 542 70 555 144 555 250 c 0
 555 382 531 472 415 472 c 0
 390 472 366 458 366 434 c 0
 366 395 415 397 415 358 c 0
 415 316 381 281 339 281 c 0
 297 281 263 316 263 358 c 0
 263 438 333 500 415 500 c 0
 588 500 680 419 680 250 c 0
 680 131 574 42 451 42 c 0
 419 42 393 73 363 73 c 0
 326 73 318 37 318 0 c 0xfe80
129 -500 m 2
 10 -500 l 2
 4 -500 0 -496 0 -490 c 2
 0 490 l 2
 0 496 4 500 10 500 c 2
 129 500 l 2
 134 500 139 496 139 490 c 2
 139 -490 l 2
 139 -496 134 -500 129 -500 c 2
EndSplineSet
EndChar
StartChar: clefs.C_change
Encoding: 57755 57755 177
Width: 551
GlyphClass: 2
Flags: MW
HStem: -400 24<334.5 389.5 334.5 411.5> -54 24<354.5 404.5> 30 24<354.5 404.5 339.5 416.5> 376 24<334.5 389.5>
VStem: 0 112<-390 390> 149 37<-390 -15 15 390> 223 85<-356.5 -270.5> 252 25<-174 -140.5 140.5 174> 452 97<-252 -157 157 252>
Fore
265 0 m 0xfe80
 265 -25 268 -57 298 -57 c 0
 322 -57 342 -30 367 -30 c 0
 466 -30 549 -104 549 -200 c 0
 549 -334 479 -400 344 -400 c 0
 278 -400 223 -351 223 -287 c 0
 223 -254 250 -227 283 -227 c 0
 316 -227 344 -254 344 -287 c 0
 344 -318 308 -318 308 -348 c 0xfe80
 308 -365 325 -376 344 -376 c 0
 435 -376 452 -304 452 -200 c 0
 452 -114 442 -54 367 -54 c 0
 312 -54 277 -110 277 -170 c 0
 277 -178 271 -182 265 -182 c 0
 259 -182 252 -178 252 -170 c 0
 252 -111 228 -55 186 -15 c 1
 186 -390 l 2
 186 -396 181 -400 176 -400 c 2
 159 -400 l 2
 153 -400 149 -396 149 -390 c 2
 149 390 l 2
 149 396 153 400 159 400 c 2
 176 400 l 2
 181 400 186 396 186 390 c 2
 186 15 l 1
 228 55 252 111 252 170 c 0
 252 178 259 182 265 182 c 0
 271 182 277 178 277 170 c 0xfd80
 277 110 312 54 367 54 c 0
 442 54 452 114 452 200 c 0
 452 304 435 376 344 376 c 0
 325 376 308 365 308 348 c 0
 308 318 344 318 344 287 c 0
 344 254 316 227 283 227 c 0
 250 227 223 254 223 287 c 0
 223 351 278 400 344 400 c 0
 479 400 549 334 549 200 c 0
 549 104 466 30 367 30 c 0
 342 30 322 57 298 57 c 0
 270 57 265 29 265 0 c 0xfe80
102 -400 m 2
 10 -400 l 2
 4 -400 0 -396 0 -390 c 2
 0 390 l 2
 0 396 4 400 10 400 c 2
 102 400 l 2
 108 400 112 396 112 390 c 2
 112 -390 l 2
 112 -396 108 -400 102 -400 c 2
EndSplineSet
EndChar
StartChar: clefs.F
Encoding: 57756 57756 178
Width: 673
GlyphClass: 2
Flags: MW
HStem: -176 102<594 622.5> -87 206<106.5 140 106.5 140.5> 74 102<594 622.5> 237 26<195 286>
VStem: 0 212<-10 46.5 -10 85> 403 122<-112 62> 557 102<-139 -111 111 139>
Fore
557 -125 m 0x9e
 557 -97 580 -74 608 -74 c 0
 637 -74 659 -97 659 -125 c 0
 659 -153 637 -176 608 -176 c 0
 580 -176 557 -153 557 -125 c 0x9e
557 125 m 0
 557 153 580 176 608 176 c 0
 637 176 659 153 659 125 c 0
 659 97 637 74 608 74 c 0x3e
 580 74 557 97 557 125 c 0
232 263 m 0
 404 263 525 175 525 12 c 0
 525 -251 262 -402 9 -509 c 2
 6 -512 3 -513 0 -513 c 0
 -7 -513 -13 -507 -13 -500 c 0
 -13 -497 -12 -494 -9 -491 c 1
 193 -374 403 -226 403 2 c 0
 403 122 340 237 232 237 c 0
 158 237 103 183 78 111 c 1
 89 116 101 119 112 119 c 0
 168 119 212 74 212 19 c 0
 212 -39 169 -87 112 -87 c 0x5e
 53 -87 0 -40 0 19 c 0
 0 151 102 263 232 263 c 0
EndSplineSet
EndChar
StartChar: clefs.F_change
Encoding: 57757 57757 179
Width: 538
GlyphClass: 2
Flags: MW
HStem: -141 82<475.5 498> -66 165<87.5 112 87.5 112.5> 59 82<475.5 498> 187 26<153 220>
VStem: 0 170<-4 41 -4 71> 298 122<-86 48> 446 82<-111.5 -88.5 88.5 111.5>
Fore
446 -100 m 0x9e
 446 -77 464 -59 487 -59 c 0
 509 -59 528 -77 528 -100 c 0
 528 -123 509 -141 487 -141 c 0
 464 -141 446 -123 446 -100 c 0x9e
446 100 m 0
 446 123 464 141 487 141 c 0
 509 141 528 123 528 100 c 0
 528 77 509 59 487 59 c 0x3e
 464 59 446 77 446 100 c 0
179 213 m 0
 320 213 420 144 420 12 c 0
 420 -199 210 -321 9 -409 c 2
 6 -412 3 -413 0 -413 c 0
 -7 -413 -13 -407 -13 -400 c 0
 -13 -397 -12 -394 -9 -391 c 1
 142 -293 298 -174 298 2 c 0
 298 94 261 187 179 187 c 0
 127 187 92 149 75 97 c 1
 80 98 85 99 90 99 c 0
 134 99 170 63 170 19 c 0
 170 -27 135 -66 90 -66 c 0x5e
 42 -66 0 -28 0 19 c 0
 0 123 78 213 179 213 c 0
EndSplineSet
EndChar
StartChar: clefs.G
Encoding: 57758 57758 180
Width: 643
GlyphClass: 2
Flags: MW
HStem: -655 42<230.5 304.5 230.5 315> -551 199<152 183.5> -263 43<282 362 282 362.5>
VStem: 0 72<-5.5 96.5 -51.5 184.5> 45 207<-482 -428 -482 -427> 163 65<10 63 10 106.5> 171 51<858 878.5 799.5 1025.5> 416 72<888 958.5 799 987.5> 420 42 573 65<-64 5.5>
Fore
638 -3 m 0xf340
 638 -125 556 -215 466 -245 c 1
 467 -265 467 -284 467 -304 c 0
 467 -343 465 -383 462 -422 c 0
 451 -545 373 -655 257 -655 c 0
 142 -655 45 -568 45 -456 c 0
 45 -398 98 -352 157 -352 c 0
 211 -352 252 -400 252 -456 c 0
 252 -508 210 -551 157 -551 c 0
 147 -551 137 -549 127 -545 c 1
 156 -586 204 -613 257 -613 c 0
 352 -613 411 -518 420 -417 c 0xe8c0
 423 -379 425 -341 425 -303 c 0
 425 -287 424 -272 424 -256 c 1
 400 -261 375 -263 350 -263 c 0
 156 -263 0 -103 0 92 c 0
 0 277 125 418 239 563 c 1
 196 692 171 787 171 929 c 0
 171 1122 307 1249 323 1249 c 0
 354 1249 488 1042 488 875 c 0
 488 723 403 601 310 482 c 1
 334 409 357 336 378 262 c 1
 536 261 638 131 638 -3 c 0xf340
464 -203 m 1
 521 -181 573 -121 573 -39 c 0
 573 50 509 138 406 153 c 1
 433 43 456 -82 464 -203 c 1
302 -130 m 0
 286 -130 163 -72 163 61 c 0
 163 152 225 241 334 259 c 1
 317 321 298 381 278 442 c 1
 175 311 72 180 72 13 c 0
 72 -116 214 -220 350 -220 c 0
 374 -220 398 -219 422 -214 c 1
 414 -88 390 42 362 155 c 1
 276 149 228 93 228 33 c 0xf440
 228 -13 256 -62 316 -92 c 1
 321 -97 324 -102 324 -108 c 0
 324 -119 314 -130 302 -130 c 0
377 1104 m 1
 280 1042 222 936 222 821 c 0
 222 778 236 709 270 604 c 1
 349 710 416 821 416 955 c 0xe340
 416 1020 409 1047 377 1104 c 1
EndSplineSet
EndChar
StartChar: clefs.G_change
Encoding: 57759 57759 181
Width: 514
GlyphClass: 2
Flags: MW
HStem: -528 42<185 240.5 185 251.5> -441 158<112 113.5> -213 43<227 289 227 289.5>
VStem: 0 61<-4.5 72.5 -43.5 146.5> 31 166<-387 -343.5 -387 -342.5> 117 47<685.5 700 637.5 825> 127 59<8.5 50 8.5 85.5> 326 62<715 767.5 640.5 792> 336 42<-231 -230 -230 -208 -208 -208> 454 59<-51 3>
Fore
513 -2 m 0xf540
 513 -100 449 -172 378 -197 c 1
 378 -230 l 2
 378 -266 377 -302 374 -338 c 0
 365 -439 299 -528 204 -528 c 0
 110 -528 31 -457 31 -366 c 0
 31 -319 74 -283 121 -283 c 0
 165 -283 197 -321 197 -366 c 0
 197 -408 163 -442 121 -442 c 0
 118 -442 115 -441 112 -441 c 1
 134 -468 166 -486 204 -486 c 0
 277 -486 325 -412 332 -333 c 0
 335 -299 336 -265 336 -231 c 2
 336 -208 l 1xe8c0
 317 -211 299 -213 280 -213 c 0
 124 -213 0 -83 0 74 c 0
 0 219 96 332 183 447 c 1
 136 564 117 625 117 746 c 0
 117 904 233 998 248 998 c 0
 276 998 388 835 388 700 c 0
 388 581 323 484 252 389 c 1
 274 331 293 272 311 212 c 1
 434 207 513 104 513 -2 c 0xf540
376 -154 m 1
 417 -135 454 -90 454 -30 c 0
 454 36 409 101 336 117 c 1
 355 34 371 -61 376 -154 c 1
241 -108 m 0
 225 -108 127 -59 127 48 c 0
 127 123 178 196 268 210 c 1
 254 257 239 304 222 350 c 1
 141 244 61 139 61 6 c 0
 61 -93 174 -170 280 -170 c 0
 298 -170 317 -169 334 -166 c 1
 329 -68 313 33 292 121 c 1
 224 117 186 74 186 26 c 0xf240
 186 -9 208 -47 255 -70 c 1
 260 -75 263 -80 263 -86 c 0
 263 -97 253 -108 241 -108 c 0
293 875 m 1
 213 830 164 746 164 654 c 0
 164 621 183 569 214 489 c 1
 276 574 326 662 326 768 c 0xe540
 326 816 320 836 293 875 c 1
EndSplineSet
EndChar
StartChar: clefs.percussion
Encoding: 57760 57760 182
Width: 501
GlyphClass: 2
Flags: MW
VStem: 167 113<-240 240> 388 112<-240 240>
Fore
490 -250 m 2
 398 -250 l 2
 392 -250 388 -246 388 -240 c 2
 388 240 l 2
 388 246 392 250 398 250 c 2
 490 250 l 2
 496 250 500 246 500 240 c 2
 500 -240 l 2
 500 -246 496 -250 490 -250 c 2
270 -250 m 2
 177 -250 l 2
 172 -250 167 -246 167 -240 c 2
 167 240 l 2
 167 246 172 250 177 250 c 2
 270 250 l 2
 276 250 280 246 280 240 c 2
 280 -240 l 2
 280 -246 276 -250 270 -250 c 2
EndSplineSet
EndChar
StartChar: clefs.percussion_change
Encoding: 57761 57761 183
Width: 401
GlyphClass: 2
Flags: MW
HStem: -200 400<141 214 144 214 144 320 320 390>
VStem: 134 90<-190 190> 310 90<-190 190>
Fore
390 -200 m 2
 320 -200 l 2
 314 -200 310 -196 310 -190 c 2
 310 190 l 2
 310 196 314 200 320 200 c 2
 390 200 l 2
 396 200 400 196 400 190 c 2
 400 -190 l 2
 400 -196 396 -200 390 -200 c 2
214 -200 m 2
 144 -200 l 2
 138 -200 134 -196 134 -190 c 2
 134 190 l 2
 134 196 138 200 144 200 c 2
 214 200 l 2
 220 200 224 196 224 190 c 2
 224 -190 l 2
 224 -196 220 -200 214 -200 c 2
EndSplineSet
EndChar
StartChar: clefs.tab
Encoding: 57762 57762 184
Width: 702
GlyphClass: 2
Flags: MW
HStem: -722 51<187 237 185.5 245.5> -709 60<407.5 436 395 489.5> -493 40<411.5 434> -188 49<115.5 145.5 115.5 150> -116 43<355 410.5> 257 51<283 322 274.5 345.5> 629 50<541.5 593> 671 49<337.5 373.5>
VStem: 140 101<-391 -360 -391 -336> 155 101<581 622 581 648> 487 102<-372 -366> 509 113<-583 -533>
Fore
267 -425 m 0xbca0
 267 -436 264 -452 224 -452 c 0
 182 -452 140 -423 140 -377 c 0
 140 -295 258 -247 374 -247 c 0
 474 -247 589 -268 589 -350 c 0xbca0
 589 -394 562 -434 520 -460 c 1
 578 -471 622 -496 622 -551 c 0
 622 -632 536 -709 443 -709 c 0
 372 -709 332 -660 332 -649 c 0
 332 -637 348 -624 360 -624 c 0
 374 -624 376 -649 414 -649 c 0
 458 -649 509 -610 509 -556 c 0x7c10
 509 -510 460 -493 408 -493 c 0
 403 -493 400 -486 400 -477 c 0
 400 -466 405 -453 418 -453 c 0
 455 -453 487 -414 487 -376 c 0
 487 -356 480 -314 407 -300 c 1
 397 -363 377 -473 367 -520 c 0
 348 -622 283 -722 208 -722 c 0
 166 -722 142 -689 112 -669 c 0
 109 -667 108 -664 108 -660 c 0
 108 -649 120 -634 132 -634 c 0
 148 -634 167 -671 204 -671 c 0
 270 -671 293 -572 293 -476 c 2
 293 -468 l 2
 293 -433 302 -359 311 -305 c 1
 272 -318 241 -345 241 -375 c 0
 241 -407 267 -402 267 -425 c 0xbca0
70 -119 m 0
 81 -119 104 -139 127 -139 c 0
 164 -139 201 -103 218 -85 c 0
 318 17 393 134 432 251 c 0
 441 278 465 288 489 288 c 0
 517 288 546 274 546 257 c 0
 546 255 528 -108 528 -108 c 2
 528 -124 531 -138 549 -138 c 0
 566 -138 596 -118 604 -118 c 0
 609 -118 613 -127 613 -135 c 0
 613 -143 610 -151 601 -154 c 0
 570 -164 544 -188 514 -188 c 0
 482 -188 469 -159 461 -130 c 0
 445 -69 435 -5 430 61 c 1
 404 26 375 -8 343 -40 c 1
 355 -61 377 -73 407 -73 c 0
 414 -73 418 -72 419 -72 c 0
 423 -72 427 -79 427 -87 c 0
 427 -96 423 -106 414 -109 c 0
 399 -113 384 -116 371 -116 c 0
 339 -116 315 -104 301 -83 c 1
 262 -118 l 2
 220 -154 172 -188 128 -188 c 0
 94 -188 76 -167 50 -156 c 0
 47 -155 45 -151 45 -147 c 0
 45 -136 56 -119 70 -119 c 0
288 540 m 0
 288 526 279 516 246 516 c 0
 198 516 155 553 155 600 c 0
 155 696 286 720 387 720 c 0x3d40
 433 720 508 679 558 679 c 0
 629 679 665 723 677 723 c 0
 688 723 700 712 700 704 c 0
 700 697 636 629 550 629 c 0x3e40
 533 629 519 632 506 635 c 1
 498 577 481 483 471 442 c 0
 450 346 383 257 308 257 c 0
 258 257 233 295 193 321 c 0
 190 323 189 326 189 330 c 0
 189 341 200 356 212 356 c 0
 229 356 255 308 294 308 c 0
 350 308 377 385 379 458 c 0
 381 503 392 608 401 666 c 1
 389 669 378 671 369 671 c 0
 306 671 256 643 256 601 c 0x3d40
 256 561 288 566 288 540 c 0
EndSplineSet
EndChar
StartChar: clefs.tab_change
Encoding: 57763 57763 185
Width: 562
GlyphClass: 2
Flags: MW
HStem: -577 40<150 190 149 196.5> -567 48<326 349 316 391.5> -394 32<329.5 347.5> -361 163<162.5 340> -150 39<93 120> -93 35<283.5 337> 205 41<227 274 220 276.5> 503 40<433 474.5> 537 39<270.5 298.5>
VStem: 112 81<-312.5 -288 -312.5 -269> 124 81<465 497.5 465 518.5> 321 84 390 82<-297.5 -292.5> 408 90<-466.5 -426.5>
Fore
213 -340 m 0xbe48
 213 -348 213 -361 180 -361 c 0
 145 -361 112 -338 112 -302 c 0
 112 -236 207 -198 299 -198 c 0
 381 -198 472 -215 472 -280 c 0xbe48
 472 -315 448 -348 416 -368 c 1
 462 -377 498 -397 498 -441 c 0
 498 -505 429 -567 354 -567 c 0
 298 -567 266 -529 266 -519 c 0
 266 -510 279 -499 288 -499 c 0
 300 -499 300 -519 332 -519 c 0
 366 -519 408 -488 408 -445 c 0x7e04
 408 -408 368 -394 327 -394 c 0
 322 -394 320 -388 320 -382 c 0
 320 -373 324 -362 335 -362 c 0
 364 -362 390 -331 390 -300 c 0
 390 -285 384 -251 326 -240 c 1
 294 -416 l 2
 278 -498 226 -577 167 -577 c 0
 133 -577 113 -551 90 -535 c 0
 87 -533 86 -531 86 -528 c 0
 86 -519 96 -507 105 -507 c 0
 118 -507 134 -537 164 -537 c 0
 216 -537 235 -457 235 -381 c 2
 235 -374 l 2
 235 -346 241 -287 249 -244 c 1
 217 -255 193 -276 193 -300 c 0
 193 -325 213 -322 213 -340 c 0xbe48
56 -95 m 0
 65 -95 84 -111 102 -111 c 0
 157 -111 295 49 345 201 c 0
 353 223 372 230 391 230 c 0
 414 230 436 219 436 206 c 0
 436 204 422 -86 422 -86 c 2
 422 -99 425 -111 439 -111 c 0
 452 -111 476 -95 483 -95 c 0
 487 -95 490 -101 490 -108 c 0
 490 -114 488 -121 481 -123 c 0
 456 -131 435 -151 411 -151 c 0
 385 -151 357 -123 344 49 c 1
 323 21 300 -6 275 -32 c 1
 291 -61 322 -58 335 -58 c 0
 339 -58 341 -64 341 -70 c 0
 341 -90 311 -93 296 -93 c 0
 271 -93 252 -83 241 -66 c 1
 210 -94 l 2
 176 -123 138 -150 102 -150 c 0
 78 -150 36 -124 36 -118 c 0
 36 -109 45 -95 56 -95 c 0
230 432 m 0
 230 421 223 413 197 413 c 0
 158 413 124 442 124 480 c 0
 124 557 229 576 310 576 c 0x3eb0
 347 576 405 543 446 543 c 0
 503 543 532 578 541 578 c 0
 550 578 560 569 560 563 c 0
 560 557 509 503 440 503 c 0x3f30
 426 503 415 505 405 508 c 1
 398 461 385 386 377 353 c 0
 360 277 306 205 247 205 c 0
 207 205 187 236 155 257 c 0
 152 259 151 261 151 264 c 0
 151 273 160 285 169 285 c 0
 183 285 205 246 235 246 c 0
 313 246 300 396 321 533 c 1
 311 535 302 537 295 537 c 0
 246 537 205 514 205 481 c 0x3eb0
 205 449 230 453 230 432 c 0
EndSplineSet
EndChar
StartChar: timesig.C44
Encoding: 57764 57764 186
Width: 426
GlyphClass: 2
Flags: MW
HStem: -263 25<197 290 197 317> 27 152<346 358.5 333.5 377> 237 25<197 274>
VStem: 0 137<-75.5 -43 43 75> 284 142<79.5 121>
Fore
359 27 m 0
 333 27 284 47 284 102 c 0
 284 140 311 179 356 179 c 0
 361 179 365 178 370 178 c 1
 342 214 298 237 250 237 c 0
 144 237 137 164 137 51 c 0
 137 35 138 18 138 0 c 0
 138 -18 137 -35 137 -51 c 0
 137 -164 144 -238 250 -238 c 0
 330 -238 389 -168 408 -87 c 0
 410 -80 415 -77 420 -77 c 0
 426 -77 433 -82 433 -89 c 0
 433 -109 384 -263 250 -263 c 0
 82 -263 0 -151 0 0 c 0
 0 150 81 262 250 262 c 0
 367 262 426 155 426 99 c 0
 426 60 395 27 359 27 c 0
EndSplineSet
EndChar
StartChar: timesig.C22
Encoding: 57765 57765 187
Width: 426
GlyphClass: 2
Flags: MW
HStem: -262 25<238 240> 27 152<346 358.5 333.5 377> 237 25<238 250 238 250>
VStem: 0 137<-62.5 -43 43 62.5> 200 38<-340 -262 -230 230 230 230 262 340> 284 142<79.5 121>
Fore
359 27 m 0
 333 27 284 47 284 102 c 0
 284 140 311 179 356 179 c 0
 361 179 365 178 370 178 c 1
 342 214 298 237 250 237 c 2
 238 237 l 1
 238 -237 l 1
 242 -237 246 -238 250 -238 c 0
 330 -238 389 -168 408 -87 c 0
 410 -80 415 -77 420 -77 c 0
 426 -77 433 -82 433 -89 c 0
 433 -109 384 -263 250 -263 c 0
 246 -263 242 -262 238 -262 c 1
 238 -340 l 2
 238 -346 233 -350 228 -350 c 2
 210 -350 l 2
 204 -350 200 -346 200 -340 c 2
 200 -259 l 1
 56 -236 0 -125 0 0 c 0
 0 125 55 236 200 259 c 1
 200 340 l 2
 200 346 204 350 210 350 c 2
 228 350 l 2
 233 350 238 346 238 340 c 2
 238 262 l 1
 250 262 l 2
 367 262 426 155 426 99 c 0
 426 60 395 27 359 27 c 0
200 -230 m 1
 200 230 l 1
 142 208 137 142 137 51 c 0
 137 35 138 18 138 0 c 0
 138 -18 137 -35 137 -51 c 0
 137 -142 142 -208 200 -230 c 1
EndSplineSet
EndChar
StartChar: pedal.*
Encoding: 57766 57766 188
Width: 390
GlyphClass: 2
Flags: MW
HStem: 153 93<78.5 89 66 96 299.5 310> 257 97<32 61.5 327.5 357> 296 20<99 125 99 125.5 264 290> 366 92<78.5 87 87 96 78.5 99 293 301>
VStem: 42 92<190 198 198 207 404 413> 146 97<143 172.5 438.5 468> 184 20<210 236 375 401> 254 93<190 200 411 421.5>
Fore
166 306 m 0x99
 166 290 179 277 194 277 c 0
 210 277 223 290 223 306 c 0
 223 321 210 334 194 334 c 0
 179 334 166 321 166 306 c 0x99
92 458 m 0
 100 458 134 455 134 413 c 2
 134 401 l 2
 134 347 184 361 184 388 c 0xbb
 184 414 146 425 146 452 c 0
 146 484 170 500 194 500 c 0
 219 500 243 484 243 452 c 0xbd
 243 425 204 414 204 388 c 0
 204 362 255 345 255 401 c 0
 255 405 254 409 254 413 c 0
 254 455 289 458 297 458 c 0
 323 458 347 435 347 408 c 0
 347 400 344 366 301 366 c 2
 290 366 l 2
 236 366 250 316 277 316 c 0xbb
 303 316 314 354 341 354 c 0
 373 354 389 330 389 306 c 0
 389 281 373 257 341 257 c 0xdb
 314 257 303 296 277 296 c 0
 251 296 234 245 290 245 c 0
 294 245 298 246 301 246 c 0
 344 246 347 211 347 203 c 0
 347 177 323 153 297 153 c 0
 289 153 254 156 254 198 c 0
 254 202 255 206 255 210 c 0
 255 264 204 250 204 223 c 0xbb
 204 197 243 186 243 159 c 0
 243 127 219 111 194 111 c 0
 170 111 146 127 146 159 c 0xbd
 146 186 184 197 184 223 c 0
 184 249 134 266 134 210 c 2
 134 198 l 2
 134 156 100 153 92 153 c 0
 65 153 42 177 42 203 c 0
 42 211 45 246 87 246 c 0
 91 246 95 245 99 245 c 0
 153 245 139 296 112 296 c 0xbb
 86 296 75 257 48 257 c 0
 16 257 0 281 0 306 c 0
 0 330 16 354 48 354 c 0xdb
 75 354 86 316 112 316 c 0xbb
 138 316 155 366 99 366 c 2
 87 366 l 2
 45 366 42 400 42 408 c 0
 42 435 65 458 92 458 c 0
EndSplineSet
EndChar
StartChar: pedal.M
Encoding: 57767 57767 189
Width: 210
GlyphClass: 2
Flags: MW
HStem: 169 61<41 97.5>
VStem: 0 210<155 239>
Fore
0 155 m 1
 35 216 l 1
 48 227 66 230 86 230 c 0
 109 230 136 226 159 226 c 0
 179 226 197 229 210 239 c 1
 175 179 l 1
 162 168 144 165 124 165 c 0
 101 165 74 169 51 169 c 0
 31 169 13 166 0 155 c 1
EndSplineSet
EndChar
StartChar: pedal..
Encoding: 57768 57768 190
Width: 70
GlyphClass: 2
Flags: MW
HStem: 0 70<25.5 44.5>
VStem: 0 70<25.5 44.5>
Fore
0 35 m 0
 0 54 16 70 35 70 c 0
 54 70 70 54 70 35 c 0
 70 16 54 0 35 0 c 0
 16 0 0 16 0 35 c 0
EndSplineSet
EndChar
StartChar: pedal.P
Encoding: 57769 57769 191
Width: 418
GlyphClass: 2
Flags: MW
HStem: 0 120 225 66<78 81.5> 289 65<330 374.5> 482 18<243 250 243 243>
VStem: -1 44<320 344> 125 18<334.5 354> 164 40<299.5 379> 252 52<164 235> 371 45<377 387 333.5 409>
Fore
43 339 m 0xbf80
 43 301 74 291 82 291 c 0
 103 291 125 319 125 350 c 0
 125 358 143 358 143 350 c 0
 143 287 103 225 60 225 c 0xdf80
 36 225 -1 250 -1 303 c 0
 -1 385 89 500 250 500 c 0
 358 500 416 418 416 356 c 0
 416 311 385 289 364 289 c 0
 329 289 296 338 277 379 c 0
 274 386 290 393 293 386 c 0
 301 368 321 354 339 354 c 0
 351 354 371 364 371 390 c 0
 371 428 327 482 250 482 c 2
 243 482 l 1
 230 457 204 384 204 374 c 0
 204 328 304 260 304 210 c 0
 304 196 293 177 246 120 c 1
 275 116 329 92 348 76 c 0
 354 71 362 75 368 79 c 2
 405 107 l 2
 410 110 418 103 418 97 c 0
 418 94 307 -11 288 4 c 0
 269 20 260 93 231 102 c 1
 204 68 150 0 111 0 c 0
 104 0 97 5 97 12 c 0
 97 44 186 115 222 120 c 1
 251 154 252 159 252 169 c 0
 252 215 164 280 164 319 c 0
 164 344 213 462 224 481 c 1
 111 471 43 393 43 339 c 0xbf80
EndSplineSet
EndChar
StartChar: pedal.d
Encoding: 57770 57770 192
Width: 334
GlyphClass: 2
Flags: MW
HStem: 0 35<201.5 238.5 201.5 253.5>
VStem: 111 53<119 165.5 119 170.5> 267 68<107 146>
Fore
2 438 m 0
 60 438 335 326 335 142 c 0
 335 72 285 0 222 0 c 0
 160 0 111 76 111 143 c 0
 111 198 157 255 208 280 c 1
 157 351 79 406 0 420 c 0
 -3 421 -4 424 -4 427 c 0
 -4 432 -2 438 2 438 c 0
219 265 m 1
 181 244 164 188 164 143 c 0
 164 95 181 35 222 35 c 0
 255 35 267 74 267 116 c 0
 267 176 243 227 219 265 c 1
EndSplineSet
EndChar
StartChar: pedal.e
Encoding: 57771 57771 193
Width: 200
GlyphClass: 2
Flags: MW
HStem: 1 21G<60.5 93> 254 33<67 85>
VStem: -1 33<147.5 220.5> 110 34<223 231.5>
Fore
73 1 m 0
 48 1 30 18 11 86 c 1
 6 83 -2 91 -2 96 c 0
 -2 100 1 101 6 105 c 1
 1 125 -1 140 -1 155 c 0
 -1 217 33 287 95 287 c 0
 125 287 144 266 144 242 c 0
 144 204 101 162 65 132 c 2
 55 123 l 1
 82 72 101 44 119 54 c 0
 130 59 181 98 189 107 c 0
 193 111 202 104 202 97 c 0
 202 96 113 1 73 1 c 0
76 254 m 0
 58 254 32 242 32 199 c 0
 32 179 38 157 46 139 c 1
 72 160 110 193 110 222 c 0
 110 241 94 254 76 254 c 0
EndSplineSet
EndChar
StartChar: pedal.Ped
Encoding: 57772 57772 194
Width: 800
GlyphClass: 2
Flags: MW
HStem: 0 35<666.5 703 666.5 718.5> 0 120 225 66<78 81> 254 33<466.5 484.5> 289 65<330 374.5> 420 18 482 18<243 244>
VStem: -1 44<320 344> 125 18<334.5 354> 164 40<299.5 379> 252 52<164 235> 371 45<377 387 333.5 409> 399 33<147.5 220.5> 509 35<223 231.5> 576 52<136 165.5 119 170.5> 732 68<107 146>
Fore
43 339 m 0x47ef
 43 301 74 291 82 291 c 0
 103 291 125 319 125 350 c 0
 125 358 143 358 143 350 c 0
 143 287 102 225 60 225 c 0x67ef
 36 225 -1 250 -1 303 c 0
 -1 385 89 500 250 500 c 0
 358 500 416 418 416 356 c 0
 416 311 385 289 364 289 c 0
 329 289 296 338 277 379 c 0
 274 386 290 393 293 386 c 0
 301 368 321 354 339 354 c 0
 351 354 371 364 371 390 c 0
 371 428 327 483 250 483 c 0
 248 483 245 482 243 482 c 1
 230 457 204 384 204 374 c 0
 204 328 304 260 304 210 c 0
 304 196 293 177 246 120 c 1x4ff7
 275 116 329 92 348 76 c 0
 354 71 362 75 368 79 c 2
 405 107 l 1
 401 126 399 140 399 155 c 0
 399 217 432 287 495 287 c 0
 524 287 544 266 544 242 c 0
 544 204 500 162 465 132 c 2
 454 123 l 1
 503 32 506 36 582 101 c 1
 578 115 576 129 576 143 c 0
 576 198 621 255 673 280 c 1
 622 351 544 406 465 420 c 0
 457 422 460 439 468 438 c 0
 653 405 800 260 800 142 c 0
 800 72 750 0 687 0 c 0x97ef
 644 0 607 37 588 82 c 1
 500 1 490 1 473 1 c 0
 448 1 430 18 411 86 c 1
 409 86 l 1
 403 80 305 -10 288 4 c 0
 269 20 260 93 231 102 c 1
 204 68 150 0 111 0 c 0
 104 0 97 5 97 12 c 0
 97 44 186 115 222 120 c 1
 251 154 252 159 252 169 c 0
 252 215 164 280 164 319 c 0
 164 344 213 462 224 481 c 1
 111 471 43 393 43 339 c 0x47ef
475 254 m 0x17ef
 458 254 432 242 432 199 c 0
 432 179 438 157 446 139 c 1
 472 160 509 193 509 222 c 0
 509 241 494 254 475 254 c 0x17ef
683 265 m 1
 646 244 628 188 628 143 c 0
 628 95 646 35 687 35 c 0x87e7
 719 35 732 74 732 116 c 0
 732 176 708 227 683 265 c 1
EndSplineSet
EndChar
StartChar: brackettips.up
Encoding: 57773 57773 195
Width: 476
GlyphClass: 2
Flags: MW
HStem: -56 112<25 75 25 75 0 75>
VStem: 0 463
Fore
450 333 m 0
 459 333 466 326 466 317 c 0
 466 314 465 311 463 308 c 0
 364 164 248 -56 75 -56 c 2
 0 -56 l 1
 0 31 l 2
 0 45 11 56 25 56 c 2
 75 56 l 2
 234 56 346 192 437 326 c 0
 440 330 445 333 450 333 c 0
EndSplineSet
EndChar
StartChar: brackettips.down
Encoding: 57774 57774 196
Width: 476
GlyphClass: 2
Flags: MW
HStem: -56 112<18 25 25 75>
VStem: 0 463
Fore
466 -317 m 0
 466 -325 459 -333 450 -333 c 0
 445 -333 440 -330 437 -326 c 0
 346 -192 234 -56 75 -56 c 2
 25 -56 l 2
 11 -56 0 -45 0 -31 c 2
 0 56 l 1
 75 56 l 2
 248 56 364 -164 463 -308 c 0
 465 -311 466 -314 466 -317 c 0
EndSplineSet
EndChar
StartChar: accordion.accDiscant
Encoding: 57775 57775 197
Width: 392
GlyphClass: 2
Flags: MW
HStem: 0 23<-75.5 75.5 -75.5 107.5> 250 23<-333 333 -333 -333> 500 23<-333 333 -333 341 -341 333> 750 23<-75.5 75.5>
VStem: -391 32<366.5 406 366.5 493.5> 359 32<366.5 406>
Fore
391 386 m 0
 391 172 215 0 0 0 c 0
 -215 0 -391 172 -391 386 c 0
 -391 601 -215 773 0 773 c 0
 215 773 391 601 391 386 c 0
333 250 m 1
 -333 250 l 1
 -280 117 -151 23 0 23 c 0
 151 23 280 117 333 250 c 1
341 273 m 1
 352 309 359 347 359 386 c 0
 359 426 352 464 341 500 c 1
 -341 500 l 1
 -352 464 -359 426 -359 386 c 0
 -359 347 -352 309 -341 273 c 1
 341 273 l 1
-333 523 m 1
 333 523 l 1
 280 656 151 750 0 750 c 0
 -151 750 -280 656 -333 523 c 1
EndSplineSet
EndChar
StartChar: accordion.accDot
Encoding: 57776 57776 198
Width: 62
GlyphClass: 2
Flags: MW
HStem: -62 124<-17.5 17.5>
VStem: -62 124<-17.5 17.5>
Fore
-62 0 m 0
 -62 35 -35 62 0 62 c 0
 35 62 62 35 62 0 c 0
 62 -35 35 -62 0 -62 c 0
 -35 -62 -62 -35 -62 0 c 0
EndSplineSet
EndChar
StartChar: accordion.accFreebase
Encoding: 57777 57777 199
Width: 267
GlyphClass: 2
Flags: MW
HStem: 0 23<-63 63 -63 73> 250 23<-233 233 -233 233> 500 23<-63 63>
VStem: -266 33<250 250 250 273 250 334> 233 33<250 250 273 273>
Fore
266 261 m 0
 266 116 146 0 0 0 c 0
 -146 0 -266 116 -266 261 c 0
 -266 407 -146 523 0 523 c 0
 146 523 266 407 266 261 c 0
233 250 m 1
 -233 250 l 1
 -228 124 -126 23 0 23 c 0
 126 23 228 124 233 250 c 1
-233 273 m 1
 233 273 l 1
 228 398 126 500 0 500 c 0
 -126 500 -228 398 -233 273 c 1
EndSplineSet
EndChar
StartChar: accordion.accStdbase
Encoding: 57778 57778 200
Width: 518
GlyphClass: 2
Flags: MW
HStem: 0 23<-86 86 -86 142> 250 23<-409 409 -409 -409> 500 23<-484 484 -484 484> 750 23<-422 409 -409 409 -409 422> 1000 23<-86 86>
VStem: -516 32<500 500 500 523 500 653> 484 32<500 500 523 523>
Fore
516 511 m 0
 516 228 284 0 0 0 c 0
 -284 0 -516 228 -516 511 c 0
 -516 795 -284 1023 0 1023 c 0
 284 1023 516 795 516 511 c 0
409 250 m 1
 -409 250 l 1
 -323 114 -172 23 0 23 c 0
 172 23 323 114 409 250 c 1
422 273 m 1
 460 340 482 418 484 500 c 1
 -484 500 l 1
 -482 418 -460 340 -422 273 c 1
 422 273 l 1
-422 750 m 1
 -460 682 -482 605 -484 523 c 1
 484 523 l 1
 482 605 460 682 422 750 c 1
 -422 750 l 1
-409 773 m 1
 409 773 l 1
 323 909 172 1000 0 1000 c 0
 -172 1000 -323 909 -409 773 c 1
EndSplineSet
EndChar
StartChar: accordion.accBayanbase
Encoding: 57779 57779 201
Width: 267
GlyphClass: 2
Flags: MW
HStem: 0 33<-254.5 234 -234 234 -234 250> 250 33<-234 234 -234 234> 500 33<-234 234 -234 234> 750 33<-234 234 -234 -234>
VStem: -266 32<33 250 283 500 533 750> 234 32<33 250 250 250 283 500 500 500 533 750 750 750>
Fore
250 783 m 2
 259 783 266 775 266 766 c 2
 266 16 l 2
 266 7 259 0 250 0 c 2
 -250 0 l 2
 -259 0 -266 7 -266 16 c 2
 -266 766 l 2
 -266 775 -259 783 -250 783 c 2
 250 783 l 2
234 750 m 1
 -234 750 l 1
 -234 533 l 1
 234 533 l 1
 234 750 l 1
234 500 m 1
 -234 500 l 1
 -234 283 l 1
 234 283 l 1
 234 500 l 1
234 250 m 1
 -234 250 l 1
 -234 33 l 1
 234 33 l 1
 234 250 l 1
EndSplineSet
EndChar
StartChar: accordion.accOldEE
Encoding: 57780 57780 202
Width: 267
GlyphClass: 2
Flags: MW
HStem: 0 23<-65 65 -65 73> 108 95<-119 -103 -119 -93 103 119> 214 95<-163 -140 140 163> 320 95<-119 -103 103 119> 500 23<-65 65>
VStem: -266 32<195.5 326.5 195.5 334> -154 95<142 158 142 168.5 364 380.5> -47 94<98 121 401.5 424.5> 59 95<142 158 364 380.5> 234 32<195.5 326.5>
Fore
234 261 m 0
 234 392 130 500 0 500 c 0
 -130 500 -234 392 -234 261 c 0
 -234 130 -130 23 0 23 c 0
 130 23 234 130 234 261 c 0
266 261 m 0
 266 116 146 0 0 0 c 0
 -146 0 -266 116 -266 261 c 0
 -266 407 -146 523 0 523 c 0
 146 523 266 407 266 261 c 0
59 367 m 0
 59 394 80 415 106 415 c 0
 132 415 154 394 154 367 c 0
 154 341 132 320 106 320 c 0
 100 320 94 321 89 323 c 1
 34 277 l 1
 34 276 35 275 35 274 c 1
 106 280 l 1
 114 297 130 309 150 309 c 0
 176 309 198 288 198 261 c 0
 198 235 176 214 150 214 c 0
 130 214 114 226 106 243 c 1
 35 248 l 1
 35 247 34 247 34 246 c 1
 89 199 l 1
 94 202 100 203 106 203 c 0
 132 203 154 182 154 155 c 0
 154 129 132 108 106 108 c 0
 80 108 59 129 59 155 c 0
 59 161 60 167 62 173 c 1
 16 227 l 1
 15 227 14 227 13 226 c 1
 19 155 l 1
 36 148 47 131 47 111 c 0
 47 85 26 64 0 64 c 0
 -26 64 -47 85 -47 111 c 0
 -47 131 -36 148 -19 155 c 1
 -13 226 l 1
 -14 227 -15 227 -16 227 c 1
 -62 173 l 1
 -60 167 -59 161 -59 155 c 0
 -59 129 -80 108 -106 108 c 0
 -132 108 -154 129 -154 155 c 0
 -154 182 -132 203 -106 203 c 0
 -100 203 -94 202 -89 199 c 1
 -34 246 l 1
 -34 247 -35 247 -35 248 c 1
 -106 243 l 1
 -114 226 -130 214 -150 214 c 0
 -176 214 -197 235 -197 261 c 0
 -197 288 -176 309 -150 309 c 0
 -130 309 -114 297 -106 280 c 1
 -35 274 l 1
 -35 275 -34 276 -34 277 c 1
 -89 323 l 1
 -94 321 -100 320 -106 320 c 0
 -132 320 -154 341 -154 367 c 0
 -154 394 -132 415 -106 415 c 0
 -80 415 -59 394 -59 367 c 0
 -59 361 -60 355 -62 350 c 1
 -16 295 l 1
 -15 296 -14 296 -13 297 c 1
 -19 368 l 1
 -36 375 -47 392 -47 411 c 0
 -47 438 -26 459 0 459 c 0
 26 459 47 438 47 411 c 0
 47 392 36 375 19 368 c 1
 13 297 l 1
 14 296 15 296 16 295 c 1
 62 350 l 1
 60 355 59 361 59 367 c 0
EndSplineSet
EndChar
StartChar: rests.M3neomensural
Encoding: 57781 57781 203
Width: 301
GlyphClass: 2
Flags: MW
VStem: 0 100<-240 240> 200 100<-240 240>
Fore
290 -250 m 2
 210 -250 l 2
 204 -250 200 -246 200 -240 c 2
 200 240 l 2
 200 246 204 250 210 250 c 2
 290 250 l 2
 296 250 300 246 300 240 c 2
 300 -240 l 2
 300 -246 296 -250 290 -250 c 2
90 -250 m 2
 10 -250 l 2
 4 -250 0 -246 0 -240 c 2
 0 240 l 2
 0 246 4 250 10 250 c 2
 90 250 l 2
 96 250 100 246 100 240 c 2
 100 -240 l 2
 100 -246 96 -250 90 -250 c 2
EndSplineSet
EndChar
StartChar: rests.M2neomensural
Encoding: 57782 57782 204
Width: 100
GlyphClass: 2
Flags: MW
VStem: 0 100<-240 240>
Fore
90 -250 m 2
 10 -250 l 2
 4 -250 0 -246 0 -240 c 2
 0 240 l 2
 0 246 4 250 10 250 c 2
 90 250 l 2
 96 250 100 246 100 240 c 2
 100 -240 l 2
 100 -246 96 -250 90 -250 c 2
EndSplineSet
EndChar
StartChar: rests.M1neomensural
Encoding: 57783 57783 205
Width: 100
GlyphClass: 2
Flags: MW
HStem: 0 250<7 90 10 90>
VStem: 0 100<10 240>
Fore
90 0 m 2
 10 0 l 2
 4 0 0 4 0 10 c 2
 0 240 l 2
 0 246 4 250 10 250 c 2
 90 250 l 2
 96 250 100 246 100 240 c 2
 100 10 l 2
 100 4 96 0 90 0 c 2
EndSplineSet
EndChar
StartChar: rests.0neomensural
Encoding: 57784 57784 206
Width: 100
GlyphClass: 2
Flags: MW
HStem: -156 156<7 90 10 90>
VStem: 0 100<-146 -10>
Fore
90 -156 m 2
 10 -156 l 2
 4 -156 0 -152 0 -146 c 2
 0 -10 l 2
 0 -4 4 0 10 0 c 2
 90 0 l 2
 96 0 100 -4 100 -10 c 2
 100 -146 l 2
 100 -152 96 -156 90 -156 c 2
EndSplineSet
EndChar
StartChar: rests.1neomensural
Encoding: 57785 57785 207
Width: 100
GlyphClass: 2
Flags: MW
HStem: 0 156<7 90 10 90>
VStem: 0 100<10 146>
Fore
90 0 m 2
 10 0 l 2
 4 0 0 4 0 10 c 2
 0 146 l 2
 0 152 4 156 10 156 c 2
 90 156 l 2
 96 156 100 152 100 146 c 2
 100 10 l 2
 100 4 96 0 90 0 c 2
EndSplineSet
EndChar
StartChar: rests.2neomensural
Encoding: 57786 57786 208
Width: 200
GlyphClass: 2
Flags: MW
HStem: 0 200<18.5 26.5 18.5 32>
VStem: 0 50<25 140>
Fore
200 125 m 0
 200 110 188 100 175 100 c 0
 172 100 170 100 167 101 c 2
 50 140 l 1
 50 25 l 2
 50 11 39 0 25 0 c 0
 11 0 0 11 0 25 c 2
 0 175 l 2
 0 189 12 200 25 200 c 0
 28 200 30 200 33 199 c 2
 183 149 l 2
 193 145 200 135 200 125 c 0
EndSplineSet
EndChar
StartChar: rests.3neomensural
Encoding: 57787 57787 209
Width: 200
GlyphClass: 2
Flags: MW
HStem: 0 200<173.5 181.5 173.5 182>
VStem: 150 50<25 140 140 140>
Fore
25 100 m 0
 12 100 0 110 0 125 c 0
 0 135 7 145 17 149 c 2
 167 199 l 2
 170 200 172 200 175 200 c 0
 188 200 200 189 200 175 c 2
 200 25 l 2
 200 11 189 0 175 0 c 0
 161 0 150 11 150 25 c 2
 150 140 l 1
 33 101 l 2
 30 100 28 100 25 100 c 0
EndSplineSet
EndChar
StartChar: rests.4neomensural
Encoding: 57788 57788 210
Width: 200
GlyphClass: 2
Flags: MW
HStem: 0 250<173 181.5 173 182>
VStem: 150 50<25 91 91 91 147 185 185 185>
Fore
25 125 m 0
 12 125 0 135 0 150 c 0
 0 159 5 168 14 172 c 2
 164 247 l 2
 167 249 171 250 175 250 c 0
 188 250 200 239 200 225 c 2
 200 25 l 2
 200 11 189 0 175 0 c 0
 161 0 150 11 150 25 c 2
 150 91 l 1
 36 34 l 2
 33 32 29 31 25 31 c 0
 12 31 0 42 0 56 c 0
 0 65 5 74 14 79 c 2
 150 147 l 1
 150 185 l 1
 36 128 l 2
 33 126 29 125 25 125 c 0
EndSplineSet
EndChar
StartChar: rests.M3mensural
Encoding: 57789 57789 211
Width: 75
GlyphClass: 2
Flags: MW
VStem: 1 73<-240 490 490 490>
Fore
74 510 m 1
 74 -240 l 1
 1 -260 l 1
 1 490 l 1
 74 510 l 1
EndSplineSet
EndChar
StartChar: rests.M2mensural
Encoding: 57790 57790 212
Width: 75
GlyphClass: 2
Flags: MW
VStem: 1 73<-240 240 240 240>
Fore
74 260 m 1
 74 -240 l 1
 1 -260 l 1
 1 240 l 1
 74 260 l 1
EndSplineSet
EndChar
StartChar: rests.M1mensural
Encoding: 57791 57791 213
Width: 75
GlyphClass: 2
Flags: MW
HStem: -10 270<1 74>
VStem: 1 73<10 240 240 240>
Fore
74 260 m 1
 74 10 l 1
 1 -10 l 1
 1 240 l 1
 74 260 l 1
EndSplineSet
EndChar
StartChar: rests.0mensural
Encoding: 57792 57792 214
Width: 75
GlyphClass: 2
Flags: MW
HStem: -166 176<1 74>
VStem: 1 73<-147 -10 -10 -10>
Fore
1 -166 m 1
 1 -10 l 1
 74 10 l 1
 74 -147 l 1
 1 -166 l 1
EndSplineSet
EndChar
StartChar: rests.1mensural
Encoding: 57793 57793 215
Width: 75
GlyphClass: 2
Flags: MW
HStem: -10 176<1 74>
VStem: 1 73<10 147 147 147>
Fore
74 166 m 1
 74 10 l 1
 1 -10 l 1
 1 147 l 1
 74 166 l 1
EndSplineSet
EndChar
StartChar: rests.2mensural
Encoding: 57794 57794 216
Width: 200
GlyphClass: 2
Flags: MW
HStem: -19 207<0 40>
VStem: 0 65<19 88 88 88>
Fore
40 188 m 1
 200 138 l 1
 135 100 l 1
 65 122 l 1
 65 19 l 1
 0 -19 l 1
 0 88 l 1
 -25 150 l 1
 40 188 l 1
EndSplineSet
EndChar
StartChar: rests.3mensural
Encoding: 57795 57795 217
Width: 200
GlyphClass: 2
Flags: MW
HStem: -19 207<105 135>
VStem: 135 65<19 88 88 88>
Fore
135 -19 m 1
 135 88 l 1
 62 136 l 1
 0 100 l 1
 40 150 l 1
 105 188 l 1
 200 125 l 1
 200 19 l 1
 135 -19 l 1
EndSplineSet
EndChar
StartChar: rests.4mensural
Encoding: 57796 57796 218
Width: 200
GlyphClass: 2
Flags: MW
HStem: -19 260<105 135>
VStem: 0 200<47 47 141 141>
Fore
105 147 m 1
 135 125 l 1
 135 134 l 1
 68 183 l 1
 65 178 l 1
 0 141 l 1
 40 203 l 1
 105 241 l 1
 200 172 l 1
 200 19 l 1
 135 -19 l 1
 135 41 l 1
 68 89 l 1
 65 84 l 1
 0 47 l 1
 40 109 l 1
 105 147 l 1
EndSplineSet
EndChar
StartChar: noteheads.slneomensural
Encoding: 57797 57797 219
Width: 501
GlyphClass: 2
Flags: MW
HStem: -138 100<51.5 440 60 440> 38 100<53 440 60 440>
VStem: 0 35<-738 -175 -19 -12 -12 13 165.5 175 175 181> 465 35<-181 -175 -175 -165.5 -12 13 13 19.5 165.5 175>
Fore
60 -38 m 2
 440 -38 l 2
 454 -38 465 -26 465 -12 c 2
 465 13 l 2
 465 26 454 38 440 38 c 2
 60 38 l 2
 46 38 35 26 35 13 c 2
 35 -12 l 2
 35 -26 46 -38 60 -38 c 2
440 -138 m 2
 60 -138 l 2
 43 -138 35 -156 35 -175 c 2
 35 -738 l 2
 35 -747 27 -755 18 -755 c 0
 8 -755 0 -747 0 -738 c 2
 0 175 l 2
 0 187 9 193 18 193 c 0
 26 193 35 187 35 175 c 0
 35 156 43 138 60 138 c 2
 440 138 l 2
 457 138 465 156 465 175 c 0
 465 187 474 193 482 193 c 0
 491 193 500 187 500 175 c 2
 500 -175 l 2
 500 -187 491 -193 482 -193 c 0
 474 -193 465 -187 465 -175 c 0
 465 -156 457 -138 440 -138 c 2
EndSplineSet
EndChar
StartChar: noteheads.sM3neomensural
Encoding: 57798 57798 220
Width: 652
GlyphClass: 2
Flags: MW
HStem: -138 100<51.5 590 60 590> 38 100<53 590 60 590>
VStem: 0 35<-175 -165.5 -19 -12 -12 13 165.5 175 175 181> 615 35<-176 175 -175 -165.5 -12 13 13 19.5 165.5 175 -175 181> 629 42<-426 -426>
Fore
60 -38 m 2xf0
 590 -38 l 2
 604 -38 615 -26 615 -12 c 2
 615 13 l 2
 615 26 604 38 590 38 c 2
 60 38 l 2
 46 38 35 26 35 13 c 2
 35 -12 l 2
 35 -26 46 -38 60 -38 c 2xf0
590 -138 m 2
 60 -138 l 2
 43 -138 35 -156 35 -175 c 0
 35 -187 26 -193 18 -193 c 0
 9 -193 0 -187 0 -175 c 2
 0 175 l 2
 0 187 9 193 18 193 c 0
 26 193 35 187 35 175 c 0
 35 156 43 138 60 138 c 2
 590 138 l 2
 607 138 615 156 615 175 c 0
 615 187 624 193 632 193 c 0
 641 193 650 187 650 175 c 2
 650 -175 l 2xf0
 658 -258 671 -417 671 -425 c 0xe8
 671 -439 660 -446 650 -446 c 0xf0
 640 -446 630 -440 629 -426 c 2xe8
 615 -176 l 1
 615 -175 l 2
 615 -156 607 -138 590 -138 c 2
EndSplineSet
EndChar
StartChar: noteheads.sM2neomensural
Encoding: 57799 57799 221
Width: 501
GlyphClass: 2
Flags: MW
HStem: -138 100<51.5 440 60 440> 38 100<53 440 60 440>
VStem: 0 35<-175 -165.5 -19 -12 -12 13 165.5 175 175 181> 465 35<-176 175 -175 -165.5 -12 13 13 19.5 165.5 175 -175 181> 479 42<-426 -426>
Fore
60 -38 m 2xf0
 440 -38 l 2
 454 -38 465 -26 465 -12 c 2
 465 13 l 2
 465 26 454 38 440 38 c 2
 60 38 l 2
 46 38 35 26 35 13 c 2
 35 -12 l 2
 35 -26 46 -38 60 -38 c 2xf0
440 -138 m 2
 60 -138 l 2
 43 -138 35 -156 35 -175 c 0
 35 -187 26 -193 18 -193 c 0
 9 -193 0 -187 0 -175 c 2
 0 175 l 2
 0 187 9 193 18 193 c 0
 26 193 35 187 35 175 c 0
 35 156 43 138 60 138 c 2
 440 138 l 2
 457 138 465 156 465 175 c 0
 465 187 474 193 482 193 c 0
 491 193 500 187 500 175 c 2
 500 -175 l 2xf0
 508 -258 521 -417 521 -425 c 0xe8
 521 -439 510 -446 500 -446 c 0xf0
 490 -446 480 -440 479 -426 c 2xe8
 465 -176 l 1
 465 -175 l 2
 465 -156 457 -138 440 -138 c 2
EndSplineSet
EndChar
StartChar: noteheads.sM1neomensural
Encoding: 57800 57800 222
Width: 501
GlyphClass: 2
Flags: MW
HStem: -138 100<51.5 440 60 440> 38 100<53 440 60 440>
VStem: 0 35<-175 -165.5 -19 -12 -12 13 165.5 175 175 181> 465 35<-181 -175 -175 -165.5 -12 13 13 19.5 165.5 175>
Fore
60 -38 m 2
 440 -38 l 2
 454 -38 465 -26 465 -12 c 2
 465 13 l 2
 465 26 454 38 440 38 c 2
 60 38 l 2
 46 38 35 26 35 13 c 2
 35 -12 l 2
 35 -26 46 -38 60 -38 c 2
440 -138 m 2
 60 -138 l 2
 43 -138 35 -156 35 -175 c 0
 35 -187 26 -193 18 -193 c 0
 9 -193 0 -187 0 -175 c 2
 0 175 l 2
 0 187 9 193 18 193 c 0
 26 193 35 187 35 175 c 0
 35 156 43 138 60 138 c 2
 440 138 l 2
 457 138 465 156 465 175 c 0
 465 187 474 193 482 193 c 0
 491 193 500 187 500 175 c 2
 500 -175 l 2
 500 -187 491 -193 482 -193 c 0
 474 -193 465 -187 465 -175 c 0
 465 -156 457 -138 440 -138 c 2
EndSplineSet
EndChar
StartChar: noteheads.s0harmonic
Encoding: 57801 57801 223
Width: 326
GlyphClass: 2
Flags: MW
HStem: -179 358<161 163.5>
VStem: 3 319<-7 -7 -7 7>
Fore
73 36 m 1
 195 -99 l 1
 252 -36 l 1
 130 99 l 1
 73 36 l 1
3 -7 m 2
 1 -5 0 -2 0 0 c 0
 0 2 1 5 3 7 c 2
 155 175 l 2
 157 178 160 179 162 179 c 0
 165 179 168 178 170 175 c 2
 322 7 l 2
 324 5 325 2 325 0 c 0
 325 -2 324 -5 322 -7 c 2
 170 -175 l 2
 168 -178 165 -179 162 -179 c 0
 160 -179 157 -178 155 -175 c 2
 3 -7 l 2
EndSplineSet
EndChar
StartChar: noteheads.s2harmonic
Encoding: 57802 57802 224
Width: 326
GlyphClass: 2
Flags: MW
HStem: -179 358<161 163.5>
VStem: 3 319<-7 -7 -7 7>
Fore
3 -7 m 2
 1 -5 0 -2 0 0 c 0
 0 2 1 5 3 7 c 2
 155 175 l 2
 157 178 160 179 162 179 c 0
 165 179 168 178 170 175 c 2
 322 7 l 2
 324 5 325 2 325 0 c 0
 325 -2 324 -5 322 -7 c 2
 170 -175 l 2
 168 -178 165 -179 162 -179 c 0
 160 -179 157 -178 155 -175 c 2
 3 -7 l 2
EndSplineSet
EndChar
StartChar: noteheads.s0neomensural
Encoding: 57803 57803 225
Width: 250
GlyphClass: 2
Flags: MW
HStem: -138 276<123.5 126.5>
VStem: 3 244<-7 -7 -7 7>
Fore
61 23 m 1
 146 -71 l 1
 189 -23 l 1
 104 71 l 1
 61 23 l 1
3 -7 m 2
 1 -5 0 -2 0 0 c 0
 0 2 1 5 3 7 c 2
 118 134 l 1
 119 136 122 138 125 138 c 0
 128 138 131 136 132 134 c 1
 247 7 l 2
 249 5 250 2 250 0 c 0
 250 -2 249 -5 247 -7 c 2
 132 -134 l 1
 131 -136 128 -138 125 -138 c 0
 122 -138 119 -136 118 -134 c 1
 3 -7 l 2
EndSplineSet
EndChar
StartChar: noteheads.s1neomensural
Encoding: 57804 57804 226
Width: 250
GlyphClass: 2
Flags: MW
HStem: -138 276<123.5 126.5>
VStem: 3 244<-7 -7 -7 7>
Fore
61 23 m 1
 146 -71 l 1
 189 -23 l 1
 104 71 l 1
 61 23 l 1
3 -7 m 2
 1 -5 0 -2 0 0 c 0
 0 2 1 5 3 7 c 2
 118 134 l 1
 119 136 122 138 125 138 c 0
 128 138 131 136 132 134 c 1
 247 7 l 2
 249 5 250 2 250 0 c 0
 250 -2 249 -5 247 -7 c 2
 132 -134 l 1
 131 -136 128 -138 125 -138 c 0
 122 -138 119 -136 118 -134 c 1
 3 -7 l 2
EndSplineSet
EndChar
StartChar: noteheads.s2neomensural
Encoding: 57805 57805 227
Width: 250
GlyphClass: 2
Flags: MW
HStem: -138 276<123.5 126.5>
VStem: 3 244<-7 -7 -7 7>
Fore
3 -7 m 2
 1 -5 0 -2 0 0 c 0
 0 2 1 5 3 7 c 2
 118 134 l 1
 119 136 122 138 125 138 c 0
 128 138 131 136 132 134 c 1
 247 7 l 2
 249 5 250 2 250 0 c 0
 250 -2 249 -5 247 -7 c 2
 132 -134 l 1
 131 -136 128 -138 125 -138 c 0
 122 -138 119 -136 118 -134 c 1
 3 -7 l 2
EndSplineSet
EndChar
StartChar: noteheads.slmensural
Encoding: 57806 57806 228
Width: 250
GlyphClass: 2
Flags: MW
HStem: -138 100<51.5 190 60 190> 38 100<53 190 60 190>
VStem: 0 35<-738 -175 -19 -12 -12 13 165.5 175 175 181> 215 35<-181 -175 -175 -165.5 -12 13 13 19.5 165.5 175>
Fore
60 -38 m 2
 190 -38 l 2
 204 -38 215 -26 215 -12 c 2
 215 13 l 2
 215 26 204 38 190 38 c 2
 60 38 l 2
 46 38 35 26 35 13 c 2
 35 -12 l 2
 35 -26 46 -38 60 -38 c 2
190 -138 m 2
 60 -138 l 2
 43 -138 35 -156 35 -175 c 2
 35 -738 l 2
 35 -747 27 -755 18 -755 c 0
 8 -755 0 -747 0 -738 c 2
 0 -175 l 1
 0 175 l 2
 0 187 9 193 18 193 c 0
 26 193 35 187 35 175 c 0
 35 156 43 138 60 138 c 2
 190 138 l 2
 207 138 215 156 215 175 c 0
 215 187 224 193 232 193 c 0
 241 193 250 187 250 175 c 2
 250 -175 l 2
 250 -187 241 -193 232 -193 c 0
 224 -193 215 -187 215 -175 c 0
 215 -156 207 -138 190 -138 c 2
EndSplineSet
EndChar
StartChar: noteheads.sM3mensural
Encoding: 57807 57807 229
Width: 501
GlyphClass: 2
Flags: MW
HStem: -138 100<51.5 440 60 440> 38 100<53 440 60 440>
VStem: 0 35<-175 -165.5 -19 -12 -12 13 165.5 175 175 181> 465 35<-738 -175 -175 -165.5 -12 13 13 19.5 165.5 175>
Fore
60 -38 m 2
 440 -38 l 2
 454 -38 465 -26 465 -12 c 2
 465 13 l 2
 465 26 454 38 440 38 c 2
 60 38 l 2
 46 38 35 26 35 13 c 2
 35 -12 l 2
 35 -26 46 -38 60 -38 c 2
440 -138 m 2
 60 -138 l 2
 43 -138 35 -156 35 -175 c 0
 35 -187 26 -193 18 -193 c 0
 9 -193 0 -187 0 -175 c 2
 0 175 l 2
 0 187 9 193 18 193 c 0
 26 193 35 187 35 175 c 0
 35 156 43 138 60 138 c 2
 440 138 l 2
 457 138 465 156 465 175 c 0
 465 187 474 193 482 193 c 0
 491 193 500 187 500 175 c 2
 500 -738 l 2
 500 -747 492 -755 482 -755 c 0
 473 -755 465 -747 465 -738 c 2
 465 -175 l 2
 465 -156 457 -138 440 -138 c 2
EndSplineSet
EndChar
StartChar: noteheads.sM2mensural
Encoding: 57808 57808 230
Width: 250
GlyphClass: 2
Flags: MW
HStem: -138 100<51.5 190 60 190> 38 100<53 190 60 190>
VStem: 0 35<-175 -165.5 -19 -12 -12 13 165.5 175 175 181> 215 35<-738 -175 -175 -165.5 -12 13 13 19.5 165.5 175>
Fore
60 -38 m 2
 190 -38 l 2
 204 -38 215 -26 215 -12 c 2
 215 13 l 2
 215 26 204 38 190 38 c 2
 60 38 l 2
 46 38 35 26 35 13 c 2
 35 -12 l 2
 35 -26 46 -38 60 -38 c 2
190 -138 m 2
 60 -138 l 2
 43 -138 35 -156 35 -175 c 0
 35 -187 26 -193 18 -193 c 0
 9 -193 0 -187 0 -175 c 2
 0 175 l 2
 0 187 9 193 18 193 c 0
 26 193 35 187 35 175 c 0
 35 156 43 138 60 138 c 2
 190 138 l 2
 207 138 215 156 215 175 c 0
 215 187 224 193 232 193 c 0
 241 193 250 187 250 175 c 2
 250 -738 l 2
 250 -747 242 -755 232 -755 c 0
 223 -755 215 -747 215 -738 c 2
 215 -175 l 2
 215 -156 207 -138 190 -138 c 2
EndSplineSet
EndChar
StartChar: noteheads.sM1mensural
Encoding: 57809 57809 231
Width: 250
GlyphClass: 2
Flags: MW
HStem: -138 100<51.5 190 60 190> 38 100<53 190 60 190>
VStem: 0 35<-175 -165.5 -19 -12 -12 13 165.5 175 175 181> 215 35<-181 -175 -175 -165.5 -12 13 13 19.5 165.5 175>
Fore
60 -38 m 2
 190 -38 l 2
 204 -38 215 -26 215 -12 c 2
 215 13 l 2
 215 26 204 38 190 38 c 2
 60 38 l 2
 46 38 35 26 35 13 c 2
 35 -12 l 2
 35 -26 46 -38 60 -38 c 2
190 -138 m 2
 60 -138 l 2
 43 -138 35 -156 35 -175 c 0
 35 -187 26 -193 18 -193 c 0
 9 -193 0 -187 0 -175 c 2
 0 175 l 2
 0 187 9 193 18 193 c 0
 26 193 35 187 35 175 c 0
 35 156 43 138 60 138 c 2
 190 138 l 2
 207 138 215 156 215 175 c 0
 215 187 224 193 232 193 c 0
 241 193 250 187 250 175 c 2
 250 -175 l 2
 250 -187 241 -193 232 -193 c 0
 224 -193 215 -187 215 -175 c 0
 215 -156 207 -138 190 -138 c 2
EndSplineSet
EndChar
StartChar: noteheads.s0mensural
Encoding: 57810 57810 232
Width: 144
GlyphClass: 2
Flags: MW
HStem: -122 247<59 81.5>
VStem: 1 143<-16 12>
Fore
67 74 m 1
 32 9 l 1
 77 -74 l 1
 113 -9 l 1
 67 74 l 1
1 -16 m 2
 0 -15 0 -13 0 -11 c 0
 0 -5 2 1 4 5 c 0
 70 124 69 125 80 125 c 0
 83 125 84 124 85 122 c 2
 143 16 l 2
 144 15 144 13 144 11 c 0
 144 5 142 -1 140 -5 c 0
 75 -124 76 -125 64 -125 c 0
 62 -125 60 -124 59 -122 c 2
 1 -16 l 2
EndSplineSet
EndChar
StartChar: noteheads.s1mensural
Encoding: 57811 57811 233
Width: 144
GlyphClass: 2
Flags: MW
HStem: -122 247<59 81.5>
VStem: 1 143<-16 12>
Fore
67 74 m 1
 32 9 l 1
 77 -74 l 1
 113 -9 l 1
 67 74 l 1
1 -16 m 2
 0 -15 0 -13 0 -11 c 0
 0 -5 2 1 4 5 c 0
 70 124 69 125 80 125 c 0
 83 125 84 124 85 122 c 2
 143 16 l 2
 144 15 144 13 144 11 c 0
 144 5 142 -1 140 -5 c 0
 75 -124 76 -125 64 -125 c 0
 62 -125 60 -124 59 -122 c 2
 1 -16 l 2
EndSplineSet
EndChar
StartChar: noteheads.s2mensural
Encoding: 57812 57812 234
Width: 144
GlyphClass: 2
Flags: MW
HStem: -122 247<59 81.5>
VStem: 1 143<-16 12>
Fore
1 -16 m 2
 0 -15 0 -13 0 -11 c 0
 0 -5 2 1 4 5 c 0
 70 124 69 125 80 125 c 0
 83 125 84 124 85 122 c 2
 143 16 l 2
 144 15 144 13 144 11 c 0
 144 5 142 -1 140 -5 c 0
 75 -124 76 -125 64 -125 c 0
 62 -125 60 -124 59 -122 c 2
 1 -16 l 2
EndSplineSet
EndChar
StartChar: noteheads.s0petrucci
Encoding: 57813 57813 235
Width: 250
GlyphClass: 2
Flags: MW
HStem: -225 450<123 127>
VStem: 1 248<-5 -5 -5 5>
Fore
57 48 m 1
 151 -127 l 1
 193 -48 l 1
 99 127 l 1
 57 48 l 1
1 -5 m 2
 0 -3 0 -2 0 0 c 0
 0 2 0 3 1 5 c 2
 116 220 l 2
 118 223 121 225 125 225 c 0
 129 225 132 223 134 220 c 2
 249 5 l 2
 250 3 250 2 250 0 c 0
 250 -2 250 -3 249 -5 c 2
 134 -220 l 2
 132 -223 129 -225 125 -225 c 0
 121 -225 118 -223 116 -220 c 2
 1 -5 l 2
EndSplineSet
EndChar
StartChar: noteheads.s1petrucci
Encoding: 57814 57814 236
Width: 250
GlyphClass: 2
Flags: MW
HStem: -225 450<123 127>
VStem: 1 248<-5 -5 -5 5>
Fore
57 48 m 1
 151 -127 l 1
 193 -48 l 1
 99 127 l 1
 57 48 l 1
1 -5 m 2
 0 -3 0 -2 0 0 c 0
 0 2 0 3 1 5 c 2
 116 220 l 2
 118 223 121 225 125 225 c 0
 129 225 132 223 134 220 c 2
 249 5 l 2
 250 3 250 2 250 0 c 0
 250 -2 250 -3 249 -5 c 2
 134 -220 l 2
 132 -223 129 -225 125 -225 c 0
 121 -225 118 -223 116 -220 c 2
 1 -5 l 2
EndSplineSet
EndChar
StartChar: noteheads.s2petrucci
Encoding: 57815 57815 237
Width: 250
GlyphClass: 2
Flags: MW
HStem: -225 450<123 127>
VStem: 1 248<-5 -5 -5 5>
Fore
1 -5 m 2
 0 -3 0 -2 0 0 c 0
 0 2 0 3 1 5 c 2
 116 220 l 2
 118 223 121 225 125 225 c 0
 129 225 132 223 134 220 c 2
 249 5 l 2
 250 3 250 2 250 0 c 0
 250 -2 250 -3 249 -5 c 2
 134 -220 l 2
 132 -223 129 -225 125 -225 c 0
 121 -225 118 -223 116 -220 c 2
 1 -5 l 2
EndSplineSet
EndChar
StartChar: noteheads.svaticana.punctum
Encoding: 57816 57816 238
Width: 139
GlyphClass: 2
Flags: MW
HStem: -81 168<9.5 79 59.5 129.5>
VStem: 0 139<-68 61 -71.5 70>
Fore
13 -81 m 0
 6 -81 0 -75 0 -68 c 2
 0 61 l 2
 0 79 50 87 69 87 c 0
 89 87 139 79 139 61 c 2
 139 -68 l 2
 139 -75 133 -81 126 -81 c 0
 121 -81 103 -67 69 -67 c 0
 35 -67 18 -81 13 -81 c 0
EndSplineSet
EndChar
StartChar: noteheads.svaticana.punctum.cavum
Encoding: 57817 57817 239
Width: 139
GlyphClass: 2
Flags: MW
HStem: -67 25<61.5 76.5 61.5 86> 62 25<61.5 77>
VStem: 0 25<-49 -49 -49 53> 114 25<-49 53 53 53>
Fore
25 -49 m 1
 39 -44 54 -42 69 -42 c 0
 84 -42 99 -44 114 -49 c 1
 114 53 l 1
 100 59 85 62 69 62 c 0
 54 62 39 59 25 53 c 1
 25 -49 l 1
13 -81 m 0
 6 -81 0 -75 0 -68 c 2
 0 61 l 2
 0 79 50 87 69 87 c 0
 89 87 139 79 139 61 c 2
 139 -68 l 2
 139 -75 133 -81 126 -81 c 0
 121 -81 103 -67 69 -67 c 0
 35 -67 18 -81 13 -81 c 0
EndSplineSet
EndChar
StartChar: noteheads.svaticana.linea.punctum
Encoding: 57818 57818 240
Width: 220
GlyphClass: 2
Flags: MW
HStem: -81 168<49.5 120 100 170>
VStem: 0 15<-89 89> 41 138<-68 61 -71.5 70> 205 15<-89 89>
Fore
220 -89 m 2
 220 -93 216 -96 212 -96 c 0
 208 -96 205 -93 205 -89 c 2
 205 89 l 2
 205 93 208 96 212 96 c 0
 216 96 220 93 220 89 c 2
 220 -89 l 2
15 -89 m 2
 15 -93 12 -96 8 -96 c 0
 3 -96 0 -93 0 -89 c 2
 0 89 l 2
 0 93 3 96 8 96 c 0
 12 96 15 93 15 89 c 2
 15 -89 l 2
53 -81 m 0
 46 -81 41 -75 41 -68 c 2
 41 61 l 2
 41 79 90 87 110 87 c 0
 130 87 179 79 179 61 c 2
 179 -68 l 2
 179 -75 173 -81 167 -81 c 0
 161 -81 144 -67 110 -67 c 0
 76 -67 59 -81 53 -81 c 0
EndSplineSet
EndChar
StartChar: noteheads.svaticana.linea.punctum.cavum
Encoding: 57819 57819 241
Width: 220
GlyphClass: 2
Flags: MW
HStem: -67 25<102.5 117.5 102.5 127> 62 25<102.5 117.5>
VStem: 0 15<-89 89> 41 25<-49 -49 -49 53> 154 25<-49 53 53 53> 205 15<-89 89>
Fore
220 -89 m 2
 220 -93 216 -96 212 -96 c 0
 208 -96 205 -93 205 -89 c 2
 205 89 l 2
 205 93 208 96 212 96 c 0
 216 96 220 93 220 89 c 2
 220 -89 l 2
15 -89 m 2
 15 -93 12 -96 8 -96 c 0
 3 -96 0 -93 0 -89 c 2
 0 89 l 2
 0 93 3 96 8 96 c 0
 12 96 15 93 15 89 c 2
 15 -89 l 2
66 -49 m 1
 80 -44 95 -42 110 -42 c 0
 125 -42 140 -44 154 -49 c 1
 154 53 l 1
 140 59 125 62 110 62 c 0
 95 62 80 59 66 53 c 1
 66 -49 l 1
53 -81 m 0
 46 -81 41 -75 41 -68 c 2
 41 61 l 2
 41 79 90 87 110 87 c 0
 130 87 179 79 179 61 c 2
 179 -68 l 2
 179 -75 173 -81 167 -81 c 0
 161 -81 144 -67 110 -67 c 0
 76 -67 59 -81 53 -81 c 0
EndSplineSet
EndChar
StartChar: noteheads.svaticana.inclinatum
Encoding: 57820 57820 242
Width: 154
GlyphClass: 2
Flags: MW
HStem: -110 220<75.5 78.5>
VStem: 2 150<-6 -6 -6 6>
Fore
2 -6 m 2
 0 -4 0 -2 0 0 c 0
 0 2 1 4 2 6 c 2
 69 106 l 2
 71 108 74 110 77 110 c 0
 80 110 83 108 85 106 c 2
 152 6 l 2
 154 4 154 2 154 0 c 0
 154 -2 153 -4 152 -6 c 2
 85 -106 l 2
 83 -108 80 -110 77 -110 c 0
 74 -110 71 -108 69 -106 c 2
 2 -6 l 2
EndSplineSet
EndChar
StartChar: noteheads.svaticana.lpes
Encoding: 57821 57821 243
Width: 139
GlyphClass: 2
Flags: MW
HStem: -79 157<9.5 99>
VStem: 0 139<-64 65 -70 68.5>
Fore
139 -64 m 2
 139 -76 129 -79 69 -79 c 0
 9 -79 0 -76 0 -64 c 2
 0 65 l 2
 0 72 6 78 13 78 c 0
 18 78 35 75 69 75 c 0
 103 75 121 78 126 78 c 0
 133 78 139 72 139 65 c 2
 139 -64 l 2
EndSplineSet
EndChar
StartChar: noteheads.svaticana.vlpes
Encoding: 57822 57822 244
Width: 139
GlyphClass: 2
Flags: MW
HStem: -109 157<9.5 99>
VStem: 0 139<-94 35 -100 38.5>
Fore
139 -94 m 2
 139 -106 129 -109 69 -109 c 0
 9 -109 0 -106 0 -94 c 2
 0 35 l 2
 0 42 6 48 13 48 c 0
 18 48 35 45 69 45 c 0
 103 45 121 48 126 48 c 0
 133 48 139 42 139 35 c 2
 139 -94 l 2
EndSplineSet
EndChar
StartChar: noteheads.svaticana.upes
Encoding: 57823 57823 245
Width: 139
GlyphClass: 2
Flags: MW
HStem: -78 157<9.5 99.5 39 129.5>
VStem: 0 139<-65 64 -68.5 70>
Fore
13 -78 m 0
 6 -78 0 -72 0 -65 c 2
 0 64 l 2
 0 76 9 79 69 79 c 0
 130 79 139 76 139 64 c 2
 139 -65 l 2
 139 -72 133 -78 126 -78 c 0
 121 -78 103 -75 69 -75 c 0
 35 -75 18 -78 13 -78 c 0
EndSplineSet
EndChar
StartChar: noteheads.svaticana.vupes
Encoding: 57824 57824 246
Width: 139
GlyphClass: 2
Flags: MW
HStem: -56 157<9.5 99.5 39 129.5>
VStem: 0 139<-43 86 -46.5 92>
Fore
13 -56 m 0
 6 -56 0 -50 0 -43 c 2
 0 86 l 2
 0 98 9 101 69 101 c 0
 130 101 139 98 139 86 c 2
 139 -43 l 2
 139 -50 133 -56 126 -56 c 0
 121 -56 103 -53 69 -53 c 0
 35 -53 18 -56 13 -56 c 0
EndSplineSet
EndChar
StartChar: noteheads.svaticana.plica
Encoding: 57825 57825 247
Width: 83
GlyphClass: 2
Flags: MW
HStem: -53 110<9.5 45.5 38 74>
VStem: 0 83<-41 37 -44.5 45>
Fore
13 -53 m 0
 6 -53 0 -48 0 -41 c 2
 0 37 l 2
 0 53 34 57 42 57 c 0
 49 57 83 53 83 37 c 2
 83 -41 l 2
 83 -48 77 -53 71 -53 c 0
 64 -53 58 -45 42 -45 c 0
 25 -45 19 -53 13 -53 c 0
EndSplineSet
EndChar
StartChar: noteheads.svaticana.vplica
Encoding: 57826 57826 248
Width: 83
GlyphClass: 2
Flags: MW
HStem: -57 103<32.5 50.5 31 58.5>
VStem: 0 83<-46 -41 -41 16 16 22>
Fore
13 -74 m 0
 6 -74 0 -68 0 -61 c 2
 0 16 l 2
 0 28 20 46 42 46 c 0
 59 46 68 49 71 49 c 0
 77 49 83 43 83 36 c 2
 83 -41 l 2
 83 -51 75 -57 42 -57 c 0
 23 -57 25 -74 13 -74 c 0
EndSplineSet
EndChar
StartChar: noteheads.svaticana.epiphonus
Encoding: 57827 57827 249
Width: 139
GlyphClass: 2
Flags: MW
HStem: -93 155
VStem: 0 25<95.5 102 102 105.5> 0 139<-27 82 -56 102>
Fore
20 -93 m 0xa0
 4 -93 0 -56 0 -27 c 2xa0
 0 102 l 2
 0 109 6 115 13 115 c 0
 19 115 25 109 25 102 c 0xc0
 25 89 27 75 30 62 c 1
 89 65 117 94 126 94 c 0
 133 94 139 89 139 82 c 2
 139 -47 l 2
 139 -65 73 -93 20 -93 c 0xa0
EndSplineSet
EndChar
StartChar: noteheads.svaticana.vepiphonus
Encoding: 57828 57828 250
Width: 139
GlyphClass: 2
Flags: MW
HStem: -123 154
VStem: 0 25<65 72 72 75.5> 0 139<-57 52 -86.5 72>
Fore
20 -123 m 0xa0
 4 -123 0 -86 0 -57 c 2xa0
 0 72 l 2
 0 79 6 85 13 85 c 0
 19 85 25 79 25 72 c 0xc0
 25 58 27 45 30 31 c 1
 89 35 117 64 126 64 c 0
 133 64 139 58 139 52 c 2
 139 -78 l 2
 139 -95 73 -123 20 -123 c 0xa0
EndSplineSet
EndChar
StartChar: noteheads.svaticana.reverse.plica
Encoding: 57829 57829 251
Width: 83
GlyphClass: 2
Flags: MW
HStem: -57 110<9.5 45.5>
VStem: 0 83<-37 41 -45 44.5>
Fore
83 -37 m 2
 83 -53 49 -57 42 -57 c 0
 34 -57 0 -53 0 -37 c 2
 0 41 l 2
 0 48 6 53 13 53 c 0
 20 53 25 45 42 45 c 0
 58 45 64 53 71 53 c 0
 77 53 83 48 83 41 c 2
 83 -37 l 2
EndSplineSet
EndChar
StartChar: noteheads.svaticana.reverse.vplica
Encoding: 57830 57830 252
Width: 83
GlyphClass: 2
Flags: MW
HStem: -82 103<32.5 50.5>
VStem: 0 83<-53 5 -76 25>
Fore
42 -82 m 0
 20 -82 0 -64 0 -53 c 2
 0 25 l 2
 0 31 6 37 12 37 c 0
 25 37 23 21 42 21 c 0
 75 21 83 14 83 5 c 2
 83 -73 l 2
 83 -79 77 -85 71 -85 c 0
 68 -85 59 -82 42 -82 c 0
EndSplineSet
EndChar
StartChar: noteheads.svaticana.inner.cephalicus
Encoding: 57831 57831 253
Width: 139
GlyphClass: 2
Flags: MW
HStem: -62 155
VStem: 0 25<-102 -95.5 -105.5 27> 0 139<-85 -82 -82 27 27 40.5>
Fore
13 -115 m 0xc0
 6 -115 0 -109 0 -102 c 2xc0
 0 27 l 2
 0 54 4 93 20 93 c 0
 71 93 139 66 139 47 c 2
 139 -82 l 2xa0
 139 -88 133 -94 126 -94 c 0
 117 -94 89 -65 30 -62 c 1
 27 -75 25 -89 25 -102 c 0
 25 -109 19 -115 13 -115 c 0xc0
EndSplineSet
EndChar
StartChar: noteheads.svaticana.cephalicus
Encoding: 57832 57832 254
Width: 139
GlyphClass: 2
Flags: MW
HStem: -62 155
VStem: 0 15<-308 -115> 0 25<-105 -95.5 -105 27>
Fore
25 -102 m 0xa0
 25 -108 20 -114 15 -115 c 1
 15 -308 l 2
 15 -312 12 -315 8 -315 c 0
 3 -315 0 -312 0 -308 c 2xc0
 0 27 l 2
 0 54 4 93 20 93 c 0
 71 93 139 66 139 47 c 2
 139 -82 l 2
 139 -88 133 -94 126 -94 c 0
 117 -94 89 -65 30 -62 c 1
 27 -75 25 -89 25 -102 c 0xa0
EndSplineSet
EndChar
StartChar: noteheads.svaticana.quilisma
Encoding: 57833 57833 255
Width: 139
GlyphClass: 2
Flags: MW
HStem: -98 197<34 122>
VStem: 0 139<-17.5 -9.5>
Fore
48 -59 m 1
 47 -73 43 -99 36 -99 c 1
 36 -99 35 -99 34 -98 c 2
 10 -76 l 2
 3 -69 0 -40 0 -16 c 0
 0 -3 3 44 13 44 c 1
 13 44 14 44 15 43 c 2
 28 31 l 1
 30 55 35 69 40 69 c 1
 40 69 41 68 42 68 c 1
 71 45 l 1
 73 69 78 83 83 83 c 1
 84 82 l 1
 108 64 l 1
 110 87 115 99 120 99 c 0
 124 99 128 88 130 71 c 2
 137 22 l 2
 138 12 139 1 139 -11 c 0
 139 -24 136 -71 126 -71 c 2
 124 -71 l 1
 94 -48 l 1
 92 -72 87 -85 83 -85 c 2
 81 -85 l 1
 48 -59 l 1
EndSplineSet
EndChar
StartChar: noteheads.ssolesmes.incl.parvum
Encoding: 57834 57834 256
Width: 96
GlyphClass: 2
Flags: MW
HStem: -69 138<46.5 49.5>
VStem: 2 93<-5 -5 -5 5>
Fore
2 -5 m 1
 0 -4 0 -2 0 0 c 0
 0 2 1 4 2 5 c 2
 40 64 l 2
 42 67 45 69 48 69 c 0
 51 69 55 67 57 64 c 2
 95 5 l 2
 96 4 96 2 96 0 c 0
 96 -2 96 -4 95 -5 c 2
 56 -64 l 2
 54 -67 51 -69 48 -69 c 0
 45 -69 42 -67 40 -64 c 2
 2 -5 l 1
EndSplineSet
EndChar
StartChar: noteheads.ssolesmes.auct.asc
Encoding: 57835 57835 257
Width: 139
GlyphClass: 2
Flags: MW
HStem: -83 154<56 83.5 52 90.5>
VStem: 0 139<-17 6 6 67 67 70> 114 25<119 135>
Fore
69 -83 m 0xc0
 43 -83 0 -79 0 -63 c 2
 0 67 l 2xc0
 0 73 6 79 13 79 c 0
 18 79 35 71 69 71 c 0
 98 71 114 103 114 135 c 0
 114 142 120 148 126 148 c 0
 133 148 139 142 139 135 c 2xa0
 139 6 l 2
 139 -40 112 -83 69 -83 c 0xc0
EndSplineSet
EndChar
StartChar: noteheads.ssolesmes.auct.desc
Encoding: 57836 57836 258
Width: 139
GlyphClass: 2
Flags: MW
HStem: -79 162<9.5 90.5>
VStem: 0 139<-67 -6 -138.5 63> 114 25<-138.5 -135 -135 -119>
Fore
13 -79 m 0xa0
 6 -79 0 -73 0 -67 c 2
 0 63 l 2
 0 79 43 83 69 83 c 0
 112 83 139 40 139 -6 c 2xc0
 139 -135 l 2
 139 -142 133 -148 126 -148 c 0
 120 -148 114 -142 114 -135 c 0
 114 -103 98 -71 69 -71 c 0
 35 -71 18 -79 13 -79 c 0xa0
EndSplineSet
EndChar
StartChar: noteheads.ssolesmes.incl.auctum
Encoding: 57837 57837 259
Width: 154
GlyphClass: 2
Flags: MW
HStem: -122 25<31 47.5 31 55>
VStem: -13 165<-88.5 -6>
Fore
0 -72 m 0
 12 -72 17 -97 45 -97 c 0
 50 -97 55 -95 60 -93 c 1
 2 -6 l 2
 0 -2 -1 2 2 6 c 2
 69 106 l 2
 71 108 74 110 77 110 c 0
 80 110 83 108 85 106 c 2
 152 6 l 2
 154 4 154 2 154 0 c 0
 154 -2 153 -4 152 -6 c 2
 85 -106 l 2
 81 -112 65 -122 45 -122 c 0
 9 -122 -13 -92 -13 -85 c 0
 -13 -78 -7 -72 0 -72 c 0
EndSplineSet
EndChar
StartChar: noteheads.ssolesmes.stropha
Encoding: 57838 57838 260
Width: 154
GlyphClass: 2
Flags: MW
HStem: 12 98<6 78.5>
VStem: 6 146<-6 12>
Fore
69 106 m 2
 71 108 74 110 77 110 c 0
 80 110 83 108 85 106 c 2
 152 6 l 2
 154 4 154 2 154 0 c 0
 154 -2 153 -4 152 -6 c 2
 85 -106 l 2
 83 -108 80 -110 77 -110 c 0
 74 -110 71 -108 69 -106 c 2
 59 -92 l 1
 97 -89 50 11 6 12 c 1
 69 106 l 2
EndSplineSet
EndChar
StartChar: noteheads.ssolesmes.stropha.aucta
Encoding: 57839 57839 261
Width: 154
GlyphClass: 2
Flags: MW
HStem: -125 28<31 55>
VStem: -13 165<-89 -6>
Fore
0 -72 m 0
 12 -72 17 -97 45 -97 c 0
 110 -97 48 11 6 12 c 1
 69 106 l 2
 71 108 74 110 77 110 c 0
 80 110 83 108 85 106 c 2
 152 6 l 2
 154 4 154 2 154 0 c 0
 154 -2 153 -4 152 -6 c 2
 85 -106 l 2
 76 -119 62 -125 48 -125 c 0
 12 -125 -13 -93 -13 -85 c 0
 -13 -78 -7 -72 0 -72 c 0
EndSplineSet
EndChar
StartChar: noteheads.ssolesmes.oriscus
Encoding: 57840 57840 262
Width: 165
GlyphClass: 2
Flags: MW
HStem: -53 135<30.5 60>
VStem: 0 165<-13.5 13.5>
Fore
0 -14 m 0
 0 41 8 82 49 82 c 0
 77 82 91 53 119 53 c 0
 151 53 150 83 155 83 c 0
 163 83 165 29 165 14 c 0
 165 -41 158 -82 116 -82 c 0
 88 -82 74 -53 46 -53 c 0
 15 -53 15 -83 10 -83 c 0
 2 -83 0 -29 0 -14 c 0
EndSplineSet
EndChar
StartChar: noteheads.smedicaea.inclinatum
Encoding: 57841 57841 263
Width: 210
GlyphClass: 2
Flags: MW
HStem: -150 300<103.5 106.5>
VStem: 2 206<-6 -6 -6 6>
Fore
2 -6 m 2
 0 -4 0 -2 0 0 c 0
 0 2 1 4 2 6 c 2
 97 146 l 2
 99 148 102 150 105 150 c 0
 108 150 111 148 113 146 c 2
 208 6 l 2
 210 4 210 2 210 0 c 0
 210 -2 209 -4 208 -6 c 2
 113 -146 l 2
 111 -148 108 -150 105 -150 c 0
 102 -150 99 -148 97 -146 c 2
 2 -6 l 2
EndSplineSet
EndChar
StartChar: noteheads.smedicaea.punctum
Encoding: 57842 57842 264
Width: 200
GlyphClass: 2
Flags: MW
HStem: -125 250<6 190 10 190>
VStem: 0 200<-13 13>
Fore
10 -125 m 2
 2 -125 0 -26 0 0 c 0
 0 26 2 125 10 125 c 2
 190 125 l 2
 198 125 200 26 200 0 c 0
 200 -26 198 -125 190 -125 c 2
 10 -125 l 2
EndSplineSet
EndChar
StartChar: noteheads.smedicaea.rvirga
Encoding: 57843 57843 265
Width: 200
GlyphClass: 2
Flags: MW
HStem: -125 250<6 190 25 190 25 190>
VStem: 0 25<125 612 125 612 125 615.5>
Fore
10 -125 m 2
 2 -125 0 -26 0 0 c 2
 0 612 l 2
 0 619 6 625 12 625 c 0
 19 625 25 619 25 612 c 2
 25 125 l 1
 190 125 l 2
 198 125 200 26 200 0 c 0
 200 -26 198 -125 190 -125 c 2
 10 -125 l 2
EndSplineSet
EndChar
StartChar: noteheads.smedicaea.virga
Encoding: 57844 57844 266
Width: 200
GlyphClass: 2
Flags: MW
HStem: -125 250<25 190 25 25>
VStem: 0 25<-612 -125>
Fore
0 0 m 2
 0 26 2 125 10 125 c 2
 190 125 l 2
 198 125 200 26 200 0 c 0
 200 -26 198 -125 190 -125 c 2
 25 -125 l 1
 25 -612 l 2
 25 -619 19 -625 13 -625 c 0
 6 -625 0 -619 0 -612 c 2
 0 0 l 2
EndSplineSet
EndChar
StartChar: noteheads.shufnagel.punctum
Encoding: 57845 57845 267
Width: 358
GlyphClass: 2
Flags: MW
HStem: -123 246<173 173 173 184>
VStem: 0 357<-1.5 1.5 -2.5 2.5>
Fore
4 -8 m 2
 2 -6 0 -3 0 0 c 0
 0 5 3 8 4 8 c 1
 173 123 l 2
 175 124 177 125 179 125 c 0
 180 125 182 125 184 123 c 2
 353 8 l 2
 355 6 357 3 357 0 c 0
 357 -5 354 -8 353 -8 c 1
 184 -123 l 2
 182 -124 181 -125 179 -125 c 0
 177 -125 175 -125 173 -123 c 2
 4 -8 l 2
EndSplineSet
EndChar
StartChar: noteheads.shufnagel.virga
Encoding: 57846 57846 268
Width: 358
GlyphClass: 2
Flags: MW
VStem: 107 143<-282 -275 -275 -78>
Fore
109 -375 m 0
 108 -375 107 -375 107 -374 c 2
 107 -78 l 1
 4 -8 l 2
 2 -6 0 -3 0 0 c 0
 0 5 3 8 4 8 c 1
 173 123 l 2
 175 124 177 125 179 125 c 0
 180 125 182 125 184 123 c 2
 353 8 l 2
 355 6 357 3 357 0 c 0
 357 -5 354 -8 353 -8 c 1
 250 -78 l 1
 250 -275 l 2
 250 -289 130 -375 109 -375 c 0
EndSplineSet
EndChar
StartChar: noteheads.shufnagel.lpes
Encoding: 57847 57847 269
Width: 501
GlyphClass: 2
Flags: MW
HStem: -100 200<9 487 135 365>
Fore
487 100 m 2
 494 100 500 94 500 87 c 0
 500 85 499 82 498 80 c 2
 375 -95 l 2
 373 -98 369 -100 365 -100 c 2
 12 -100 l 2
 6 -100 0 -94 0 -87 c 0
 0 -85 1 -82 2 -80 c 2
 125 95 l 2
 127 98 131 100 135 100 c 2
 487 100 l 2
EndSplineSet
EndChar
StartChar: clefs.vaticana.do
Encoding: 57848 57848 270
Width: 125
GlyphClass: 2
Flags: MW
HStem: -200 150<60 83.5> 50 150<60 83.5 34.5 88.5>
VStem: 0 15<-14.5 14.5 -14.5 69>
Fore
76 50 m 0
 44 50 15 29 15 0 c 0
 15 -29 44 -50 76 -50 c 0
 101 -50 113 -36 118 -36 c 0
 124 -36 125 -95 125 -111 c 0
 125 -138 123 -182 118 -186 c 0
 106 -195 91 -200 76 -200 c 0
 31 -200 6 -159 2 -122 c 0
 1 -108 0 -89 0 -69 c 2
 0 69 l 2
 0 90 -7 200 76 200 c 0
 91 200 106 195 118 186 c 0
 123 182 125 138 125 111 c 0
 125 95 124 36 118 36 c 0
 113 36 101 50 76 50 c 0
EndSplineSet
EndChar
StartChar: clefs.vaticana.do_change
Encoding: 57849 57849 271
Width: 125
GlyphClass: 2
Flags: MW
HStem: -200 150<60 83.5> 50 150<60 83.5 34.5 88.5>
VStem: 0 15<-14.5 14.5 -14.5 69>
Fore
76 50 m 0
 44 50 15 29 15 0 c 0
 15 -29 44 -50 76 -50 c 0
 101 -50 113 -36 118 -36 c 0
 124 -36 125 -95 125 -111 c 0
 125 -138 123 -182 118 -186 c 0
 106 -195 91 -200 76 -200 c 0
 31 -200 6 -159 2 -122 c 0
 1 -108 0 -89 0 -69 c 2
 0 69 l 2
 0 90 -7 200 76 200 c 0
 91 200 106 195 118 186 c 0
 123 182 125 138 125 111 c 0
 125 95 124 36 118 36 c 0
 113 36 101 50 76 50 c 0
EndSplineSet
EndChar
StartChar: clefs.vaticana.fa
Encoding: 57850 57850 272
Width: 263
GlyphClass: 2
Flags: MW
HStem: -200 150<197.5 221.5> 50 150<197.5 221.5 172 225.5>
VStem: 110 15<-367 -69 -69 -69> 137 15<-14.5 14.5 -14.5 69>
Fore
213 50 m 0
 182 50 152 29 152 0 c 0
 152 -29 182 -50 213 -50 c 0
 238 -50 251 -36 255 -36 c 0
 261 -36 262 -95 262 -111 c 0
 262 -138 261 -182 256 -186 c 0
 243 -195 229 -200 214 -200 c 0
 169 -200 143 -159 140 -122 c 0
 138 -108 137 -89 137 -69 c 2
 137 69 l 2
 137 90 130 200 214 200 c 0
 229 200 243 195 256 186 c 1
 260 182 262 138 262 111 c 0
 262 95 261 36 255 36 c 0
 251 36 238 50 213 50 c 0
7 -62 m 0
 1 -62 0 -13 0 0 c 0
 0 9 0 58 7 62 c 0
 21 71 38 75 54 75 c 0
 77 75 100 67 118 50 c 0
 123 45 125 10 125 -12 c 2
 125 -367 l 2
 125 -372 122 -375 117 -375 c 0
 113 -375 110 -372 110 -367 c 2
 110 -69 l 1
 88 -52 65 -50 54 -50 c 0
 26 -50 12 -62 7 -62 c 0
EndSplineSet
EndChar
StartChar: clefs.vaticana.fa_change
Encoding: 57851 57851 273
Width: 263
GlyphClass: 2
Flags: MW
HStem: -200 150<197.5 221.5> 50 150<197.5 221.5 172 225.5>
VStem: 110 15<-367 -69 -69 -69> 137 15<-14.5 14.5 -14.5 69>
Fore
213 50 m 0
 182 50 152 29 152 0 c 0
 152 -29 182 -50 213 -50 c 0
 238 -50 251 -36 255 -36 c 0
 261 -36 262 -95 262 -111 c 0
 262 -138 261 -182 256 -186 c 0
 243 -195 229 -200 214 -200 c 0
 169 -200 143 -159 140 -122 c 0
 138 -108 137 -89 137 -69 c 2
 137 69 l 2
 137 90 130 200 214 200 c 0
 229 200 243 195 256 186 c 1
 260 182 262 138 262 111 c 0
 262 95 261 36 255 36 c 0
 251 36 238 50 213 50 c 0
7 -62 m 0
 1 -62 0 -13 0 0 c 0
 0 9 0 58 7 62 c 0
 21 71 38 75 54 75 c 0
 77 75 100 67 118 50 c 0
 123 45 125 10 125 -12 c 2
 125 -367 l 2
 125 -372 122 -375 117 -375 c 0
 113 -375 110 -372 110 -367 c 2
 110 -69 l 1
 88 -52 65 -50 54 -50 c 0
 26 -50 12 -62 7 -62 c 0
EndSplineSet
EndChar
StartChar: clefs.medicaea.do
Encoding: 57852 57852 274
Width: 250
GlyphClass: 2
Flags: MW
HStem: 0 21G<236 237 236 236>
VStem: 0 25<-362 -132 -7 118 243 362>
Fore
250 -188 m 0
 250 -201 248 -250 237 -250 c 2
 236 -250 l 1
 25 -132 l 1
 25 -362 l 2
 25 -369 19 -375 13 -375 c 0
 6 -375 0 -369 0 -362 c 2
 0 362 l 2
 0 369 6 375 13 375 c 0
 19 375 25 369 25 362 c 2
 25 243 l 1
 239 125 l 2
 246 121 250 91 250 62 c 0
 250 49 248 0 237 0 c 2
 236 0 l 1
 25 118 l 1
 25 -7 l 1
 239 -125 l 2
 246 -129 250 -159 250 -188 c 0
EndSplineSet
EndChar
StartChar: clefs.medicaea.do_change
Encoding: 57853 57853 275
Width: 200
GlyphClass: 2
Flags: MW
VStem: 0 20<-290 -131 -31 119 219 290>
Fore
200 -175 m 0
 200 -186 198 -225 190 -225 c 2
 189 -225 l 1
 20 -131 l 1
 20 -290 l 2
 20 -296 16 -300 10 -300 c 0
 4 -300 0 -296 0 -290 c 2
 0 290 l 2
 0 296 4 300 10 300 c 0
 16 300 20 296 20 290 c 2
 20 219 l 1
 191 125 l 2
 197 122 200 98 200 75 c 0
 200 64 198 25 190 25 c 2
 189 25 l 1
 20 119 l 1
 20 -31 l 1
 191 -125 l 2
 197 -128 200 -152 200 -175 c 0
EndSplineSet
EndChar
StartChar: clefs.medicaea.fa
Encoding: 57854 57854 276
Width: 426
GlyphClass: 2
Flags: MW
HStem: 0 21G<112 112 411 412 411 411>
VStem: 87 25<-362 -125 -125 -125> 175 25<-362 -132 -7 118 243 362>
Fore
425 -188 m 0
 425 -201 422 -250 412 -250 c 2
 411 -250 l 1
 200 -132 l 1
 200 -362 l 2
 200 -369 194 -375 188 -375 c 0
 181 -375 175 -369 175 -362 c 2
 175 362 l 2
 175 369 181 375 188 375 c 0
 194 375 200 369 200 362 c 2
 200 243 l 1
 414 125 l 2
 421 121 425 91 425 62 c 0
 425 49 422 0 412 0 c 2
 411 0 l 1
 200 118 l 1
 200 -7 l 1
 414 -125 l 2
 421 -129 425 -159 425 -188 c 0
100 125 m 2
 110 125 112 26 112 0 c 2
 112 -362 l 2
 112 -369 107 -375 100 -375 c 0
 93 -375 87 -369 87 -362 c 2
 87 -125 l 1
 13 -125 l 2
 2 -125 0 -26 0 0 c 0
 0 26 2 125 13 125 c 2
 100 125 l 2
EndSplineSet
EndChar
StartChar: clefs.medicaea.fa_change
Encoding: 57855 57855 277
Width: 341
GlyphClass: 2
Flags: MW
VStem: 70 20<-290 -100 -100 -100> 140 20<-290 -131 -31 119 219 290>
Fore
340 -175 m 0
 340 -186 338 -225 330 -225 c 2
 329 -225 l 1
 160 -131 l 1
 160 -290 l 2
 160 -296 156 -300 150 -300 c 0
 144 -300 140 -296 140 -290 c 2
 140 290 l 2
 140 296 144 300 150 300 c 0
 156 300 160 296 160 290 c 2
 160 219 l 1
 331 125 l 2
 337 122 340 98 340 75 c 0
 340 64 338 25 330 25 c 2
 329 25 l 1
 160 119 l 1
 160 -31 l 1
 331 -125 l 2
 337 -128 340 -152 340 -175 c 0
80 100 m 2
 88 100 90 21 90 0 c 2
 90 -290 l 2
 90 -296 86 -300 80 -300 c 0
 74 -300 70 -296 70 -290 c 2
 70 -100 l 1
 10 -100 l 2
 2 -100 0 -21 0 0 c 0
 0 21 2 100 10 100 c 2
 80 100 l 2
EndSplineSet
EndChar
StartChar: clefs.neomensural.c
Encoding: 57856 57856 278
Width: 652
GlyphClass: 2
Flags: MW
HStem: -138 88<126.5 515 135 515> 50 88<128 515 135 515>
VStem: 0 35<-490 490> 75 35<-490 -175 -32 -25 -25 25 165.5 175 175 490> 540 35<-490 -175 -175 -165.5 -25 25 25 32 175 490> 615 35<-490 490>
Fore
110 -490 m 2
 110 -496 100 -500 93 -500 c 0
 85 -500 75 -496 75 -490 c 2
 75 490 l 2
 75 496 85 500 93 500 c 0
 100 500 110 496 110 490 c 2
 110 175 l 2
 110 156 118 138 135 138 c 2
 515 138 l 2
 532 138 540 156 540 175 c 2
 540 490 l 2
 540 496 550 500 558 500 c 0
 565 500 575 496 575 490 c 2
 575 -490 l 2
 575 -496 565 -500 558 -500 c 0
 550 -500 540 -496 540 -490 c 2
 540 -175 l 2
 540 -156 532 -138 515 -138 c 2
 135 -138 l 2
 118 -138 110 -156 110 -175 c 2
 110 -490 l 2
650 -490 m 2
 650 -496 640 -500 633 -500 c 0
 625 -500 615 -496 615 -490 c 2
 615 490 l 2
 615 496 625 500 633 500 c 0
 640 500 650 496 650 490 c 2
 650 -490 l 2
35 -490 m 2
 35 -496 25 -500 18 -500 c 0
 10 -500 0 -496 0 -490 c 2
 0 490 l 2
 0 496 10 500 18 500 c 0
 25 500 35 496 35 490 c 2
 35 -490 l 2
110 -25 m 2
 110 -39 121 -50 135 -50 c 2
 515 -50 l 2
 529 -50 540 -39 540 -25 c 2
 540 25 l 2
 540 39 529 50 515 50 c 2
 135 50 l 2
 121 50 110 39 110 25 c 2
 110 -25 l 2
EndSplineSet
EndChar
StartChar: clefs.neomensural.c_change
Encoding: 57857 57857 279
Width: 521
GlyphClass: 2
Flags: MW
HStem: -110 70<101.5 412 108 412> 40 70<102.5 412 108 412>
VStem: 0 28<-390 390> 60 28<-390 -140 -25.5 -20 -20 20 132.5 140 140 390> 432 28<-390 -140 -140 -132.5 -20 20 20 25.5 140 390> 492 28<-390 390>
Fore
88 -390 m 2
 88 -396 81 -400 74 -400 c 0
 67 -400 60 -396 60 -390 c 2
 60 390 l 2
 60 396 67 400 74 400 c 0
 81 400 88 396 88 390 c 2
 88 140 l 2
 88 125 95 110 108 110 c 2
 412 110 l 2
 425 110 432 125 432 140 c 2
 432 390 l 2
 432 396 439 400 446 400 c 0
 453 400 460 396 460 390 c 2
 460 -390 l 2
 460 -396 453 -400 446 -400 c 0
 439 -400 432 -396 432 -390 c 2
 432 -140 l 2
 432 -125 425 -110 412 -110 c 2
 108 -110 l 2
 95 -110 88 -125 88 -140 c 2
 88 -390 l 2
520 -390 m 2
 520 -396 513 -400 506 -400 c 0
 499 -400 492 -396 492 -390 c 2
 492 390 l 2
 492 396 499 400 506 400 c 0
 513 400 520 396 520 390 c 2
 520 -390 l 2
28 -390 m 2
 28 -396 21 -400 14 -400 c 0
 7 -400 0 -396 0 -390 c 2
 0 390 l 2
 0 396 7 400 14 400 c 0
 21 400 28 396 28 390 c 2
 28 -390 l 2
88 -20 m 2
 88 -31 97 -40 108 -40 c 2
 412 -40 l 2
 423 -40 432 -31 432 -20 c 2
 432 20 l 2
 432 31 423 40 412 40 c 2
 108 40 l 2
 97 40 88 31 88 20 c 2
 88 -20 l 2
EndSplineSet
EndChar
StartChar: clefs.petrucci.c1
Encoding: 57858 57858 280
Width: 250
GlyphClass: 2
Flags: MW
HStem: -263 88<51.5 190 60 190> -75 150<53 190 60 190> 175 88<53 190 60 190>
VStem: 0 35<-340 -300 -157 -150 -150 -100 93 100 100 150 290.5 300 300 790> 215 35<-306 -300 -300 -290.5 -150 -100 -100 -93 100 150 150 157 300 550>
Fore
35 -150 m 2
 35 -164 46 -175 60 -175 c 2
 190 -175 l 2
 204 -175 215 -164 215 -150 c 2
 215 -100 l 2
 215 -86 204 -75 190 -75 c 2
 60 -75 l 2
 46 -75 35 -86 35 -100 c 2
 35 -150 l 2
35 100 m 2
 35 86 46 75 60 75 c 2
 190 75 l 2
 204 75 215 86 215 100 c 2
 215 150 l 2
 215 164 204 175 190 175 c 2
 60 175 l 2
 46 175 35 164 35 150 c 2
 35 100 l 2
215 550 m 2
 215 556 225 560 232 560 c 0
 240 560 250 556 250 550 c 2
 250 -300 l 2
 250 -312 241 -318 232 -318 c 0
 224 -318 215 -312 215 -300 c 0
 215 -281 207 -263 190 -263 c 2
 60 -263 l 2
 43 -263 35 -281 35 -300 c 2
 35 -340 l 2
 35 -346 25 -350 18 -350 c 0
 10 -350 0 -346 0 -340 c 2
 0 790 l 2
 0 796 10 800 18 800 c 0
 25 800 35 796 35 790 c 2
 35 300 l 2
 35 281 43 263 60 263 c 2
 190 263 l 2
 207 263 215 281 215 300 c 2
 215 550 l 2
EndSplineSet
EndChar
StartChar: clefs.petrucci.c1_change
Encoding: 57859 57859 281
Width: 200
GlyphClass: 2
Flags: MW
HStem: -235 70<41.5 152 48 152> -85 170<42.5 152 48 152> 165 70<42.5 152 48 152>
VStem: 0 28<-303 -265 -150.5 -145 -145 -105 99.5 105 105 145 257.5 265 265 706> 172 28<-269.5 -265 -265 -257.5 -145 -105 -105 -99.5 105 145 145 150.5 265 492>
Fore
28 -145 m 2
 28 -156 37 -165 48 -165 c 2
 152 -165 l 2
 163 -165 172 -156 172 -145 c 2
 172 -105 l 2
 172 -94 163 -85 152 -85 c 2
 48 -85 l 2
 37 -85 28 -94 28 -105 c 2
 28 -145 l 2
28 105 m 2
 28 94 37 85 48 85 c 2
 152 85 l 2
 163 85 172 94 172 105 c 2
 172 145 l 2
 172 156 163 165 152 165 c 2
 48 165 l 2
 37 165 28 156 28 145 c 2
 28 105 l 2
172 492 m 2
 172 498 179 502 186 502 c 0
 193 502 200 498 200 492 c 2
 200 -265 l 2
 200 -274 193 -279 186 -279 c 0
 179 -279 172 -274 172 -265 c 0
 172 -250 165 -235 152 -235 c 2
 48 -235 l 2
 35 -235 28 -250 28 -265 c 2
 28 -303 l 2
 28 -309 21 -313 14 -313 c 0
 7 -313 0 -309 0 -303 c 2
 0 706 l 2
 0 712 7 716 14 716 c 0
 21 716 28 712 28 706 c 2
 28 265 l 2
 28 250 35 235 48 235 c 2
 152 235 l 2
 165 235 172 250 172 265 c 2
 172 492 l 2
EndSplineSet
EndChar
StartChar: clefs.petrucci.c2
Encoding: 57860 57860 282
Width: 250
GlyphClass: 2
Flags: MW
HStem: -263 88<51.5 190 60 190> -75 150<53 190 60 190> 175 88<53 190 60 190>
VStem: 0 35<-590 -300 -157 -150 -150 -100 93 100 100 150 290.5 300 300 790> 215 35<-540 -300 -300 -290.5 -150 -100 -100 -93 100 150 150 157 300 550>
Fore
35 -150 m 2
 35 -164 46 -175 60 -175 c 2
 190 -175 l 2
 204 -175 215 -164 215 -150 c 2
 215 -100 l 2
 215 -86 204 -75 190 -75 c 2
 60 -75 l 2
 46 -75 35 -86 35 -100 c 2
 35 -150 l 2
35 100 m 2
 35 86 46 75 60 75 c 2
 190 75 l 2
 204 75 215 86 215 100 c 2
 215 150 l 2
 215 164 204 175 190 175 c 2
 60 175 l 2
 46 175 35 164 35 150 c 2
 35 100 l 2
250 -540 m 2
 250 -546 240 -550 232 -550 c 0
 225 -550 215 -546 215 -540 c 2
 215 -300 l 2
 215 -281 207 -263 190 -263 c 2
 60 -263 l 2
 43 -263 35 -281 35 -300 c 2
 35 -590 l 2
 35 -596 25 -600 18 -600 c 0
 10 -600 0 -596 0 -590 c 2
 0 790 l 2
 0 796 10 800 18 800 c 0
 25 800 35 796 35 790 c 2
 35 300 l 2
 35 281 43 263 60 263 c 2
 190 263 l 2
 207 263 215 281 215 300 c 2
 215 550 l 2
 215 556 225 560 232 560 c 0
 240 560 250 556 250 550 c 2
 250 -540 l 2
EndSplineSet
EndChar
StartChar: clefs.petrucci.c2_change
Encoding: 57861 57861 283
Width: 200
GlyphClass: 2
Flags: MW
HStem: -235 70<41.5 152 48 152> -85 170<42.5 152 48 152> 165 70<42.5 152 48 152>
VStem: 0 28<-527 -265 -150.5 -145 -145 -105 99.5 105 105 145 257.5 265 265 706> 172 28<-482 -265 -265 -257.5 -145 -105 -105 -99.5 105 145 145 150.5 265 492>
Fore
28 -145 m 2
 28 -156 37 -165 48 -165 c 2
 152 -165 l 2
 163 -165 172 -156 172 -145 c 2
 172 -105 l 2
 172 -94 163 -85 152 -85 c 2
 48 -85 l 2
 37 -85 28 -94 28 -105 c 2
 28 -145 l 2
28 105 m 2
 28 94 37 85 48 85 c 2
 152 85 l 2
 163 85 172 94 172 105 c 2
 172 145 l 2
 172 156 163 165 152 165 c 2
 48 165 l 2
 37 165 28 156 28 145 c 2
 28 105 l 2
200 -482 m 2
 200 -488 193 -492 186 -492 c 0
 179 -492 172 -488 172 -482 c 2
 172 -265 l 2
 172 -250 165 -235 152 -235 c 2
 48 -235 l 2
 35 -235 28 -250 28 -265 c 2
 28 -527 l 2
 28 -533 21 -537 14 -537 c 0
 7 -537 0 -533 0 -527 c 2
 0 706 l 2
 0 712 7 716 14 716 c 0
 21 716 28 712 28 706 c 2
 28 265 l 2
 28 250 35 235 48 235 c 2
 152 235 l 2
 165 235 172 250 172 265 c 2
 172 492 l 2
 172 498 179 502 186 502 c 0
 193 502 200 498 200 492 c 2
 200 -482 l 2
EndSplineSet
EndChar
StartChar: clefs.petrucci.c3
Encoding: 57862 57862 284
Width: 250
GlyphClass: 2
Flags: MW
HStem: -263 88<51.5 190 60 190> -75 150<53 190 60 190> 175 88<53 190 60 190>
VStem: 0 35<-790 -300 -157 -150 -150 -100 93 100 100 150 290.5 300 300 790> 215 35<-550 -300 -300 -290.5 -150 -100 -100 -93 100 150 150 157 300 550>
Fore
35 -150 m 2
 35 -164 46 -175 60 -175 c 2
 190 -175 l 2
 204 -175 215 -164 215 -150 c 2
 215 -100 l 2
 215 -86 204 -75 190 -75 c 2
 60 -75 l 2
 46 -75 35 -86 35 -100 c 2
 35 -150 l 2
35 100 m 2
 35 86 46 75 60 75 c 2
 190 75 l 2
 204 75 215 86 215 100 c 2
 215 150 l 2
 215 164 204 175 190 175 c 2
 60 175 l 2
 46 175 35 164 35 150 c 2
 35 100 l 2
250 -550 m 2
 250 -556 240 -560 232 -560 c 0
 225 -560 215 -556 215 -550 c 2
 215 -300 l 2
 215 -281 207 -263 190 -263 c 2
 60 -263 l 2
 43 -263 35 -281 35 -300 c 2
 35 -790 l 2
 35 -796 25 -800 18 -800 c 0
 10 -800 0 -796 0 -790 c 2
 0 790 l 2
 0 796 10 800 18 800 c 0
 25 800 35 796 35 790 c 2
 35 300 l 2
 35 281 43 263 60 263 c 2
 190 263 l 2
 207 263 215 281 215 300 c 2
 215 550 l 2
 215 556 225 560 232 560 c 0
 240 560 250 556 250 550 c 2
 250 -550 l 2
EndSplineSet
EndChar
StartChar: clefs.petrucci.c3_change
Encoding: 57863 57863 285
Width: 200
GlyphClass: 2
Flags: MW
HStem: -235 70<41.5 152 48 152> -85 170<42.5 152 48 152> 165 70<42.5 152 48 152>
VStem: 0 28<-706 -265 -150.5 -145 -145 -105 99.5 105 105 145 257.5 265 265 706> 172 28<-492 -265 -265 -257.5 -145 -105 -105 -99.5 105 145 145 150.5 265 492>
Fore
28 -145 m 2
 28 -156 37 -165 48 -165 c 2
 152 -165 l 2
 163 -165 172 -156 172 -145 c 2
 172 -105 l 2
 172 -94 163 -85 152 -85 c 2
 48 -85 l 2
 37 -85 28 -94 28 -105 c 2
 28 -145 l 2
28 105 m 2
 28 94 37 85 48 85 c 2
 152 85 l 2
 163 85 172 94 172 105 c 2
 172 145 l 2
 172 156 163 165 152 165 c 2
 48 165 l 2
 37 165 28 156 28 145 c 2
 28 105 l 2
200 -492 m 2
 200 -498 193 -502 186 -502 c 0
 179 -502 172 -498 172 -492 c 2
 172 -265 l 2
 172 -250 165 -235 152 -235 c 2
 48 -235 l 2
 35 -235 28 -250 28 -265 c 2
 28 -706 l 2
 28 -712 21 -716 14 -716 c 0
 7 -716 0 -712 0 -706 c 2
 0 706 l 2
 0 712 7 716 14 716 c 0
 21 716 28 712 28 706 c 2
 28 265 l 2
 28 250 35 235 48 235 c 2
 152 235 l 2
 165 235 172 250 172 265 c 2
 172 492 l 2
 172 498 179 502 186 502 c 0
 193 502 200 498 200 492 c 2
 200 -492 l 2
EndSplineSet
EndChar
StartChar: clefs.petrucci.c4
Encoding: 57864 57864 286
Width: 250
GlyphClass: 2
Flags: MW
HStem: -263 88<51.5 190 60 190> -75 150<53 190 60 190> 175 88<53 190 60 190>
VStem: 0 35<-790 -300 -157 -150 -150 -100 93 100 100 150 290.5 300 300 590> 215 35<-550 -300 -300 -290.5 -150 -100 -100 -93 100 150 150 157 300 540>
Fore
35 -150 m 2
 35 -164 46 -175 60 -175 c 2
 190 -175 l 2
 204 -175 215 -164 215 -150 c 2
 215 -100 l 2
 215 -86 204 -75 190 -75 c 2
 60 -75 l 2
 46 -75 35 -86 35 -100 c 2
 35 -150 l 2
35 100 m 2
 35 86 46 75 60 75 c 2
 190 75 l 2
 204 75 215 86 215 100 c 2
 215 150 l 2
 215 164 204 175 190 175 c 2
 60 175 l 2
 46 175 35 164 35 150 c 2
 35 100 l 2
250 -550 m 2
 250 -556 240 -560 232 -560 c 0
 225 -560 215 -556 215 -550 c 2
 215 -300 l 2
 215 -281 207 -263 190 -263 c 2
 60 -263 l 2
 43 -263 35 -281 35 -300 c 2
 35 -790 l 2
 35 -796 25 -800 18 -800 c 0
 10 -800 0 -796 0 -790 c 2
 0 590 l 2
 0 596 10 600 18 600 c 0
 25 600 35 596 35 590 c 2
 35 300 l 2
 35 281 43 263 60 263 c 2
 190 263 l 2
 207 263 215 281 215 300 c 2
 215 540 l 2
 215 546 225 550 232 550 c 0
 240 550 250 546 250 540 c 2
 250 -550 l 2
EndSplineSet
EndChar
StartChar: clefs.petrucci.c4_change
Encoding: 57865 57865 287
Width: 200
GlyphClass: 2
Flags: MW
HStem: -235 70<41.5 152 48 152> -85 170<42.5 152 48 152> 165 70<42.5 152 48 152>
VStem: 0 28<-706 -265 -150.5 -145 -145 -105 99.5 105 105 145 257.5 265 265 527> 172 28<-492 -265 -265 -257.5 -145 -105 -105 -99.5 105 145 145 150.5 265 482>
Fore
28 -145 m 2
 28 -156 37 -165 48 -165 c 2
 152 -165 l 2
 163 -165 172 -156 172 -145 c 2
 172 -105 l 2
 172 -94 163 -85 152 -85 c 2
 48 -85 l 2
 37 -85 28 -94 28 -105 c 2
 28 -145 l 2
28 105 m 2
 28 94 37 85 48 85 c 2
 152 85 l 2
 163 85 172 94 172 105 c 2
 172 145 l 2
 172 156 163 165 152 165 c 2
 48 165 l 2
 37 165 28 156 28 145 c 2
 28 105 l 2
200 -492 m 2
 200 -498 193 -502 186 -502 c 0
 179 -502 172 -498 172 -492 c 2
 172 -265 l 2
 172 -250 165 -235 152 -235 c 2
 48 -235 l 2
 35 -235 28 -250 28 -265 c 2
 28 -706 l 2
 28 -712 21 -716 14 -716 c 0
 7 -716 0 -712 0 -706 c 2
 0 527 l 2
 0 533 7 537 14 537 c 0
 21 537 28 533 28 527 c 2
 28 265 l 2
 28 250 35 235 48 235 c 2
 152 235 l 2
 165 235 172 250 172 265 c 2
 172 482 l 2
 172 488 179 492 186 492 c 0
 193 492 200 488 200 482 c 2
 200 -492 l 2
EndSplineSet
EndChar
StartChar: clefs.petrucci.c5
Encoding: 57866 57866 288
Width: 250
GlyphClass: 2
Flags: MW
HStem: -263 88<51.5 190 60 190> -75 150<53 190 60 190> 175 88<53 190 60 190>
VStem: 0 35<-790 -300 -157 -150 -150 -100 93 100 100 150 290.5 300 300 340> 215 35<-550 -300 -300 -290.5 -150 -100 -100 -93 100 150 150 157 290.5 300>
Fore
35 -150 m 2
 35 -164 46 -175 60 -175 c 2
 190 -175 l 2
 204 -175 215 -164 215 -150 c 2
 215 -100 l 2
 215 -86 204 -75 190 -75 c 2
 60 -75 l 2
 46 -75 35 -86 35 -100 c 2
 35 -150 l 2
35 100 m 2
 35 86 46 75 60 75 c 2
 190 75 l 2
 204 75 215 86 215 100 c 2
 215 150 l 2
 215 164 204 175 190 175 c 2
 60 175 l 2
 46 175 35 164 35 150 c 2
 35 100 l 2
250 -550 m 2
 250 -556 240 -560 232 -560 c 0
 225 -560 215 -556 215 -550 c 2
 215 -300 l 2
 215 -281 207 -263 190 -263 c 2
 60 -263 l 2
 43 -263 35 -281 35 -300 c 2
 35 -790 l 2
 35 -796 25 -800 18 -800 c 0
 10 -800 0 -796 0 -790 c 2
 0 340 l 2
 0 346 10 350 18 350 c 0
 25 350 35 346 35 340 c 2
 35 300 l 2
 35 281 43 263 60 263 c 2
 190 263 l 2
 207 263 215 281 215 300 c 0
 215 312 224 318 232 318 c 0
 241 318 250 312 250 300 c 2
 250 -550 l 2
EndSplineSet
EndChar
StartChar: clefs.petrucci.c5_change
Encoding: 57867 57867 289
Width: 200
GlyphClass: 2
Flags: MW
HStem: -235 70<41.5 152 48 152> -85 170<42.5 152 48 152> 165 70<42.5 152 48 152>
VStem: 0 28<-706 -265 -150.5 -145 -145 -105 99.5 105 105 145 257.5 265 265 303> 172 28<-492 -265 -265 -257.5 -145 -105 -105 -99.5 105 145 145 150.5 257.5 265>
Fore
28 -145 m 2
 28 -156 37 -165 48 -165 c 2
 152 -165 l 2
 163 -165 172 -156 172 -145 c 2
 172 -105 l 2
 172 -94 163 -85 152 -85 c 2
 48 -85 l 2
 37 -85 28 -94 28 -105 c 2
 28 -145 l 2
28 105 m 2
 28 94 37 85 48 85 c 2
 152 85 l 2
 163 85 172 94 172 105 c 2
 172 145 l 2
 172 156 163 165 152 165 c 2
 48 165 l 2
 37 165 28 156 28 145 c 2
 28 105 l 2
200 -492 m 2
 200 -498 193 -502 186 -502 c 0
 179 -502 172 -498 172 -492 c 2
 172 -265 l 2
 172 -250 165 -235 152 -235 c 2
 48 -235 l 2
 35 -235 28 -250 28 -265 c 2
 28 -706 l 2
 28 -712 21 -716 14 -716 c 0
 7 -716 0 -712 0 -706 c 2
 0 303 l 2
 0 309 7 313 14 313 c 0
 21 313 28 309 28 303 c 2
 28 265 l 2
 28 250 35 235 48 235 c 2
 152 235 l 2
 165 235 172 250 172 265 c 0
 172 274 179 279 186 279 c 0
 193 279 200 274 200 265 c 2
 200 -492 l 2
EndSplineSet
EndChar
StartChar: clefs.mensural.c
Encoding: 57868 57868 290
Width: 501
GlyphClass: 2
Flags: MW
HStem: -485 70<41.5 452 48 452> -335 170<42.5 452 48 452> -85 170<42.5 452 48 452> 165 70<42.5 452 48 452>
VStem: 0 28<-790 -515 -400.5 -395 -395 -355 -150.5 -145 -145 -105 99.5 105 105 145 257.5 265 265 540> 472 28<-600 -515 -515 -507.5 -395 -355 -355 -349.5 -145 -105 -105 -99.5 105 145 145 150.5 265 350>
Fore
28 -395 m 2
 28 -406 37 -415 48 -415 c 2
 452 -415 l 2
 463 -415 472 -406 472 -395 c 2
 472 -355 l 2
 472 -344 463 -335 452 -335 c 2
 48 -335 l 2
 37 -335 28 -344 28 -355 c 2
 28 -395 l 2
28 -145 m 2
 28 -156 37 -165 48 -165 c 2
 452 -165 l 2
 463 -165 472 -156 472 -145 c 2
 472 -105 l 2
 472 -94 463 -85 452 -85 c 2
 48 -85 l 2
 37 -85 28 -94 28 -105 c 2
 28 -145 l 2
28 105 m 2
 28 94 37 85 48 85 c 2
 452 85 l 2
 463 85 472 94 472 105 c 2
 472 145 l 2
 472 156 463 165 452 165 c 2
 48 165 l 2
 37 165 28 156 28 145 c 2
 28 105 l 2
500 -600 m 2
 500 -606 493 -610 486 -610 c 0
 479 -610 472 -606 472 -600 c 2
 472 -515 l 2
 472 -500 465 -485 452 -485 c 2
 48 -485 l 2
 35 -485 28 -500 28 -515 c 2
 28 -790 l 2
 28 -796 21 -800 14 -800 c 0
 7 -800 0 -796 0 -790 c 2
 0 540 l 2
 0 546 7 550 14 550 c 0
 21 550 28 546 28 540 c 2
 28 265 l 2
 28 250 35 235 48 235 c 2
 452 235 l 2
 465 235 472 250 472 265 c 2
 472 350 l 2
 472 356 479 360 486 360 c 0
 493 360 500 356 500 350 c 2
 500 -600 l 2
EndSplineSet
EndChar
StartChar: clefs.mensural.c_change
Encoding: 57869 57869 291
Width: 401
GlyphClass: 2
Flags: MW
HStem: -485 70<41.5 352 48 352> -335 170<42.5 352 48 352> -85 170<42.5 352 48 352> 165 70<42.5 352 48 352>
VStem: 0 28<-732 -515 -400.5 -395 -395 -355 -150.5 -145 -145 -105 99.5 105 105 145 257.5 265 265 482> 372 28<-563 -515 -515 -507.5 -395 -355 -355 -349.5 -145 -105 -105 -99.5 105 145 145 150.5 265 313>
Fore
28 -395 m 2
 28 -406 37 -415 48 -415 c 2
 352 -415 l 2
 363 -415 372 -406 372 -395 c 2
 372 -355 l 2
 372 -344 363 -335 352 -335 c 2
 48 -335 l 2
 37 -335 28 -344 28 -355 c 2
 28 -395 l 2
28 -145 m 2
 28 -156 37 -165 48 -165 c 2
 352 -165 l 2
 363 -165 372 -156 372 -145 c 2
 372 -105 l 2
 372 -94 363 -85 352 -85 c 2
 48 -85 l 2
 37 -85 28 -94 28 -105 c 2
 28 -145 l 2
28 105 m 2
 28 94 37 85 48 85 c 2
 352 85 l 2
 363 85 372 94 372 105 c 2
 372 145 l 2
 372 156 363 165 352 165 c 2
 48 165 l 2
 37 165 28 156 28 145 c 2
 28 105 l 2
400 -563 m 2
 400 -569 393 -573 386 -573 c 0
 379 -573 372 -569 372 -563 c 2
 372 -515 l 2
 372 -500 365 -485 352 -485 c 2
 48 -485 l 2
 35 -485 28 -500 28 -515 c 2
 28 -732 l 2
 28 -738 21 -742 14 -742 c 0
 7 -742 0 -738 0 -732 c 2
 0 482 l 2
 0 488 7 492 14 492 c 0
 21 492 28 488 28 482 c 2
 28 265 l 2
 28 250 35 235 48 235 c 2
 352 235 l 2
 365 235 372 250 372 265 c 2
 372 313 l 2
 372 319 379 323 386 323 c 0
 393 323 400 319 400 313 c 2
 400 -563 l 2
EndSplineSet
EndChar
StartChar: clefs.petrucci.f
Encoding: 57870 57870 292
Width: 488
GlyphClass: 2
Flags: MW
HStem: -138 88<51.5 190 60 190> 50 88<53 190 60 190>
VStem: 0 35<-175 -165.5 -32 -25 -25 25 165.5 175 175 181> 215 35<-1000 -175 -175 -165.5 -25 25 25 32 165.5 175> 365 35<-1115 -298> 400 35<298 615 292 618>
Fore
400 -1115 m 2
 400 -1121 390 -1125 383 -1125 c 0
 375 -1125 365 -1121 365 -1115 c 2
 365 -292 l 1
 284 -152 l 2
 282 -149 281 -142 288 -129 c 2
 352 -19 l 1
 284 98 l 2
 282 101 281 108 288 121 c 2
 375 271 l 2
 380 281 390 291 400 298 c 1
 400 615 l 2
 400 621 410 625 418 625 c 0
 425 625 435 621 435 615 c 2
 435 292 l 1
 516 152 l 2
 517 150 517 148 517 146 c 0
 517 139 514 132 512 129 c 2
 448 19 l 1
 516 -98 l 2
 517 -100 517 -102 517 -104 c 0
 517 -111 514 -118 512 -121 c 2
 425 -271 l 2
 420 -281 410 -291 400 -298 c 1
 400 -1115 l 2
402 49 m 1
 406 51 416 57 424 56 c 1
 453 106 l 1
 389 216 l 1
 347 144 l 1
 402 49 l 1
35 -25 m 2
 35 -39 46 -50 60 -50 c 2
 190 -50 l 2
 204 -50 215 -39 215 -25 c 2
 215 25 l 2
 215 39 204 50 190 50 c 2
 60 50 l 2
 46 50 35 39 35 25 c 2
 35 -25 l 2
250 -1000 m 2
 250 -1006 240 -1010 232 -1010 c 0
 225 -1010 215 -1006 215 -1000 c 2
 215 -175 l 2
 215 -156 207 -138 190 -138 c 2
 60 -138 l 2
 43 -138 35 -156 35 -175 c 0
 35 -187 26 -193 18 -193 c 0
 9 -193 0 -187 0 -175 c 2
 0 175 l 2
 0 187 9 193 18 193 c 0
 26 193 35 187 35 175 c 0
 35 156 43 138 60 138 c 2
 190 138 l 2
 207 138 215 156 215 175 c 0
 215 187 224 193 232 193 c 0
 241 193 250 187 250 175 c 2
 250 -1000 l 2
398 -49 m 1
 394 -51 384 -57 376 -56 c 1
 347 -106 l 1
 411 -216 l 1
 453 -144 l 1
 398 -49 l 1
EndSplineSet
EndChar
StartChar: clefs.petrucci.f_change
Encoding: 57871 57871 293
Width: 390
GlyphClass: 2
Flags: MW
HStem: -110 70<41.5 152 48 152> 40 70<42.5 152 48 152>
VStem: 0 28<-140 -132.5 -25.5 -20 -20 20 132.5 140 140 144.5> 172 28<-800 -140 -140 -132.5 -20 20 20 25.5 132.5 140> 292 28<-890 -263> 320 28<263 490 259 493>
Fore
311 -52 m 1
 278 -110 l 1
 329 -198 l 1
 362 -140 l 1
 311 -52 l 1
320 -890 m 2
 320 -896 313 -900 306 -900 c 0
 299 -900 292 -896 292 -890 c 2
 292 -259 l 1
 227 -146 l 2
 226 -144 225 -139 230 -128 c 2
 296 -15 l 1
 227 104 l 2
 226 106 225 111 230 122 c 2
 300 242 l 2
 304 249 312 258 320 263 c 1
 320 490 l 2
 320 496 327 500 334 500 c 0
 341 500 348 496 348 490 c 2
 348 259 l 1
 413 146 l 2
 414 145 414 144 414 142 c 0
 414 136 411 131 410 128 c 1
 344 15 l 1
 413 -104 l 2
 414 -105 414 -106 414 -108 c 0
 414 -114 411 -119 410 -122 c 1
 340 -242 l 2
 336 -249 328 -258 320 -263 c 1
 320 -890 l 2
311 198 m 1
 278 140 l 1
 329 52 l 1
 362 110 l 1
 311 198 l 1
28 -20 m 2
 28 -31 37 -40 48 -40 c 2
 152 -40 l 2
 163 -40 172 -31 172 -20 c 2
 172 20 l 2
 172 31 163 40 152 40 c 2
 48 40 l 2
 37 40 28 31 28 20 c 2
 28 -20 l 2
200 -800 m 2
 200 -806 193 -810 186 -810 c 0
 179 -810 172 -806 172 -800 c 2
 172 -140 l 2
 172 -125 165 -110 152 -110 c 2
 48 -110 l 2
 35 -110 28 -125 28 -140 c 0
 28 -149 21 -154 14 -154 c 0
 7 -154 0 -149 0 -140 c 2
 0 140 l 2
 0 149 7 154 14 154 c 0
 21 154 28 149 28 140 c 0
 28 125 35 110 48 110 c 2
 152 110 l 2
 165 110 172 125 172 140 c 0
 172 149 179 154 186 154 c 0
 193 154 200 149 200 140 c 2
 200 -800 l 2
EndSplineSet
EndChar
StartChar: clefs.mensural.f
Encoding: 57872 57872 294
Width: 301
GlyphClass: 2
Flags: MW
HStem: -175 50<28 61> 125 50<28 49>
VStem: 150 49<-38 26.5>
Fore
272 -79 m 1
 297 -104 l 2
 299 -107 300 -110 300 -113 c 0
 300 -137 266 -158 254 -147 c 2
 229 -122 l 2
 218 -111 235 -83 257 -77 c 0
 263 -75 268 -76 272 -79 c 1
272 147 m 1
 297 122 l 2
 299 120 300 116 300 113 c 0
 300 89 266 68 254 79 c 2
 229 104 l 2
 218 115 235 144 257 149 c 0
 263 151 268 150 272 147 c 1
0 -162 m 0
 0 -147 19 -125 37 -125 c 0
 102 -125 150 -80 150 -12 c 0
 150 65 86 125 12 125 c 0
 2 125 0 133 0 138 c 0
 0 153 19 175 37 175 c 0
 124 175 199 105 199 12 c 0
 199 -88 110 -175 12 -175 c 0
 2 -175 0 -167 0 -162 c 0
EndSplineSet
EndChar
StartChar: clefs.mensural.f_change
Encoding: 57873 57873 295
Width: 240
GlyphClass: 2
Flags: MW
HStem: -140 40<22 49> 100 40<22 39.5>
VStem: 120 39<-30.5 21>
Fore
217 -63 m 2
 237 -83 l 2
 239 -85 240 -88 240 -91 c 0
 240 -110 213 -127 203 -117 c 2
 183 -97 l 2
 175 -89 188 -66 205 -61 c 0
 210 -60 215 -61 217 -63 c 2
217 117 m 2
 237 97 l 1
 239 96 240 93 240 90 c 0
 240 71 213 54 203 63 c 2
 183 83 l 2
 175 92 188 115 205 119 c 1
 210 121 215 120 217 117 c 2
0 -130 m 0
 0 -117 15 -100 29 -100 c 0
 81 -100 120 -64 120 -10 c 0
 120 52 69 100 10 100 c 0
 2 100 0 106 0 110 c 0
 0 123 15 140 29 140 c 0
 99 140 159 84 159 10 c 0
 159 -71 88 -140 10 -140 c 0
 2 -140 0 -134 0 -130 c 0
EndSplineSet
EndChar
StartChar: clefs.petrucci.g
Encoding: 57874 57874 296
Width: 313
GlyphClass: 2
Flags: MW
HStem: -172 68<226 238> -34 68<201.5 322 247 275> 906 45<172.5 194>
VStem: -20 33<233.5 276.5> 73 34<777 807.5> 81 49<-5.5 9> 186 33<25.5 84> 250 33<300 316> 259 33<819.5 843> 278 50<-100 -18 -91 -18>
Fore
283 327 m 0xf3
 283 273 256 215 238 165 c 1
 252 166 281 166 311 146 c 0
 320 140 274 71 264 79 c 0
 248 89 234 94 220 96 c 1
 220 91 219 86 219 82 c 0
 219 62 223 42 232 24 c 1
 238 30 244 34 247 34 c 2
 322 34 l 2
 323 34 325 34 325 30 c 0
 325 11 328 -8 328 -28 c 0xf240
 328 -97 267 -172 209 -172 c 0
 144 -172 81 -105 81 -28 c 0
 81 46 146 143 218 162 c 1
 228 188 250 240 250 287 c 0xf7
 250 345 221 398 203 431 c 2
 168 491 l 1
 156 477 143 462 124 444 c 2
 85 407 l 2
 60 384 13 336 13 273 c 0
 13 194 82 173 82 173 c 1
 88 168 60 124 51 127 c 0
 -6 146 -20 203 -20 233 c 0
 -20 320 65 411 98 443 c 2
 137 479 l 1
 153 495 l 1
 161 503 l 1
 142 537 l 2
 93 630 73 707 73 762 c 0
 73 853 137 951 208 951 c 0
 241 951 292 930 292 841 c 0xfa80
 292 798 265 641 200 536 c 1
 236 475 l 2
 258 435 283 385 283 327 c 0xf3
178 906 m 0
 123 906 107 864 107 799 c 0
 107 755 122 681 175 581 c 2
 192 549 l 1
 226 613 259 746 259 800 c 0xfa80
 259 886 210 906 178 906 c 0
186 41 m 0
 186 52 187 70 195 97 c 1
 177 96 154 89 137 74 c 1
 132 62 130 50 130 37 c 0
 130 -48 198 -104 254 -104 c 0
 262 -104 270 -103 278 -100 c 1
 278 -91 l 2xf640
 278 -80 276 -57 275 -34 c 1
 203 -34 l 2
 200 -34 199 -31 202 -23 c 1
 198 -23 186 10 186 41 c 0
EndSplineSet
EndChar
